{
copyright = "Copyright 2015 Google Inc. All Rights Reserved.";
customParameters = (
{
name = description;
value = "Designed by Monotype design team";
},
{
name = license;
value = "This Font Software is licensed under the SIL Open Font License, Version 1.1. This Font Software is distributed on an \"AS IS\" BASIS, WITHOUT WARRANTIES OR CONDITIONS OF ANY KIND, either express or implied. See the SIL Open Font License for the specific language, permissions and limitations governing your use of this Font Software.";
},
{
name = licenseURL;
value = "http://scripts.sil.org/OFL";
},
{
name = vendorID;
value = GOOG;
},
{
name = glyphOrder;
value = (
    ".notdef",
    NULL,
    CR,
    space,
    uni10A0,
    uni10A1,
    uni10A2,
    uni10A3,
    uni10A4,
    uni10A5,
    uni10A6,
    uni10A7,
    uni10A8,
    uni10A9,
    uni10AA,
    uni10AB,
    uni10AC,
    uni10AD,
    uni10AE,
    uni10AF,
    uni10B0,
    uni10B1,
    uni10B2,
    uni10B3,
    uni10B4,
    uni10B5,
    uni10B6,
    uni10B7,
    uni10B8,
    uni10B9,
    uni10BA,
    uni10BB,
    uni10BC,
    uni10BD,
    uni10BE,
    uni10BF,
    uni10C0,
    uni10C1,
    uni10C2,
    uni10C3,
    uni10C4,
    uni10C5,
    uni10D0,
    uni10D1,
    uni10D2,
    uni10D3,
    uni10D4,
    uni10D5,
    uni10D6,
    uni10D7,
    uni10D8,
    uni10D9,
    uni10DA,
    uni10DB,
    uni10DC,
    uni10DD,
    uni10DE,
    uni10DF,
    uni10E0,
    uni10E1,
    uni10E2,
    uni10E3,
    uni10E4,
    uni10E5,
    uni10E6,
    uni10E7,
    uni10E8,
    uni10E9,
    uni10EA,
    uni10EB,
    uni10EC,
    uni10ED,
    uni10EE,
    uni10EF,
    uni10F0,
    uni10F1,
    uni10F2,
    uni10F3,
    uni10F4,
    uni10F5,
    uni10F6,
    uni10F7,
    uni10F8,
    uni10F9,
    uni10FA,
    uni10FB,
    uni10FC,
    uni2D00,
    uni2D01,
    uni2D02,
    uni2D03,
    uni2D04,
    uni2D05,
    uni2D06,
    uni2D07,
    uni2D08,
    uni2D09,
    uni2D0A,
    uni2D0B,
    uni2D0C,
    uni2D0D,
    uni2D0E,
    uni2D0F,
    uni2D10,

glyphs = (
{
color = 5;
glyphname = .notdef;
lastChange = "2015-09-22 12:09:46 +0000";
layers = (
{
layerId = "F1E1AA8A-A3F5-4941-B4E6-C7B9A7EBF3CF";
name = Light;
paths = (
{
closed = 1;
nodes = (
"505 0 LINE",
"505 714 LINE",
"94 714 LINE",
"94 0 LINE"
);
},
{
closed = 1;
nodes = (
"145 663 LINE",
"454 663 LINE",
"454 51 LINE",
"145 51 LINE"
);
}
);
width = 600;
},
{
layerId = "29BFE51A-F5BD-45F8-BEBC-9AD34273B132";
name = Bold;
paths = (
{
closed = 1;
nodes = (
"505 0 LINE",
"505 714 LINE",
"94 714 LINE",
"94 0 LINE"
);
},
{
closed = 1;
nodes = (
"145 663 LINE",
"454 663 LINE",
"454 51 LINE",
"145 51 LINE"
);
}
);
width = 600;
},
{
layerId = "0228171D-2638-482B-876E-783119597845";
name = "Light Condensed";
paths = (
{
closed = 1;
nodes = (
"505 0 LINE",
"505 714 LINE",
"94 714 LINE",
"94 0 LINE"
);
},
{
closed = 1;
nodes = (
"145 663 LINE",
"454 663 LINE",
"454 51 LINE",
"145 51 LINE"
);
}
);
width = 600;
},
{
layerId = "5ABCF6AD-94E3-4DCD-A28A-F55CA80EA6B2";
name = Condensed;
paths = (
{
closed = 1;
nodes = (
"505 0 LINE",
"505 714 LINE",
"94 714 LINE",
"94 0 LINE"
);
},
{
closed = 1;
nodes = (
"145 663 LINE",
"454 663 LINE",
"454 51 LINE",
"145 51 LINE"
);
}
);
width = 600;
},
{
layerId = "E419AE99-0260-44D0-87A9-BD030FD7659A";
name = "SemiBold Condensed";
paths = (
{
closed = 1;
nodes = (
"505 0 LINE",
"505 714 LINE",
"94 714 LINE",
"94 0 LINE"
);
},
{
closed = 1;
nodes = (
"145 663 LINE",
"454 663 LINE",
"454 51 LINE",
"145 51 LINE"
);
}
);
width = 600;
},
{
layerId = "C7A62E0A-0606-4C56-A5B0-C8EA8B1CCAFA";
name = "Bold Condensed";
paths = (
{
closed = 1;
nodes = (
"505 0 LINE",
"505 714 LINE",
"94 714 LINE",
"94 0 LINE"
);
},
{
closed = 1;
nodes = (
"145 663 LINE",
"454 663 LINE",
"454 51 LINE",
"145 51 LINE"
);
}
);
width = 600;
},
{
layerId = "9503992B-9F6A-43B6-8DBC-EB382B06F8D4";
name = Regular;
paths = (
{
closed = 1;
nodes = (
"505 0 LINE",
"505 714 LINE",
"94 714 LINE",
"94 0 LINE"
);
},
{
closed = 1;
nodes = (
"145 663 LINE",
"454 663 LINE",
"454 51 LINE",
"145 51 LINE"
);
}
);
width = 600;
},
{
layerId = "2D9814BA-45F0-4FCB-8967-A366BFC6AA80";
name = SemiBold;
paths = (
{
closed = 1;
nodes = (
"505 0 LINE",
"505 714 LINE",
"94 714 LINE",
"94 0 LINE"
);
},
{
closed = 1;
nodes = (
"145 663 LINE",
"454 663 LINE",
"454 51 LINE",
"145 51 LINE"
);
}
);
width = 600;
}
);
note = .notdef;
},
{
color = 5;
glyphname = uni10A0;
lastChange = "2015-09-22 12:09:46 +0000";
layers = (
{
layerId = "F1E1AA8A-A3F5-4941-B4E6-C7B9A7EBF3CF";
name = Light;
paths = (
{
closed = 1;
nodes = (
"600 -10 OFFCURVE",
"701 127 OFFCURVE",
"701 358 CURVE",
"674 358 LINE",
"674 137 OFFCURVE",
"575 16 OFFCURVE",
"392 16 CURVE SMOOTH",
"208 16 OFFCURVE",
"91 138 OFFCURVE",
"91 346 CURVE SMOOTH",
"91 543 OFFCURVE",
"202 689 OFFCURVE",
"440 689 CURVE SMOOTH",
"671 689 LINE",
"671 714 LINE",
"70 714 LINE",
"70 689 LINE",
"288 689 LINE",
"151 649 OFFCURVE",
"64 520 OFFCURVE",
"64 346 CURVE SMOOTH",
"64 126 OFFCURVE",
"188 -10 OFFCURVE",
"392 -10 CURVE SMOOTH"
);
}
);
width = 765;
},
{
layerId = "29BFE51A-F5BD-45F8-BEBC-9AD34273B132";
name = Bold;
paths = (
{
closed = 1;
nodes = (
"618 -10 OFFCURVE",
"733 120 OFFCURVE",
"733 358 CURVE",
"542 358 LINE",
"542 217 OFFCURVE",
"496 149 OFFCURVE",
"395 149 CURVE SMOOTH",
"301 149 OFFCURVE",
"253 216 OFFCURVE",
"253 331 CURVE SMOOTH",
"253 459 OFFCURVE",
"326 556 OFFCURVE",
"461 556 CURVE SMOOTH",
"726 556 LINE",
"726 714 LINE",
"39 714 LINE",
"39 556 LINE",
"142 556 LINE",
"84 505 OFFCURVE",
"51 416 OFFCURVE",
"51 326 CURVE SMOOTH",
"51 120 OFFCURVE",
"175 -10 OFFCURVE",
"395 -10 CURVE SMOOTH"
);
}
);
width = 782;
},
{
layerId = "0228171D-2638-482B-876E-783119597845";
name = "Light Condensed";
paths = (
{
closed = 1;
nodes = (
"410 -10 OFFCURVE",
"473 126 OFFCURVE",
"473 358 CURVE",
"447 358 LINE",
"447 134 OFFCURVE",
"388 15 OFFCURVE",
"269 15 CURVE SMOOTH",
"151 15 OFFCURVE",
"81 134 OFFCURVE",
"81 347 CURVE SMOOTH",
"81 543 OFFCURVE",
"163 689 OFFCURVE",
"311 689 CURVE SMOOTH",
"455 689 LINE",
"455 714 LINE",
"60 714 LINE",
"60 689 LINE",
"213 689 LINE",
"118 651 OFFCURVE",
"54 527 OFFCURVE",
"54 347 CURVE SMOOTH",
"54 126 OFFCURVE",
"130 -10 OFFCURVE",
"269 -10 CURVE SMOOTH"
);
}
);
width = 527;
},
{
layerId = "5ABCF6AD-94E3-4DCD-A28A-F55CA80EA6B2";
name = Condensed;
paths = (
{
closed = 1;
nodes = (
"442 -10 OFFCURVE",
"516 124 OFFCURVE",
"516 358 CURVE",
"433 358 LINE",
"433 161 OFFCURVE",
"385 63 OFFCURVE",
"286 63 CURVE SMOOTH",
"189 63 OFFCURVE",
"134 161 OFFCURVE",
"134 340 CURVE SMOOTH",
"134 513 OFFCURVE",
"208 637 OFFCURVE",
"342 637 CURVE SMOOTH",
"502 637 LINE",
"502 714 LINE",
"48 714 LINE",
"48 637 LINE",
"184 637 LINE",
"102 596 OFFCURVE",
"49 487 OFFCURVE",
"49 337 CURVE SMOOTH",
"49 123 OFFCURVE",
"132 -10 OFFCURVE",
"285 -10 CURVE SMOOTH"
);
}
);
width = 563;
},
{
layerId = "E419AE99-0260-44D0-87A9-BD030FD7659A";
name = "SemiBold Condensed";
paths = (
{
closed = 1;
nodes = (
"472 -10 OFFCURVE",
"556 122 OFFCURVE",
"556 358 CURVE",
"418 358 LINE",
"418 187 OFFCURVE",
"381 110 OFFCURVE",
"302 110 CURVE SMOOTH",
"225 110 OFFCURVE",
"184 186 OFFCURVE",
"184 333 CURVE SMOOTH",
"184 485 OFFCURVE",
"250 588 OFFCURVE",
"370 588 CURVE SMOOTH",
"547 588 LINE",
"547 714 LINE",
"36 714 LINE",
"36 588 LINE",
"155 588 LINE",
"86 543 OFFCURVE",
"43 448 OFFCURVE",
"43 327 CURVE SMOOTH",
"43 120 OFFCURVE",
"134 -10 OFFCURVE",
"300 -10 CURVE SMOOTH"
);
}
);
width = 598;
},
{
layerId = "C7A62E0A-0606-4C56-A5B0-C8EA8B1CCAFA";
name = "Bold Condensed";
paths = (
{
closed = 1;
nodes = (
"491 -10 OFFCURVE",
"581 121 OFFCURVE",
"581 358 CURVE",
"409 358 LINE",
"409 203 OFFCURVE",
"378 139 OFFCURVE",
"312 139 CURVE SMOOTH",
"247 139 OFFCURVE",
"216 202 OFFCURVE",
"216 329 CURVE SMOOTH",
"216 467 OFFCURVE",
"276 556 OFFCURVE",
"388 556 CURVE SMOOTH",
"575 556 LINE",
"575 714 LINE",
"28 714 LINE",
"28 556 LINE",
"137 556 LINE",
"75 509 OFFCURVE",
"39 424 OFFCURVE",
"39 321 CURVE SMOOTH",
"39 118 OFFCURVE",
"135 -10 OFFCURVE",
"309 -10 CURVE SMOOTH"
);
}
);
width = 620;
},
{
layerId = "9503992B-9F6A-43B6-8DBC-EB382B06F8D4";
name = Regular;
paths = (
{
closed = 1;
nodes = (
"601 -10 OFFCURVE",
"720 129 OFFCURVE",
"720 358 CURVE",
"626 358 LINE",
"626 167 OFFCURVE",
"547 68 OFFCURVE",
"397 68 CURVE SMOOTH",
"245 68 OFFCURVE",
"156 167 OFFCURVE",
"156 339 CURVE SMOOTH",
"156 517 OFFCURVE",
"266 636 OFFCURVE",
"454 636 CURVE SMOOTH",
"695 636 LINE",
"695 714 LINE",
"61 714 LINE",
"61 636 LINE",
"244 636 LINE",
"134 588 OFFCURVE",
"61 480 OFFCURVE",
"61 338 CURVE SMOOTH",
"61 122 OFFCURVE",
"186 -10 OFFCURVE",
"396 -10 CURVE SMOOTH"
);
}
);
width = 781;
},
{
layerId = "2D9814BA-45F0-4FCB-8967-A366BFC6AA80";
name = SemiBold;
paths = (
{
closed = 1;
nodes = (
"617 -10 OFFCURVE",
"738 122 OFFCURVE",
"738 358 CURVE",
"579 358 LINE",
"579 197 OFFCURVE",
"519 117 OFFCURVE",
"398 117 CURVE SMOOTH",
"281 117 OFFCURVE",
"217 196 OFFCURVE",
"217 340 CURVE SMOOTH",
"217 501 OFFCURVE",
"301 588 OFFCURVE",
"454 588 CURVE SMOOTH",
"718 588 LINE",
"718 714 LINE",
"52 714 LINE",
"52 588 LINE",
"173 588 LINE",
"96 525 OFFCURVE",
"58 442 OFFCURVE",
"58 337 CURVE SMOOTH",
"58 117 OFFCURVE",
"184 -10 OFFCURVE",
"398 -10 CURVE SMOOTH"
);
}
);
width = 796;
}
);
note = uni10A0;
unicode = 10A0;
},
{
color = 5;
glyphname = uni10A1;
lastChange = "2015-09-22 12:09:46 +0000";
layers = (
{
layerId = "F1E1AA8A-A3F5-4941-B4E6-C7B9A7EBF3CF";
name = Light;
paths = (
{
closed = 1;
nodes = (
"527 0 LINE",
"527 714 LINE",
"501 714 LINE",
"501 486 LINE SMOOTH",
"501 309 OFFCURVE",
"406 244 OFFCURVE",
"291 244 CURVE SMOOTH",
"168 244 OFFCURVE",
"96 333 OFFCURVE",
"96 457 CURVE SMOOTH",
"96 572 OFFCURVE",
"126 646 OFFCURVE",
"175 714 CURVE",
"143 714 LINE",
"93 635 OFFCURVE",
"69 566 OFFCURVE",
"69 457 CURVE SMOOTH",
"69 309 OFFCURVE",
"160 218 OFFCURVE",
"291 218 CURVE SMOOTH",
"389 218 OFFCURVE",
"469 266 OFFCURVE",
"501 353 CURVE",
"503 353 LINE",
"502 329 OFFCURVE",
"501 274 OFFCURVE",
"501 233 CURVE SMOOTH",
"501 0 LINE"
);
}
);
width = 630;
},
{
layerId = "29BFE51A-F5BD-45F8-BEBC-9AD34273B132";
name = Bold;
paths = (
{
closed = 1;
nodes = (
"678 0 LINE",
"678 714 LINE",
"484 714 LINE",
"484 528 LINE SMOOTH",
"484 415 OFFCURVE",
"436 360 OFFCURVE",
"359 360 CURVE SMOOTH",
"290 360 OFFCURVE",
"245 396 OFFCURVE",
"245 473 CURVE SMOOTH",
"245 555 OFFCURVE",
"269 640 OFFCURVE",
"312 714 CURVE",
"109 714 LINE",
"71 640 OFFCURVE",
"51 556 OFFCURVE",
"51 461 CURVE SMOOTH",
"51 300 OFFCURVE",
"150 203 OFFCURVE",
"300 203 CURVE SMOOTH",
"386 203 OFFCURVE",
"450 238 OFFCURVE",
"488 290 CURVE",
"493 290 LINE",
"486 231 OFFCURVE",
"484 179 OFFCURVE",
"484 133 CURVE SMOOTH",
"484 0 LINE"
);
}
);
width = 755;
},
{
layerId = "0228171D-2638-482B-876E-783119597845";
name = "Light Condensed";
paths = (
{
closed = 1;
nodes = (
"363 0 LINE",
"363 714 LINE",
"337 714 LINE",
"337 484 LINE SMOOTH",
"337 300 OFFCURVE",
"279 243 OFFCURVE",
"201 243 CURVE SMOOTH",
"118 243 OFFCURVE",
"81 327 OFFCURVE",
"81 450 CURVE SMOOTH",
"81 566 OFFCURVE",
"102 644 OFFCURVE",
"134 714 CURVE",
"105 714 LINE",
"71 635 OFFCURVE",
"54 560 OFFCURVE",
"54 450 CURVE SMOOTH",
"54 304 OFFCURVE",
"107 218 OFFCURVE",
"201 218 CURVE SMOOTH",
"266 218 OFFCURVE",
"315 255 OFFCURVE",
"337 333 CURVE",
"339 333 LINE",
"338 311 OFFCURVE",
"337 263 OFFCURVE",
"337 218 CURVE SMOOTH",
"337 0 LINE"
);
}
);
width = 441;
},
{
layerId = "5ABCF6AD-94E3-4DCD-A28A-F55CA80EA6B2";
name = Condensed;
paths = (
{
closed = 1;
nodes = (
"437 0 LINE",
"437 714 LINE",
"354 714 LINE",
"354 501 LINE SMOOTH",
"354 341 OFFCURVE",
"306 283 OFFCURVE",
"237 283 CURVE SMOOTH",
"167 283 OFFCURVE",
"133 350 OFFCURVE",
"133 461 CURVE SMOOTH",
"133 566 OFFCURVE",
"152 644 OFFCURVE",
"182 714 CURVE",
"96 714 LINE",
"65 638 OFFCURVE",
"48 561 OFFCURVE",
"48 460 CURVE SMOOTH",
"48 306 OFFCURVE",
"111 214 OFFCURVE",
"214 214 CURVE SMOOTH",
"283 214 OFFCURVE",
"329 250 OFFCURVE",
"355 322 CURVE",
"359 322 LINE",
"356 288 OFFCURVE",
"354 241 OFFCURVE",
"354 198 CURVE SMOOTH",
"354 0 LINE"
);
}
);
width = 507;
},
{
layerId = "E419AE99-0260-44D0-87A9-BD030FD7659A";
name = "SemiBold Condensed";
paths = (
{
closed = 1;
nodes = (
"507 0 LINE",
"507 714 LINE",
"372 714 LINE",
"372 517 LINE SMOOTH",
"372 380 OFFCURVE",
"332 321 OFFCURVE",
"272 321 CURVE SMOOTH",
"214 321 OFFCURVE",
"183 372 OFFCURVE",
"183 471 CURVE SMOOTH",
"183 567 OFFCURVE",
"200 643 OFFCURVE",
"229 714 CURVE",
"89 714 LINE",
"61 641 OFFCURVE",
"43 562 OFFCURVE",
"43 469 CURVE SMOOTH",
"43 308 OFFCURVE",
"115 211 OFFCURVE",
"227 211 CURVE SMOOTH",
"299 211 OFFCURVE",
"344 246 OFFCURVE",
"373 312 CURVE",
"378 312 LINE",
"374 265 OFFCURVE",
"372 220 OFFCURVE",
"372 179 CURVE SMOOTH",
"372 0 LINE"
);
}
);
width = 571;
},
{
layerId = "C7A62E0A-0606-4C56-A5B0-C8EA8B1CCAFA";
name = "Bold Condensed";
paths = (
{
closed = 1;
nodes = (
"552 0 LINE",
"552 714 LINE",
"382 714 LINE",
"382 527 LINE SMOOTH",
"382 405 OFFCURVE",
"348 345 OFFCURVE",
"294 345 CURVE SMOOTH",
"243 345 OFFCURVE",
"214 386 OFFCURVE",
"214 477 CURVE SMOOTH",
"214 567 OFFCURVE",
"230 643 OFFCURVE",
"258 714 CURVE",
"83 714 LINE",
"57 643 OFFCURVE",
"39 563 OFFCURVE",
"39 475 CURVE SMOOTH",
"39 309 OFFCURVE",
"117 209 OFFCURVE",
"235 209 CURVE SMOOTH",
"309 209 OFFCURVE",
"352 243 OFFCURVE",
"384 305 CURVE",
"390 305 LINE",
"385 251 OFFCURVE",
"382 206 OFFCURVE",
"382 167 CURVE SMOOTH",
"382 0 LINE"
);
}
);
width = 611;
},
{
layerId = "9503992B-9F6A-43B6-8DBC-EB382B06F8D4";
name = Regular;
paths = (
{
closed = 1;
nodes = (
"582 0 LINE",
"582 714 LINE",
"492 714 LINE",
"492 507 LINE SMOOTH",
"492 356 OFFCURVE",
"432 293 OFFCURVE",
"301 293 CURVE SMOOTH",
"199 293 OFFCURVE",
"152 358 OFFCURVE",
"152 469 CURVE SMOOTH",
"152 561 OFFCURVE",
"188 659 OFFCURVE",
"236 714 CURVE",
"131 714 LINE",
"82 635 OFFCURVE",
"57 554 OFFCURVE",
"57 470 CURVE SMOOTH",
"57 308 OFFCURVE",
"141 215 OFFCURVE",
"287 215 CURVE SMOOTH",
"372 215 OFFCURVE",
"452 253 OFFCURVE",
"491 312 CURVE",
"496 312 LINE",
"493 274 OFFCURVE",
"491 250 OFFCURVE",
"491 242 CURVE SMOOTH",
"491 0 LINE"
);
}
);
width = 680;
},
{
layerId = "2D9814BA-45F0-4FCB-8967-A366BFC6AA80";
name = SemiBold;
paths = (
{
closed = 1;
nodes = (
"645 0 LINE",
"645 714 LINE",
"494 714 LINE",
"494 527 LINE SMOOTH",
"494 401 OFFCURVE",
"444 338 OFFCURVE",
"343 338 CURVE SMOOTH",
"251 338 OFFCURVE",
"210 382 OFFCURVE",
"210 489 CURVE SMOOTH",
"210 574 OFFCURVE",
"236 659 OFFCURVE",
"277 714 CURVE",
"121 714 LINE",
"83 660 OFFCURVE",
"54 564 OFFCURVE",
"54 482 CURVE SMOOTH",
"54 313 OFFCURVE",
"146 212 OFFCURVE",
"299 212 CURVE SMOOTH",
"386 212 OFFCURVE",
"451 245 OFFCURVE",
"493 311 CURVE",
"501 311 LINE",
"497 260 OFFCURVE",
"494 217 OFFCURVE",
"494 182 CURVE SMOOTH",
"494 0 LINE"
);
}
);
width = 735;
}
);
note = uni10A1;
unicode = 10A1;
},
{
color = 5;
glyphname = uni10A2;
lastChange = "2015-09-22 12:09:46 +0000";
layers = (
{
layerId = "F1E1AA8A-A3F5-4941-B4E6-C7B9A7EBF3CF";
name = Light;
paths = (
{
closed = 1;
nodes = (
"652 -115 LINE",
"652 25 LINE",
"500 25 LINE",
"500 464 LINE SMOOTH",
"500 628 OFFCURVE",
"429 724 OFFCURVE",
"281 724 CURVE SMOOTH",
"125 724 OFFCURVE",
"50 625 OFFCURVE",
"50 466 CURVE SMOOTH",
"50 457 LINE",
"76 457 LINE",
"76 466 LINE SMOOTH",
"76 623 OFFCURVE",
"155 698 OFFCURVE",
"281 698 CURVE SMOOTH",
"403 698 OFFCURVE",
"474 616 OFFCURVE",
"474 464 CURVE SMOOTH",
"474 0 LINE",
"626 0 LINE",
"626 -115 LINE"
);
}
);
width = 682;
},
{
layerId = "29BFE51A-F5BD-45F8-BEBC-9AD34273B132";
name = Bold;
paths = (
{
closed = 1;
nodes = (
"823 -133 LINE",
"823 157 LINE",
"623 157 LINE",
"623 434 LINE SMOOTH",
"623 620 OFFCURVE",
"522 724 OFFCURVE",
"326 724 CURVE SMOOTH",
"130 724 OFFCURVE",
"25 618 OFFCURVE",
"25 448 CURVE SMOOTH",
"25 429 LINE",
"216 429 LINE",
"216 436 LINE SMOOTH",
"216 520 OFFCURVE",
"250 563 OFFCURVE",
"321 563 CURVE SMOOTH",
"392 563 OFFCURVE",
"429 520 OFFCURVE",
"429 421 CURVE SMOOTH",
"429 0 LINE",
"645 0 LINE",
"645 -133 LINE"
);
}
);
width = 848;
},
{
layerId = "0228171D-2638-482B-876E-783119597845";
name = "Light Condensed";
paths = (
{
closed = 1;
nodes = (
"456 -115 LINE",
"456 25 LINE",
"352 25 LINE",
"352 464 LINE SMOOTH",
"352 628 OFFCURVE",
"313 724 OFFCURVE",
"205 724 CURVE SMOOTH",
"96 724 OFFCURVE",
"50 627 OFFCURVE",
"50 467 CURVE SMOOTH",
"50 457 LINE",
"76 457 LINE",
"76 466 LINE SMOOTH",
"76 627 OFFCURVE",
"120 699 OFFCURVE",
"205 699 CURVE SMOOTH",
"287 699 OFFCURVE",
"326 628 OFFCURVE",
"326 464 CURVE SMOOTH",
"326 0 LINE",
"430 0 LINE",
"430 -115 LINE"
);
}
);
width = 486;
},
{
layerId = "5ABCF6AD-94E3-4DCD-A28A-F55CA80EA6B2";
name = Condensed;
paths = (
{
closed = 1;
nodes = (
"543 -122 LINE",
"543 73 LINE",
"411 73 LINE",
"411 460 LINE SMOOTH",
"411 631 OFFCURVE",
"355 724 OFFCURVE",
"228 724 CURVE SMOOTH",
"103 724 OFFCURVE",
"38 630 OFFCURVE",
"38 462 CURVE SMOOTH",
"38 446 LINE",
"120 446 LINE",
"120 456 LINE SMOOTH",
"120 588 OFFCURVE",
"155 651 OFFCURVE",
"227 651 CURVE SMOOTH",
"298 651 OFFCURVE",
"329 589 OFFCURVE",
"329 455 CURVE SMOOTH",
"329 0 LINE",
"469 0 LINE",
"469 -122 LINE"
);
}
);
width = 569;
},
{
layerId = "E419AE99-0260-44D0-87A9-BD030FD7659A";
name = "SemiBold Condensed";
paths = (
{
closed = 1;
nodes = (
"626 -129 LINE",
"626 120 LINE",
"468 120 LINE",
"468 456 LINE SMOOTH",
"468 633 OFFCURVE",
"395 724 OFFCURVE",
"250 724 CURVE SMOOTH",
"110 724 OFFCURVE",
"27 633 OFFCURVE",
"27 457 CURVE SMOOTH",
"27 436 LINE",
"163 436 LINE",
"163 447 LINE SMOOTH",
"163 551 OFFCURVE",
"189 604 OFFCURVE",
"248 604 CURVE SMOOTH",
"308 604 OFFCURVE",
"332 553 OFFCURVE",
"332 446 CURVE SMOOTH",
"332 0 LINE",
"506 0 LINE",
"506 -129 LINE"
);
}
);
width = 648;
},
{
layerId = "C7A62E0A-0606-4C56-A5B0-C8EA8B1CCAFA";
name = "Bold Condensed";
paths = (
{
closed = 1;
nodes = (
"679 -133 LINE",
"679 149 LINE",
"504 149 LINE",
"504 454 LINE SMOOTH",
"504 635 OFFCURVE",
"421 724 OFFCURVE",
"264 724 CURVE SMOOTH",
"115 724 OFFCURVE",
"20 635 OFFCURVE",
"20 454 CURVE SMOOTH",
"20 429 LINE",
"190 429 LINE",
"190 441 LINE SMOOTH",
"190 527 OFFCURVE",
"211 575 OFFCURVE",
"262 575 CURVE SMOOTH",
"315 575 OFFCURVE",
"334 529 OFFCURVE",
"334 441 CURVE SMOOTH",
"334 0 LINE",
"530 0 LINE",
"530 -133 LINE"
);
}
);
width = 699;
},
{
layerId = "9503992B-9F6A-43B6-8DBC-EB382B06F8D4";
name = Regular;
paths = (
{
closed = 1;
nodes = (
"735 -115 LINE",
"735 78 LINE",
"548 78 LINE",
"548 462 LINE SMOOTH",
"548 630 OFFCURVE",
"460 724 OFFCURVE",
"297 724 CURVE SMOOTH",
"133 724 OFFCURVE",
"40 627 OFFCURVE",
"40 460 CURVE SMOOTH",
"40 450 LINE",
"130 450 LINE",
"130 463 LINE SMOOTH",
"130 583 OFFCURVE",
"188 646 OFFCURVE",
"296 646 CURVE SMOOTH",
"402 646 OFFCURVE",
"458 585 OFFCURVE",
"458 462 CURVE SMOOTH",
"458 0 LINE",
"649 0 LINE",
"649 -115 LINE"
);
}
);
width = 765;
},
{
layerId = "2D9814BA-45F0-4FCB-8967-A366BFC6AA80";
name = SemiBold;
paths = (
{
closed = 1;
nodes = (
"803 -115 LINE",
"803 124 LINE",
"587 124 LINE",
"587 460 LINE SMOOTH",
"587 626 OFFCURVE",
"484 724 OFFCURVE",
"309 724 CURVE SMOOTH",
"137 724 OFFCURVE",
"25 629 OFFCURVE",
"25 462 CURVE SMOOTH",
"25 440 LINE",
"176 440 LINE",
"176 449 LINE SMOOTH",
"176 547 OFFCURVE",
"214 597 OFFCURVE",
"305 597 CURVE SMOOTH",
"396 597 OFFCURVE",
"436 550 OFFCURVE",
"436 449 CURVE SMOOTH",
"436 0 LINE",
"665 0 LINE",
"665 -115 LINE"
);
}
);
width = 828;
}
);
note = uni10A2;
unicode = 10A2;
},
{
color = 5;
glyphname = uni10A3;
lastChange = "2015-09-22 12:09:46 +0000";
layers = (
{
layerId = "F1E1AA8A-A3F5-4941-B4E6-C7B9A7EBF3CF";
name = Light;
paths = (
{
closed = 1;
nodes = (
"566 -10 OFFCURVE",
"685 105 OFFCURVE",
"685 283 CURVE SMOOTH",
"685 452 OFFCURVE",
"564 569 OFFCURVE",
"390 573 CURVE",
"390 689 LINE",
"638 689 LINE",
"638 714 LINE",
"111 714 LINE",
"111 689 LINE",
"363 689 LINE",
"363 573 LINE",
"194 566 OFFCURVE",
"64 452 OFFCURVE",
"64 282 CURVE SMOOTH",
"64 112 OFFCURVE",
"176 -10 OFFCURVE",
"371 -10 CURVE SMOOTH"
);
},
{
closed = 1;
nodes = (
"204 16 OFFCURVE",
"91 114 OFFCURVE",
"91 282 CURVE SMOOTH",
"91 446 OFFCURVE",
"216 549 OFFCURVE",
"378 549 CURVE SMOOTH",
"540 549 OFFCURVE",
"658 446 OFFCURVE",
"658 282 CURVE SMOOTH",
"658 115 OFFCURVE",
"543 16 OFFCURVE",
"371 16 CURVE SMOOTH"
);
}
);
width = 749;
},
{
layerId = "29BFE51A-F5BD-45F8-BEBC-9AD34273B132";
name = Bold;
paths = (
{
closed = 1;
nodes = (
"620 -10 OFFCURVE",
"727 97 OFFCURVE",
"727 261 CURVE SMOOTH",
"727 402 OFFCURVE",
"652 500 OFFCURVE",
"486 525 CURVE",
"486 559 LINE",
"710 559 LINE",
"710 714 LINE",
"68 714 LINE",
"68 559 LINE",
"293 559 LINE",
"293 524 LINE",
"132 499 OFFCURVE",
"51 402 OFFCURVE",
"51 262 CURVE SMOOTH",
"51 96 OFFCURVE",
"159 -10 OFFCURVE",
"389 -10 CURVE SMOOTH"
);
},
{
closed = 1;
nodes = (
"296 147 OFFCURVE",
"254 192 OFFCURVE",
"254 262 CURVE SMOOTH",
"254 332 OFFCURVE",
"295 378 OFFCURVE",
"390 378 CURVE SMOOTH",
"485 378 OFFCURVE",
"524 332 OFFCURVE",
"524 262 CURVE SMOOTH",
"524 192 OFFCURVE",
"485 147 OFFCURVE",
"389 147 CURVE SMOOTH"
);
}
);
width = 779;
},
{
layerId = "0228171D-2638-482B-876E-783119597845";
name = "Light Condensed";
paths = (
{
closed = 1;
nodes = (
"391 -10 OFFCURVE",
"463 106 OFFCURVE",
"463 283 CURVE SMOOTH",
"463 455 OFFCURVE",
"386 568 OFFCURVE",
"272 573 CURVE",
"272 689 LINE",
"434 689 LINE",
"434 714 LINE",
"83 714 LINE",
"83 689 LINE",
"246 689 LINE",
"246 573 LINE",
"135 568 OFFCURVE",
"54 455 OFFCURVE",
"54 282 CURVE SMOOTH",
"54 106 OFFCURVE",
"122 -10 OFFCURVE",
"257 -10 CURVE SMOOTH"
);
},
{
closed = 1;
nodes = (
"145 15 OFFCURVE",
"81 110 OFFCURVE",
"81 282 CURVE SMOOTH",
"81 449 OFFCURVE",
"157 550 OFFCURVE",
"260 550 CURVE SMOOTH",
"364 550 OFFCURVE",
"436 449 OFFCURVE",
"436 283 CURVE SMOOTH",
"436 111 OFFCURVE",
"369 15 OFFCURVE",
"257 15 CURVE SMOOTH"
);
}
);
width = 517;
},
{
layerId = "5ABCF6AD-94E3-4DCD-A28A-F55CA80EA6B2";
name = Condensed;
paths = (
{
closed = 1;
nodes = (
"426 -10 OFFCURVE",
"506 107 OFFCURVE",
"506 276 CURVE SMOOTH",
"506 435 OFFCURVE",
"431 541 OFFCURVE",
"317 554 CURVE",
"317 638 LINE",
"485 638 LINE",
"485 714 LINE",
"69 714 LINE",
"69 638 LINE",
"238 638 LINE",
"238 554 LINE",
"125 541 OFFCURVE",
"48 435 OFFCURVE",
"48 276 CURVE SMOOTH",
"48 107 OFFCURVE",
"125 -10 OFFCURVE",
"276 -10 CURVE SMOOTH"
);
},
{
closed = 1;
nodes = (
"185 63 OFFCURVE",
"134 139 OFFCURVE",
"134 275 CURVE SMOOTH",
"134 410 OFFCURVE",
"193 486 OFFCURVE",
"279 486 CURVE SMOOTH",
"365 486 OFFCURVE",
"421 410 OFFCURVE",
"421 276 CURVE SMOOTH",
"421 139 OFFCURVE",
"369 63 OFFCURVE",
"277 63 CURVE SMOOTH"
);
}
);
width = 554;
},
{
layerId = "E419AE99-0260-44D0-87A9-BD030FD7659A";
name = "SemiBold Condensed";
paths = (
{
closed = 1;
nodes = (
"461 -10 OFFCURVE",
"547 108 OFFCURVE",
"547 270 CURVE SMOOTH",
"547 416 OFFCURVE",
"475 515 OFFCURVE",
"360 536 CURVE",
"360 590 LINE",
"534 590 LINE",
"534 714 LINE",
"56 714 LINE",
"56 590 LINE",
"230 590 LINE",
"230 536 LINE",
"116 515 OFFCURVE",
"43 416 OFFCURVE",
"43 271 CURVE SMOOTH",
"43 108 OFFCURVE",
"128 -10 OFFCURVE",
"296 -10 CURVE SMOOTH"
);
},
{
closed = 1;
nodes = (
"223 110 OFFCURVE",
"184 166 OFFCURVE",
"184 269 CURVE SMOOTH",
"184 372 OFFCURVE",
"226 425 OFFCURVE",
"296 425 CURVE SMOOTH",
"366 425 OFFCURVE",
"406 372 OFFCURVE",
"406 269 CURVE SMOOTH",
"406 167 OFFCURVE",
"368 110 OFFCURVE",
"295 110 CURVE SMOOTH"
);
}
);
width = 589;
},
{
layerId = "C7A62E0A-0606-4C56-A5B0-C8EA8B1CCAFA";
name = "Bold Condensed";
paths = (
{
closed = 1;
nodes = (
"482 -10 OFFCURVE",
"573 109 OFFCURVE",
"573 266 CURVE SMOOTH",
"573 404 OFFCURVE",
"502 499 OFFCURVE",
"387 525 CURVE",
"387 559 LINE",
"565 559 LINE",
"565 714 LINE",
"47 714 LINE",
"47 559 LINE",
"225 559 LINE",
"225 525 LINE",
"109 498 OFFCURVE",
"39 404 OFFCURVE",
"39 267 CURVE SMOOTH",
"39 108 OFFCURVE",
"129 -10 OFFCURVE",
"307 -10 CURVE SMOOTH"
);
},
{
closed = 1;
nodes = (
"247 139 OFFCURVE",
"216 184 OFFCURVE",
"216 265 CURVE SMOOTH",
"216 348 OFFCURVE",
"248 386 OFFCURVE",
"307 386 CURVE SMOOTH",
"366 386 OFFCURVE",
"396 348 OFFCURVE",
"396 265 CURVE SMOOTH",
"396 184 OFFCURVE",
"367 139 OFFCURVE",
"307 139 CURVE SMOOTH"
);
}
);
width = 612;
},
{
layerId = "9503992B-9F6A-43B6-8DBC-EB382B06F8D4";
name = Regular;
paths = (
{
closed = 1;
nodes = (
"584 -10 OFFCURVE",
"702 99 OFFCURVE",
"702 281 CURVE SMOOTH",
"702 449 OFFCURVE",
"601 558 OFFCURVE",
"427 572 CURVE",
"427 635 LINE",
"669 635 LINE",
"669 714 LINE",
"94 714 LINE",
"94 635 LINE",
"337 635 LINE",
"337 572 LINE",
"166 557 OFFCURVE",
"61 447 OFFCURVE",
"61 281 CURVE SMOOTH",
"61 102 OFFCURVE",
"181 -10 OFFCURVE",
"380 -10 CURVE SMOOTH"
);
},
{
closed = 1;
nodes = (
"236 69 OFFCURVE",
"156 144 OFFCURVE",
"156 282 CURVE SMOOTH",
"156 421 OFFCURVE",
"237 496 OFFCURVE",
"381 496 CURVE SMOOTH",
"526 496 OFFCURVE",
"607 419 OFFCURVE",
"607 282 CURVE SMOOTH",
"607 143 OFFCURVE",
"525 69 OFFCURVE",
"380 69 CURVE SMOOTH"
);
}
);
width = 763;
},
{
layerId = "2D9814BA-45F0-4FCB-8967-A366BFC6AA80";
name = SemiBold;
paths = (
{
closed = 1;
nodes = (
"597 -10 OFFCURVE",
"718 93 OFFCURVE",
"718 268 CURVE SMOOTH",
"718 426 OFFCURVE",
"625 523 OFFCURVE",
"457 542 CURVE",
"457 590 LINE",
"698 590 LINE",
"698 714 LINE",
"78 714 LINE",
"78 590 LINE",
"319 590 LINE",
"319 542 LINE",
"149 522 OFFCURVE",
"58 429 OFFCURVE",
"58 269 CURVE SMOOTH",
"58 92 OFFCURVE",
"179 -10 OFFCURVE",
"388 -10 CURVE SMOOTH"
);
},
{
closed = 1;
nodes = (
"271 114 OFFCURVE",
"214 168 OFFCURVE",
"214 268 CURVE SMOOTH",
"214 371 OFFCURVE",
"274 425 OFFCURVE",
"389 425 CURVE SMOOTH",
"504 425 OFFCURVE",
"562 373 OFFCURVE",
"562 268 CURVE SMOOTH",
"562 165 OFFCURVE",
"504 114 OFFCURVE",
"388 114 CURVE SMOOTH"
);
}
);
width = 776;
}
);
note = uni10A3;
unicode = 10A3;
},
{
color = 5;
glyphname = uni10A4;
lastChange = "2015-09-22 12:09:46 +0000";
layers = (
{
layerId = "F1E1AA8A-A3F5-4941-B4E6-C7B9A7EBF3CF";
name = Light;
paths = (
{
closed = 1;
nodes = (
"501 0 LINE",
"501 464 LINE SMOOTH",
"501 627 OFFCURVE",
"435 724 OFFCURVE",
"281 724 CURVE SMOOTH",
"133 724 OFFCURVE",
"50 624 OFFCURVE",
"50 467 CURVE SMOOTH",
"50 459 LINE",
"76 459 LINE",
"76 467 LINE SMOOTH",
"76 620 OFFCURVE",
"154 698 OFFCURVE",
"281 698 CURVE SMOOTH",
"408 698 OFFCURVE",
"475 622 OFFCURVE",
"475 464 CURVE SMOOTH",
"475 0 LINE"
);
}
);
width = 595;
},
{
layerId = "29BFE51A-F5BD-45F8-BEBC-9AD34273B132";
name = Bold;
paths = (
{
closed = 1;
nodes = (
"623 0 LINE",
"623 434 LINE SMOOTH",
"623 620 OFFCURVE",
"522 724 OFFCURVE",
"326 724 CURVE SMOOTH",
"130 724 OFFCURVE",
"25 618 OFFCURVE",
"25 448 CURVE SMOOTH",
"25 429 LINE",
"216 429 LINE",
"216 436 LINE SMOOTH",
"216 520 OFFCURVE",
"250 563 OFFCURVE",
"321 563 CURVE SMOOTH",
"392 563 OFFCURVE",
"429 520 OFFCURVE",
"429 421 CURVE SMOOTH",
"429 0 LINE"
);
}
);
width = 696;
},
{
layerId = "0228171D-2638-482B-876E-783119597845";
name = "Light Condensed";
paths = (
{
closed = 1;
nodes = (
"352 0 LINE",
"352 464 LINE SMOOTH",
"352 628 OFFCURVE",
"313 724 OFFCURVE",
"205 724 CURVE SMOOTH",
"96 724 OFFCURVE",
"50 627 OFFCURVE",
"50 467 CURVE SMOOTH",
"50 457 LINE",
"76 457 LINE",
"76 466 LINE SMOOTH",
"76 627 OFFCURVE",
"120 699 OFFCURVE",
"205 699 CURVE SMOOTH",
"287 699 OFFCURVE",
"326 628 OFFCURVE",
"326 464 CURVE SMOOTH",
"326 0 LINE"
);
}
);
width = 423;
},
{
layerId = "5ABCF6AD-94E3-4DCD-A28A-F55CA80EA6B2";
name = Condensed;
paths = (
{
closed = 1;
nodes = (
"411 0 LINE",
"411 460 LINE SMOOTH",
"411 631 OFFCURVE",
"355 724 OFFCURVE",
"228 724 CURVE SMOOTH",
"103 724 OFFCURVE",
"38 630 OFFCURVE",
"38 462 CURVE SMOOTH",
"38 446 LINE",
"120 446 LINE",
"120 456 LINE SMOOTH",
"120 588 OFFCURVE",
"155 651 OFFCURVE",
"227 651 CURVE SMOOTH",
"298 651 OFFCURVE",
"329 589 OFFCURVE",
"329 455 CURVE SMOOTH",
"329 0 LINE"
);
}
);
width = 476;
},
{
layerId = "E419AE99-0260-44D0-87A9-BD030FD7659A";
name = "SemiBold Condensed";
paths = (
{
closed = 1;
nodes = (
"468 0 LINE",
"468 456 LINE SMOOTH",
"468 633 OFFCURVE",
"395 724 OFFCURVE",
"250 724 CURVE SMOOTH",
"110 724 OFFCURVE",
"27 633 OFFCURVE",
"27 457 CURVE SMOOTH",
"27 436 LINE",
"163 436 LINE",
"163 447 LINE SMOOTH",
"163 551 OFFCURVE",
"189 604 OFFCURVE",
"248 604 CURVE SMOOTH",
"308 604 OFFCURVE",
"332 553 OFFCURVE",
"332 446 CURVE SMOOTH",
"332 0 LINE"
);
}
);
width = 527;
},
{
layerId = "C7A62E0A-0606-4C56-A5B0-C8EA8B1CCAFA";
name = "Bold Condensed";
paths = (
{
closed = 1;
nodes = (
"504 0 LINE",
"504 454 LINE SMOOTH",
"504 635 OFFCURVE",
"421 724 OFFCURVE",
"264 724 CURVE SMOOTH",
"115 724 OFFCURVE",
"20 635 OFFCURVE",
"20 454 CURVE SMOOTH",
"20 429 LINE",
"190 429 LINE",
"190 441 LINE SMOOTH",
"190 527 OFFCURVE",
"211 575 OFFCURVE",
"262 575 CURVE SMOOTH",
"315 575 OFFCURVE",
"334 529 OFFCURVE",
"334 441 CURVE SMOOTH",
"334 0 LINE"
);
}
);
width = 559;
},
{
layerId = "9503992B-9F6A-43B6-8DBC-EB382B06F8D4";
name = Regular;
paths = (
{
closed = 1;
nodes = (
"548 0 LINE",
"548 462 LINE SMOOTH",
"548 630 OFFCURVE",
"458 724 OFFCURVE",
"297 724 CURVE SMOOTH",
"133 724 OFFCURVE",
"40 627 OFFCURVE",
"40 460 CURVE SMOOTH",
"40 450 LINE",
"130 450 LINE",
"130 463 LINE SMOOTH",
"130 583 OFFCURVE",
"188 646 OFFCURVE",
"296 646 CURVE SMOOTH",
"401 646 OFFCURVE",
"458 585 OFFCURVE",
"458 462 CURVE SMOOTH",
"458 0 LINE"
);
}
);
width = 638;
},
{
layerId = "2D9814BA-45F0-4FCB-8967-A366BFC6AA80";
name = SemiBold;
paths = (
{
closed = 1;
nodes = (
"587 0 LINE",
"587 460 LINE SMOOTH",
"587 626 OFFCURVE",
"484 724 OFFCURVE",
"309 724 CURVE SMOOTH",
"137 724 OFFCURVE",
"25 629 OFFCURVE",
"25 462 CURVE SMOOTH",
"25 440 LINE",
"176 440 LINE",
"176 449 LINE SMOOTH",
"176 547 OFFCURVE",
"214 597 OFFCURVE",
"305 597 CURVE SMOOTH",
"396 597 OFFCURVE",
"436 550 OFFCURVE",
"436 449 CURVE SMOOTH",
"436 0 LINE"
);
}
);
width = 672;
}
);
note = uni10A4;
unicode = 10A4;
},
{
color = 5;
glyphname = uni10A5;
lastChange = "2015-09-22 12:25:27 +0000";
layers = (
{
layerId = "F1E1AA8A-A3F5-4941-B4E6-C7B9A7EBF3CF";
name = Light;
paths = (
{
closed = 1;
nodes = (
"501 0 LINE",
"501 368 LINE",
"628 368 LINE",
"628 224 LINE",
"654 224 LINE",
"654 393 LINE",
"501 393 LINE",
"501 464 LINE SMOOTH",
"501 627 OFFCURVE",
"435 724 OFFCURVE",
"281 724 CURVE SMOOTH",
"133 724 OFFCURVE",
"50 624 OFFCURVE",
"50 467 CURVE SMOOTH",
"50 459 LINE",
"76 459 LINE",
"76 467 LINE SMOOTH",
"76 620 OFFCURVE",
"154 698 OFFCURVE",
"281 698 CURVE SMOOTH",
"408 698 OFFCURVE",
"475 622 OFFCURVE",
"475 464 CURVE SMOOTH",
"475 0 LINE"
);
}
);
width = 684;
},
{
layerId = "29BFE51A-F5BD-45F8-BEBC-9AD34273B132";
name = Bold;
paths = (
{
closed = 1;
nodes = (
"623 0 LINE",
"623 283 LINE",
"684 283 LINE",
"684 184 LINE",
"851 184 LINE",
"851 440 LINE",
"623 440 LINE",
"623 444 LINE SMOOTH",
"623 614 OFFCURVE",
"525 724 OFFCURVE",
"326 724 CURVE SMOOTH",
"130 724 OFFCURVE",
"25 618 OFFCURVE",
"25 448 CURVE SMOOTH",
"25 429 LINE",
"216 429 LINE",
"216 436 LINE SMOOTH",
"216 520 OFFCURVE",
"250 563 OFFCURVE",
"321 563 CURVE SMOOTH",
"392 563 OFFCURVE",
"429 520 OFFCURVE",
"429 421 CURVE SMOOTH",
"429 0 LINE"
);
}
);
width = 876;
},
{
layerId = "0228171D-2638-482B-876E-783119597845";
name = "Light Condensed";
paths = (
{
closed = 1;
nodes = (
"352 0 LINE",
"352 368 LINE",
"448 368 LINE",
"448 224 LINE",
"474 224 LINE",
"474 393 LINE",
"352 393 LINE",
"352 464 LINE SMOOTH",
"352 628 OFFCURVE",
"313 724 OFFCURVE",
"205 724 CURVE SMOOTH",
"96 724 OFFCURVE",
"50 627 OFFCURVE",
"50 467 CURVE SMOOTH",
"50 457 LINE",
"76 457 LINE",
"76 466 LINE SMOOTH",
"76 627 OFFCURVE",
"120 699 OFFCURVE",
"205 699 CURVE SMOOTH",
"287 699 OFFCURVE",
"326 628 OFFCURVE",
"326 464 CURVE SMOOTH",
"326 0 LINE"
);
}
);
width = 504;
},
{
layerId = "5ABCF6AD-94E3-4DCD-A28A-F55CA80EA6B2";
name = Condensed;
paths = (
{
closed = 1;
nodes = (
"411 0 LINE",
"411 342 LINE",
"490 342 LINE",
"490 208 LINE",
"564 208 LINE",
"564 411 LINE",
"411 411 LINE",
"411 460 LINE SMOOTH",
"411 631 OFFCURVE",
"355 724 OFFCURVE",
"228 724 CURVE SMOOTH",
"103 724 OFFCURVE",
"38 630 OFFCURVE",
"38 462 CURVE SMOOTH",
"38 446 LINE",
"120 446 LINE",
"120 456 LINE SMOOTH",
"120 588 OFFCURVE",
"155 651 OFFCURVE",
"227 651 CURVE SMOOTH",
"298 651 OFFCURVE",
"329 589 OFFCURVE",
"329 455 CURVE SMOOTH",
"329 0 LINE"
);
}
);
width = 590;
},
{
layerId = "E419AE99-0260-44D0-87A9-BD030FD7659A";
name = "SemiBold Condensed";
paths = (
{
closed = 1;
nodes = (
"468 0 LINE",
"468 317 LINE",
"530 317 LINE",
"530 194 LINE",
"650 194 LINE",
"650 429 LINE",
"468 429 LINE",
"468 456 LINE SMOOTH",
"468 633 OFFCURVE",
"395 724 OFFCURVE",
"250 724 CURVE SMOOTH",
"110 724 OFFCURVE",
"27 633 OFFCURVE",
"27 457 CURVE SMOOTH",
"27 436 LINE",
"163 436 LINE",
"163 447 LINE SMOOTH",
"163 551 OFFCURVE",
"189 604 OFFCURVE",
"248 604 CURVE SMOOTH",
"308 604 OFFCURVE",
"332 553 OFFCURVE",
"332 446 CURVE SMOOTH",
"332 0 LINE"
);
}
);
width = 672;
},
{
layerId = "C7A62E0A-0606-4C56-A5B0-C8EA8B1CCAFA";
name = "Bold Condensed";
paths = (
{
closed = 1;
nodes = (
"504 0 LINE",
"504 301 LINE",
"556 301 LINE",
"556 184 LINE",
"705 184 LINE",
"705 440 LINE",
"504 440 LINE",
"504 454 LINE SMOOTH",
"504 635 OFFCURVE",
"421 724 OFFCURVE",
"264 724 CURVE SMOOTH",
"115 724 OFFCURVE",
"20 635 OFFCURVE",
"20 454 CURVE SMOOTH",
"20 429 LINE",
"190 429 LINE",
"190 441 LINE SMOOTH",
"190 527 OFFCURVE",
"211 575 OFFCURVE",
"262 575 CURVE SMOOTH",
"315 575 OFFCURVE",
"334 529 OFFCURVE",
"334 441 CURVE SMOOTH",
"334 0 LINE"
);
}
);
width = 725;
},
{
layerId = "9503992B-9F6A-43B6-8DBC-EB382B06F8D4";
name = Regular;
paths = (
{
closed = 1;
nodes = (
"548 0 LINE",
"548 339 LINE",
"649 339 LINE",
"649 224 LINE",
"735 224 LINE",
"735 417 LINE",
"548 417 LINE",
"548 462 LINE SMOOTH",
"548 630 OFFCURVE",
"458 724 OFFCURVE",
"296 724 CURVE SMOOTH",
"134 724 OFFCURVE",
"40 627 OFFCURVE",
"40 460 CURVE SMOOTH",
"40 450 LINE",
"130 450 LINE",
"130 463 LINE SMOOTH",
"130 583 OFFCURVE",
"188 646 OFFCURVE",
"296 646 CURVE SMOOTH",
"404 646 OFFCURVE",
"458 584 OFFCURVE",
"458 462 CURVE SMOOTH",
"458 0 LINE"
);
}
);
width = 765;
},
{
layerId = "2D9814BA-45F0-4FCB-8967-A366BFC6AA80";
name = SemiBold;
paths = (
{
closed = 1;
nodes = (
"587 0 LINE",
"587 316 LINE",
"665 316 LINE",
"665 202 LINE",
"803 202 LINE",
"803 440 LINE",
"587 440 LINE",
"587 460 LINE SMOOTH",
"587 626 OFFCURVE",
"484 724 OFFCURVE",
"309 724 CURVE SMOOTH",
"137 724 OFFCURVE",
"25 629 OFFCURVE",
"25 462 CURVE SMOOTH",
"25 440 LINE",
"176 440 LINE",
"176 449 LINE SMOOTH",
"176 547 OFFCURVE",
"214 597 OFFCURVE",
"305 597 CURVE SMOOTH",
"396 597 OFFCURVE",
"436 550 OFFCURVE",
"436 449 CURVE SMOOTH",
"436 0 LINE"
);
}
);
width = 828;
}
);
note = uni10A5;
unicode = 10A5;
},
{
color = 5;
glyphname = uni10A6;
lastChange = "2015-09-22 12:09:46 +0000";
layers = (
{
layerId = "F1E1AA8A-A3F5-4941-B4E6-C7B9A7EBF3CF";
name = Light;
paths = (
{
closed = 1;
nodes = (
"581 -10 OFFCURVE",
"685 99 OFFCURVE",
"685 264 CURVE SMOOTH",
"685 413 OFFCURVE",
"601 536 OFFCURVE",
"446 536 CURVE SMOOTH",
"333 536 OFFCURVE",
"254 480 OFFCURVE",
"210 384 CURVE",
"206 384 LINE",
"207 406 OFFCURVE",
"209 473 OFFCURVE",
"209 519 CURVE SMOOTH",
"209 714 LINE",
"20 714 LINE",
"20 689 LINE",
"183 689 LINE",
"183 260 LINE SMOOTH",
"183 95 OFFCURVE",
"265 -10 OFFCURVE",
"423 -10 CURVE SMOOTH"
);
},
{
closed = 1;
nodes = (
"280 16 OFFCURVE",
"209 114 OFFCURVE",
"209 260 CURVE SMOOTH",
"209 400 OFFCURVE",
"296 510 OFFCURVE",
"445 510 CURVE SMOOTH",
"574 510 OFFCURVE",
"658 412 OFFCURVE",
"658 264 CURVE SMOOTH",
"658 115 OFFCURVE",
"566 16 OFFCURVE",
"423 16 CURVE SMOOTH"
);
}
);
width = 745;
},
{
layerId = "29BFE51A-F5BD-45F8-BEBC-9AD34273B132";
name = Bold;
paths = (
{
closed = 1;
nodes = (
"611 -10 OFFCURVE",
"712 99 OFFCURVE",
"712 277 CURVE SMOOTH",
"712 456 OFFCURVE",
"621 562 OFFCURVE",
"482 562 CURVE SMOOTH",
"410 562 OFFCURVE",
"361 539 OFFCURVE",
"321 498 CURVE",
"314 498 LINE",
"319 542 OFFCURVE",
"321 576 OFFCURVE",
"321 615 CURVE SMOOTH",
"321 714 LINE",
"25 714 LINE",
"25 560 LINE",
"130 560 LINE",
"130 279 LINE SMOOTH",
"130 96 OFFCURVE",
"219 -10 OFFCURVE",
"414 -10 CURVE SMOOTH"
);
},
{
closed = 1;
nodes = (
"353 147 OFFCURVE",
"321 184 OFFCURVE",
"321 277 CURVE SMOOTH",
"321 369 OFFCURVE",
"355 405 OFFCURVE",
"419 405 CURVE SMOOTH",
"481 405 OFFCURVE",
"513 369 OFFCURVE",
"513 277 CURVE SMOOTH",
"513 184 OFFCURVE",
"475 147 OFFCURVE",
"414 147 CURVE SMOOTH"
);
}
);
width = 760;
},
{
layerId = "0228171D-2638-482B-876E-783119597845";
name = "Light Condensed";
paths = (
{
closed = 1;
nodes = (
"399 -10 OFFCURVE",
"447 99 OFFCURVE",
"447 263 CURVE SMOOTH",
"447 424 OFFCURVE",
"392 535 OFFCURVE",
"284 535 CURVE SMOOTH",
"214 535 OFFCURVE",
"166 485 OFFCURVE",
"140 408 CURVE",
"137 408 LINE",
"139 441 OFFCURVE",
"140 481 OFFCURVE",
"140 518 CURVE SMOOTH",
"140 714 LINE",
"10 714 LINE",
"10 689 LINE",
"114 689 LINE",
"114 247 LINE SMOOTH",
"114 95 OFFCURVE",
"164 -10 OFFCURVE",
"278 -10 CURVE SMOOTH"
);
},
{
closed = 1;
nodes = (
"184 15 OFFCURVE",
"140 105 OFFCURVE",
"140 259 CURVE SMOOTH",
"140 401 OFFCURVE",
"191 510 OFFCURVE",
"284 510 CURVE SMOOTH",
"365 510 OFFCURVE",
"420 424 OFFCURVE",
"420 263 CURVE SMOOTH",
"420 103 OFFCURVE",
"373 15 OFFCURVE",
"278 15 CURVE SMOOTH"
);
}
);
width = 492;
},
{
layerId = "5ABCF6AD-94E3-4DCD-A28A-F55CA80EA6B2";
name = Condensed;
paths = (
{
closed = 1;
nodes = (
"426 -10 OFFCURVE",
"487 99 OFFCURVE",
"487 268 CURVE SMOOTH",
"487 435 OFFCURVE",
"430 544 OFFCURVE",
"319 544 CURVE SMOOTH",
"255 544 OFFCURVE",
"211 503 OFFCURVE",
"185 436 CURVE",
"181 436 LINE",
"184 473 OFFCURVE",
"185 514 OFFCURVE",
"185 552 CURVE SMOOTH",
"185 714 LINE",
"14 714 LINE",
"14 641 LINE",
"103 641 LINE",
"103 258 LINE SMOOTH",
"103 96 OFFCURVE",
"161 -10 OFFCURVE",
"292 -10 CURVE SMOOTH"
);
},
{
closed = 1;
nodes = (
"217 63 OFFCURVE",
"185 134 OFFCURVE",
"185 265 CURVE SMOOTH",
"185 388 OFFCURVE",
"222 471 OFFCURVE",
"295 471 CURVE SMOOTH",
"362 471 OFFCURVE",
"401 402 OFFCURVE",
"401 267 CURVE SMOOTH",
"401 133 OFFCURVE",
"364 63 OFFCURVE",
"292 63 CURVE SMOOTH"
);
}
);
width = 530;
},
{
layerId = "E419AE99-0260-44D0-87A9-BD030FD7659A";
name = "SemiBold Condensed";
paths = (
{
closed = 1;
nodes = (
"451 -10 OFFCURVE",
"526 98 OFFCURVE",
"526 273 CURVE SMOOTH",
"526 445 OFFCURVE",
"467 553 OFFCURVE",
"352 553 CURVE SMOOTH",
"295 553 OFFCURVE",
"255 521 OFFCURVE",
"229 464 CURVE",
"223 464 LINE",
"227 503 OFFCURVE",
"229 546 OFFCURVE",
"229 585 CURVE SMOOTH",
"229 714 LINE",
"18 714 LINE",
"18 596 LINE",
"93 596 LINE",
"93 269 LINE SMOOTH",
"93 97 OFFCURVE",
"158 -10 OFFCURVE",
"306 -10 CURVE SMOOTH"
);
},
{
closed = 1;
nodes = (
"248 110 OFFCURVE",
"228 162 OFFCURVE",
"228 270 CURVE SMOOTH",
"228 376 OFFCURVE",
"252 433 OFFCURVE",
"306 433 CURVE SMOOTH",
"358 433 OFFCURVE",
"384 381 OFFCURVE",
"384 271 CURVE SMOOTH",
"384 162 OFFCURVE",
"356 110 OFFCURVE",
"305 110 CURVE SMOOTH"
);
}
);
width = 566;
},
{
layerId = "C7A62E0A-0606-4C56-A5B0-C8EA8B1CCAFA";
name = "Bold Condensed";
paths = (
{
closed = 1;
nodes = (
"467 -10 OFFCURVE",
"550 98 OFFCURVE",
"550 276 CURVE SMOOTH",
"550 451 OFFCURVE",
"490 558 OFFCURVE",
"373 558 CURVE SMOOTH",
"320 558 OFFCURVE",
"282 532 OFFCURVE",
"256 481 CURVE",
"249 481 LINE",
"254 522 OFFCURVE",
"256 566 OFFCURVE",
"256 606 CURVE SMOOTH",
"256 714 LINE",
"20 714 LINE",
"20 567 LINE",
"86 567 LINE",
"86 276 LINE SMOOTH",
"86 98 OFFCURVE",
"155 -10 OFFCURVE",
"314 -10 CURVE SMOOTH"
);
},
{
closed = 1;
nodes = (
"268 139 OFFCURVE",
"256 180 OFFCURVE",
"256 274 CURVE SMOOTH",
"256 368 OFFCURVE",
"271 409 OFFCURVE",
"314 409 CURVE SMOOTH",
"357 409 OFFCURVE",
"373 367 OFFCURVE",
"373 274 CURVE SMOOTH",
"373 180 OFFCURVE",
"351 139 OFFCURVE",
"314 139 CURVE SMOOTH"
);
}
);
width = 589;
},
{
layerId = "9503992B-9F6A-43B6-8DBC-EB382B06F8D4";
name = Regular;
paths = (
{
closed = 1;
nodes = (
"597 -10 OFFCURVE",
"698 98 OFFCURVE",
"698 269 CURVE SMOOTH",
"698 431 OFFCURVE",
"607 546 OFFCURVE",
"450 546 CURVE SMOOTH",
"364 546 OFFCURVE",
"307 518 OFFCURVE",
"256 444 CURVE",
"250 444 LINE",
"253 474 OFFCURVE",
"255 512 OFFCURVE",
"255 530 CURVE SMOOTH",
"255 714 LINE",
"20 714 LINE",
"20 636 LINE",
"165 636 LINE",
"165 267 LINE SMOOTH",
"165 97 OFFCURVE",
"262 -10 OFFCURVE",
"426 -10 CURVE SMOOTH"
);
},
{
closed = 1;
nodes = (
"318 68 OFFCURVE",
"255 143 OFFCURVE",
"255 267 CURVE SMOOTH",
"255 391 OFFCURVE",
"320 468 OFFCURVE",
"436 468 CURVE SMOOTH",
"543 468 OFFCURVE",
"605 396 OFFCURVE",
"605 269 CURVE SMOOTH",
"605 142 OFFCURVE",
"538 68 OFFCURVE",
"425 68 CURVE SMOOTH"
);
}
);
width = 753;
},
{
layerId = "2D9814BA-45F0-4FCB-8967-A366BFC6AA80";
name = SemiBold;
paths = (
{
closed = 1;
nodes = (
"580 -10 OFFCURVE",
"687 97 OFFCURVE",
"687 274 CURVE SMOOTH",
"687 448 OFFCURVE",
"596 556 OFFCURVE",
"449 556 CURVE SMOOTH",
"371 556 OFFCURVE",
"323 534 OFFCURVE",
"277 473 CURVE",
"269 473 LINE",
"274 513 OFFCURVE",
"276 561 OFFCURVE",
"276 602 CURVE SMOOTH",
"276 714 LINE",
"20 714 LINE",
"20 590 LINE",
"125 590 LINE",
"125 274 LINE SMOOTH",
"125 99 OFFCURVE",
"234 -10 OFFCURVE",
"402 -10 CURVE SMOOTH"
);
},
{
closed = 1;
nodes = (
"314 116 OFFCURVE",
"276 166 OFFCURVE",
"276 266 CURVE SMOOTH",
"276 382 OFFCURVE",
"313 430 OFFCURVE",
"405 430 CURVE SMOOTH",
"490 430 OFFCURVE",
"531 381 OFFCURVE",
"531 274 CURVE SMOOTH",
"531 168 OFFCURVE",
"486 116 OFFCURVE",
"404 116 CURVE SMOOTH"
);
}
);
width = 741;
}
);
note = uni10A6;
unicode = 10A6;
},
{
color = 5;
glyphname = uni10A7;
lastChange = "2015-09-22 12:26:02 +0000";
layers = (
{
layerId = "F1E1AA8A-A3F5-4941-B4E6-C7B9A7EBF3CF";
name = Light;
paths = (
{
closed = 1;
nodes = (
"589 0 LINE",
"589 368 LINE",
"716 368 LINE",
"716 224 LINE",
"742 224 LINE",
"742 393 LINE",
"589 393 LINE",
"589 714 LINE",
"447 714 LINE SMOOTH",
"197 714 OFFCURVE",
"64 591 OFFCURVE",
"64 352 CURVE SMOOTH",
"64 125 OFFCURVE",
"188 0 OFFCURVE",
"424 0 CURVE SMOOTH"
);
},
{
closed = 1;
nodes = (
"202 25 OFFCURVE",
"91 141 OFFCURVE",
"91 353 CURVE SMOOTH",
"91 580 OFFCURVE",
"215 689 OFFCURVE",
"444 689 CURVE SMOOTH",
"563 689 LINE",
"563 25 LINE",
"434 25 LINE SMOOTH"
);
}
);
width = 772;
},
{
layerId = "29BFE51A-F5BD-45F8-BEBC-9AD34273B132";
name = Bold;
paths = (
{
closed = 1;
nodes = (
"657 0 LINE",
"657 283 LINE",
"718 283 LINE",
"718 184 LINE",
"885 184 LINE",
"885 440 LINE",
"657 440 LINE",
"657 714 LINE",
"426 714 LINE SMOOTH",
"199 714 OFFCURVE",
"51 591 OFFCURVE",
"51 342 CURVE SMOOTH",
"51 121 OFFCURVE",
"180 0 OFFCURVE",
"410 0 CURVE SMOOTH"
);
},
{
closed = 1;
nodes = (
"303 156 OFFCURVE",
"251 219 OFFCURVE",
"251 349 CURVE SMOOTH",
"251 489 OFFCURVE",
"304 556 OFFCURVE",
"421 556 CURVE SMOOTH",
"464 556 LINE",
"464 156 LINE",
"408 156 LINE SMOOTH"
);
}
);
width = 910;
},
{
layerId = "0228171D-2638-482B-876E-783119597845";
name = "Light Condensed";
paths = (
{
closed = 1;
nodes = (
"404 0 LINE",
"404 368 LINE",
"500 368 LINE",
"500 224 LINE",
"526 224 LINE",
"526 393 LINE",
"404 393 LINE",
"404 714 LINE",
"303 714 LINE SMOOTH",
"151 714 OFFCURVE",
"54 596 OFFCURVE",
"54 352 CURVE SMOOTH",
"54 124 OFFCURVE",
"151 0 OFFCURVE",
"303 0 CURVE SMOOTH"
);
},
{
closed = 1;
nodes = (
"159 25 OFFCURVE",
"81 148 OFFCURVE",
"81 352 CURVE SMOOTH",
"81 573 OFFCURVE",
"159 689 OFFCURVE",
"303 689 CURVE SMOOTH",
"378 689 LINE",
"378 25 LINE",
"303 25 LINE SMOOTH"
);
}
);
width = 556;
},
{
layerId = "5ABCF6AD-94E3-4DCD-A28A-F55CA80EA6B2";
name = Condensed;
paths = (
{
closed = 1;
nodes = (
"452 0 LINE",
"452 342 LINE",
"531 342 LINE",
"531 208 LINE",
"605 208 LINE",
"605 411 LINE",
"452 411 LINE",
"452 714 LINE",
"319 714 LINE SMOOTH",
"150 714 OFFCURVE",
"48 589 OFFCURVE",
"48 352 CURVE SMOOTH",
"48 123 OFFCURVE",
"149 0 OFFCURVE",
"314 0 CURVE SMOOTH"
);
},
{
closed = 1;
nodes = (
"196 73 OFFCURVE",
"133 170 OFFCURVE",
"133 355 CURVE SMOOTH",
"133 544 OFFCURVE",
"196 641 OFFCURVE",
"319 641 CURVE SMOOTH",
"370 641 LINE",
"370 73 LINE",
"315 73 LINE SMOOTH"
);
}
);
width = 631;
},
{
layerId = "E419AE99-0260-44D0-87A9-BD030FD7659A";
name = "SemiBold Condensed";
paths = (
{
closed = 1;
nodes = (
"499 0 LINE",
"499 317 LINE",
"561 317 LINE",
"561 194 LINE",
"681 194 LINE",
"681 429 LINE",
"499 429 LINE",
"499 714 LINE",
"335 714 LINE SMOOTH",
"151 714 OFFCURVE",
"43 583 OFFCURVE",
"43 352 CURVE SMOOTH",
"43 122 OFFCURVE",
"147 0 OFFCURVE",
"326 0 CURVE SMOOTH"
);
},
{
closed = 1;
nodes = (
"232 118 OFFCURVE",
"183 191 OFFCURVE",
"183 357 CURVE SMOOTH",
"183 516 OFFCURVE",
"232 595 OFFCURVE",
"335 595 CURVE SMOOTH",
"363 595 LINE",
"363 118 LINE",
"327 118 LINE SMOOTH"
);
}
);
width = 703;
},
{
layerId = "C7A62E0A-0606-4C56-A5B0-C8EA8B1CCAFA";
name = "Bold Condensed";
paths = (
{
closed = 1;
nodes = (
"528 0 LINE",
"528 301 LINE",
"580 301 LINE",
"580 184 LINE",
"729 184 LINE",
"729 440 LINE",
"528 440 LINE",
"528 714 LINE",
"344 714 LINE SMOOTH",
"150 714 OFFCURVE",
"39 579 OFFCURVE",
"39 352 CURVE SMOOTH",
"39 121 OFFCURVE",
"145 0 OFFCURVE",
"332 0 CURVE SMOOTH"
);
},
{
closed = 1;
nodes = (
"255 147 OFFCURVE",
"215 204 OFFCURVE",
"215 359 CURVE SMOOTH",
"215 498 OFFCURVE",
"255 566 OFFCURVE",
"345 566 CURVE SMOOTH",
"358 566 LINE",
"358 147 LINE",
"335 147 LINE SMOOTH"
);
}
);
width = 749;
},
{
layerId = "9503992B-9F6A-43B6-8DBC-EB382B06F8D4";
name = Regular;
paths = (
{
closed = 1;
nodes = (
"633 0 LINE",
"633 339 LINE",
"734 339 LINE",
"734 224 LINE",
"820 224 LINE",
"820 417 LINE",
"633 417 LINE",
"633 714 LINE",
"434 714 LINE SMOOTH",
"194 714 OFFCURVE",
"61 586 OFFCURVE",
"61 350 CURVE SMOOTH",
"61 130 OFFCURVE",
"189 0 OFFCURVE",
"413 0 CURVE SMOOTH"
);
},
{
closed = 1;
nodes = (
"247 77 OFFCURVE",
"156 171 OFFCURVE",
"156 353 CURVE SMOOTH",
"156 541 OFFCURVE",
"253 637 OFFCURVE",
"446 637 CURVE SMOOTH",
"543 637 LINE",
"543 77 LINE",
"426 77 LINE SMOOTH"
);
}
);
width = 850;
},
{
layerId = "2D9814BA-45F0-4FCB-8967-A366BFC6AA80";
name = SemiBold;
paths = (
{
closed = 1;
nodes = (
"650 0 LINE",
"650 316 LINE",
"728 316 LINE",
"728 202 LINE",
"866 202 LINE",
"866 440 LINE",
"650 440 LINE",
"650 714 LINE",
"426 714 LINE SMOOTH",
"195 714 OFFCURVE",
"58 586 OFFCURVE",
"58 364 CURVE SMOOTH",
"58 129 OFFCURVE",
"196 0 OFFCURVE",
"448 0 CURVE SMOOTH"
);
},
{
closed = 1;
nodes = (
"288 125 OFFCURVE",
"215 203 OFFCURVE",
"215 360 CURVE SMOOTH",
"215 513 OFFCURVE",
"283 590 OFFCURVE",
"418 590 CURVE SMOOTH",
"499 590 LINE",
"499 125 LINE",
"434 125 LINE SMOOTH"
);
}
);
width = 891;
}
);
note = uni10A7;
unicode = 10A7;
},
{
color = 5;
glyphname = uni10A8;
lastChange = "2015-09-22 12:09:46 +0000";
layers = (
{
layerId = "F1E1AA8A-A3F5-4941-B4E6-C7B9A7EBF3CF";
name = Light;
paths = (
{
closed = 1;
nodes = (
"336 0 LINE",
"336 714 LINE",
"10 714 LINE",
"10 689 LINE",
"310 689 LINE",
"310 0 LINE"
);
}
);
width = 439;
},
{
layerId = "29BFE51A-F5BD-45F8-BEBC-9AD34273B132";
name = Bold;
paths = (
{
closed = 1;
nodes = (
"496 0 LINE",
"496 714 LINE",
"20 714 LINE",
"20 558 LINE",
"302 558 LINE",
"302 0 LINE"
);
}
);
width = 573;
},
{
layerId = "0228171D-2638-482B-876E-783119597845";
name = "Light Condensed";
paths = (
{
closed = 1;
nodes = (
"236 0 LINE",
"236 714 LINE",
"10 714 LINE",
"10 689 LINE",
"210 689 LINE",
"210 0 LINE"
);
}
);
width = 314;
},
{
layerId = "5ABCF6AD-94E3-4DCD-A28A-F55CA80EA6B2";
name = Condensed;
paths = (
{
closed = 1;
nodes = (
"302 0 LINE",
"302 714 LINE",
"14 714 LINE",
"14 641 LINE",
"220 641 LINE",
"220 0 LINE"
);
}
);
width = 373;
},
{
layerId = "E419AE99-0260-44D0-87A9-BD030FD7659A";
name = "SemiBold Condensed";
paths = (
{
closed = 1;
nodes = (
"365 0 LINE",
"365 714 LINE",
"18 714 LINE",
"18 596 LINE",
"229 596 LINE",
"229 0 LINE"
);
}
);
width = 428;
},
{
layerId = "C7A62E0A-0606-4C56-A5B0-C8EA8B1CCAFA";
name = "Bold Condensed";
paths = (
{
closed = 1;
nodes = (
"405 0 LINE",
"405 714 LINE",
"20 714 LINE",
"20 567 LINE",
"235 567 LINE",
"235 0 LINE"
);
}
);
width = 464;
},
{
layerId = "9503992B-9F6A-43B6-8DBC-EB382B06F8D4";
name = Regular;
paths = (
{
closed = 1;
nodes = (
"403 0 LINE",
"403 714 LINE",
"24 714 LINE",
"24 636 LINE",
"313 636 LINE",
"313 0 LINE"
);
}
);
width = 501;
},
{
layerId = "2D9814BA-45F0-4FCB-8967-A366BFC6AA80";
name = SemiBold;
paths = (
{
closed = 1;
nodes = (
"450 0 LINE",
"450 714 LINE",
"20 714 LINE",
"20 588 LINE",
"299 588 LINE",
"299 0 LINE"
);
}
);
width = 540;
}
);
note = uni10A8;
unicode = 10A8;
},
{
color = 5;
glyphname = uni10A9;
lastChange = "2015-09-22 12:09:46 +0000";
layers = (
{
layerId = "F1E1AA8A-A3F5-4941-B4E6-C7B9A7EBF3CF";
name = Light;
paths = (
{
closed = 1;
nodes = (
"603 0 LINE",
"603 356 LINE SMOOTH",
"603 495 OFFCURVE",
"520 616 OFFCURVE",
"356 616 CURVE SMOOTH",
"264 616 OFFCURVE",
"172 572 OFFCURVE",
"122 468 CURVE",
"118 468 LINE",
"119 497 OFFCURVE",
"121 527 OFFCURVE",
"121 560 CURVE SMOOTH",
"121 714 LINE",
"95 714 LINE",
"95 362 LINE SMOOTH",
"95 214 OFFCURVE",
"190 102 OFFCURVE",
"356 102 CURVE SMOOTH",
"448 102 OFFCURVE",
"535 147 OFFCURVE",
"575 237 CURVE",
"580 237 LINE",
"579 215 OFFCURVE",
"577 169 OFFCURVE",
"577 146 CURVE SMOOTH",
"577 0 LINE"
);
},
{
closed = 1;
nodes = (
"216 128 OFFCURVE",
"121 215 OFFCURVE",
"121 363 CURVE SMOOTH",
"121 483 OFFCURVE",
"216 590 OFFCURVE",
"356 590 CURVE SMOOTH",
"485 590 OFFCURVE",
"577 499 OFFCURVE",
"577 356 CURVE SMOOTH",
"577 219 OFFCURVE",
"484 128 OFFCURVE",
"356 128 CURVE SMOOTH"
);
}
);
width = 697;
},
{
layerId = "29BFE51A-F5BD-45F8-BEBC-9AD34273B132";
name = Bold;
paths = (
{
closed = 1;
nodes = (
"666 0 LINE",
"666 374 LINE SMOOTH",
"666 533 OFFCURVE",
"583 632 OFFCURVE",
"437 632 CURVE SMOOTH",
"356 632 OFFCURVE",
"298 603 OFFCURVE",
"261 555 CURVE",
"256 555 LINE",
"262 600 OFFCURVE",
"263 648 OFFCURVE",
"263 686 CURVE SMOOTH",
"263 714 LINE",
"69 714 LINE",
"69 356 LINE SMOOTH",
"69 197 OFFCURVE",
"151 98 OFFCURVE",
"297 98 CURVE SMOOTH",
"378 98 OFFCURVE",
"436 127 OFFCURVE",
"473 176 CURVE",
"478 176 LINE",
"472 120 OFFCURVE",
"472 71 OFFCURVE",
"472 28 CURVE SMOOTH",
"472 0 LINE"
);
},
{
closed = 1;
nodes = (
"292 255 OFFCURVE",
"263 295 OFFCURVE",
"263 365 CURVE SMOOTH",
"263 434 OFFCURVE",
"300 475 OFFCURVE",
"370 475 CURVE SMOOTH",
"441 475 OFFCURVE",
"472 434 OFFCURVE",
"472 365 CURVE SMOOTH",
"472 295 OFFCURVE",
"435 255 OFFCURVE",
"364 255 CURVE SMOOTH"
);
}
);
width = 735;
},
{
layerId = "0228171D-2638-482B-876E-783119597845";
name = "Light Condensed";
paths = (
{
closed = 1;
nodes = (
"408 0 LINE",
"408 355 LINE SMOOTH",
"408 509 OFFCURVE",
"356 615 OFFCURVE",
"244 615 CURVE SMOOTH",
"185 615 OFFCURVE",
"126 575 OFFCURVE",
"99 490 CURVE",
"96 490 LINE",
"97 514 OFFCURVE",
"98 549 OFFCURVE",
"98 595 CURVE SMOOTH",
"98 714 LINE",
"72 714 LINE",
"72 362 LINE SMOOTH",
"72 199 OFFCURVE",
"128 102 OFFCURVE",
"241 102 CURVE SMOOTH",
"300 102 OFFCURVE",
"354 143 OFFCURVE",
"380 227 CURVE",
"384 227 LINE",
"383 189 OFFCURVE",
"382 152 OFFCURVE",
"382 109 CURVE SMOOTH",
"382 0 LINE"
);
},
{
closed = 1;
nodes = (
"148 127 OFFCURVE",
"98 205 OFFCURVE",
"98 363 CURVE SMOOTH",
"98 492 OFFCURVE",
"156 590 OFFCURVE",
"244 590 CURVE SMOOTH",
"331 590 OFFCURVE",
"382 503 OFFCURVE",
"382 355 CURVE SMOOTH",
"382 216 OFFCURVE",
"317 127 OFFCURVE",
"241 127 CURVE SMOOTH"
);
}
);
width = 479;
},
{
layerId = "5ABCF6AD-94E3-4DCD-A28A-F55CA80EA6B2";
name = Condensed;
paths = (
{
closed = 1;
nodes = (
"453 0 LINE",
"453 365 LINE SMOOTH",
"453 520 OFFCURVE",
"400 622 OFFCURVE",
"286 622 CURVE SMOOTH",
"226 622 OFFCURVE",
"175 586 OFFCURVE",
"148 515 CURVE",
"144 515 LINE",
"147 544 OFFCURVE",
"147 581 OFFCURVE",
"147 622 CURVE SMOOTH",
"147 714 LINE",
"65 714 LINE",
"65 357 LINE SMOOTH",
"65 197 OFFCURVE",
"120 100 OFFCURVE",
"235 100 CURVE SMOOTH",
"295 100 OFFCURVE",
"343 134 OFFCURVE",
"369 207 CURVE",
"373 207 LINE",
"372 168 OFFCURVE",
"371 130 OFFCURVE",
"371 91 CURVE SMOOTH",
"371 0 LINE"
);
},
{
closed = 1;
nodes = (
"184 170 OFFCURVE",
"148 233 OFFCURVE",
"148 363 CURVE SMOOTH",
"148 477 OFFCURVE",
"189 552 OFFCURVE",
"261 552 CURVE SMOOTH",
"333 552 OFFCURVE",
"370 484 OFFCURVE",
"370 360 CURVE SMOOTH",
"370 239 OFFCURVE",
"325 170 OFFCURVE",
"259 170 CURVE SMOOTH"
);
}
);
width = 518;
},
{
layerId = "E419AE99-0260-44D0-87A9-BD030FD7659A";
name = "SemiBold Condensed";
paths = (
{
closed = 1;
nodes = (
"496 0 LINE",
"496 375 LINE SMOOTH",
"496 531 OFFCURVE",
"443 628 OFFCURVE",
"326 628 CURVE SMOOTH",
"265 628 OFFCURVE",
"223 596 OFFCURVE",
"196 539 CURVE",
"190 539 LINE",
"195 573 OFFCURVE",
"195 611 OFFCURVE",
"195 648 CURVE SMOOTH",
"195 714 LINE",
"59 714 LINE",
"59 353 LINE SMOOTH",
"59 194 OFFCURVE",
"113 99 OFFCURVE",
"230 99 CURVE SMOOTH",
"291 99 OFFCURVE",
"333 126 OFFCURVE",
"360 188 CURVE",
"364 188 LINE",
"362 149 OFFCURVE",
"361 109 OFFCURVE",
"361 73 CURVE SMOOTH",
"361 0 LINE"
);
},
{
closed = 1;
nodes = (
"219 211 OFFCURVE",
"196 259 OFFCURVE",
"196 362 CURVE SMOOTH",
"196 463 OFFCURVE",
"220 516 OFFCURVE",
"278 516 CURVE SMOOTH",
"336 516 OFFCURVE",
"360 466 OFFCURVE",
"360 364 CURVE SMOOTH",
"360 262 OFFCURVE",
"333 211 OFFCURVE",
"277 211 CURVE SMOOTH"
);
}
);
width = 555;
},
{
layerId = "C7A62E0A-0606-4C56-A5B0-C8EA8B1CCAFA";
name = "Bold Condensed";
paths = (
{
closed = 1;
nodes = (
"524 0 LINE",
"524 381 LINE SMOOTH",
"524 538 OFFCURVE",
"470 632 OFFCURVE",
"352 632 CURVE SMOOTH",
"290 632 OFFCURVE",
"253 603 OFFCURVE",
"226 554 CURVE",
"220 554 LINE",
"225 592 OFFCURVE",
"225 630 OFFCURVE",
"225 664 CURVE SMOOTH",
"225 714 LINE",
"55 714 LINE",
"55 350 LINE SMOOTH",
"55 193 OFFCURVE",
"109 98 OFFCURVE",
"227 98 CURVE SMOOTH",
"288 98 OFFCURVE",
"327 121 OFFCURVE",
"354 176 CURVE",
"358 176 LINE",
"355 136 OFFCURVE",
"354 95 OFFCURVE",
"354 62 CURVE SMOOTH",
"354 0 LINE"
);
},
{
closed = 1;
nodes = (
"242 237 OFFCURVE",
"227 276 OFFCURVE",
"227 362 CURVE SMOOTH",
"227 454 OFFCURVE",
"241 493 OFFCURVE",
"289 493 CURVE SMOOTH",
"338 493 OFFCURVE",
"353 454 OFFCURVE",
"353 367 CURVE SMOOTH",
"353 276 OFFCURVE",
"338 237 OFFCURVE",
"289 237 CURVE SMOOTH"
);
}
);
width = 579;
},
{
layerId = "9503992B-9F6A-43B6-8DBC-EB382B06F8D4";
name = Regular;
paths = (
{
closed = 1;
nodes = (
"623 0 LINE",
"623 362 LINE SMOOTH",
"623 514 OFFCURVE",
"531 624 OFFCURVE",
"375 624 CURVE SMOOTH",
"290 624 OFFCURVE",
"232 596 OFFCURVE",
"181 522 CURVE",
"175 522 LINE",
"178 571 OFFCURVE",
"180 600 OFFCURVE",
"180 608 CURVE SMOOTH",
"180 714 LINE",
"90 714 LINE",
"90 362 LINE SMOOTH",
"90 206 OFFCURVE",
"184 100 OFFCURVE",
"338 100 CURVE",
"423 100 OFFCURVE",
"485 133 OFFCURVE",
"532 202 CURVE",
"538 202 LINE",
"536 174 OFFCURVE",
"533 142 OFFCURVE",
"533 116 CURVE SMOOTH",
"533 0 LINE"
);
},
{
closed = 1;
nodes = (
"243 178 OFFCURVE",
"180 247 OFFCURVE",
"180 362 CURVE SMOOTH",
"180 477 OFFCURVE",
"247 546 OFFCURVE",
"362 546 CURVE SMOOTH",
"469 546 OFFCURVE",
"533 479 OFFCURVE",
"533 362 CURVE SMOOTH",
"533 248 OFFCURVE",
"466 178 OFFCURVE",
"351 178 CURVE SMOOTH"
);
}
);
width = 703;
},
{
layerId = "2D9814BA-45F0-4FCB-8967-A366BFC6AA80";
name = SemiBold;
paths = (
{
closed = 1;
nodes = (
"632 0 LINE",
"632 368 LINE SMOOTH",
"632 532 OFFCURVE",
"542 632 OFFCURVE",
"399 632 CURVE SMOOTH",
"321 632 OFFCURVE",
"272 611 OFFCURVE",
"227 554 CURVE",
"219 554 LINE",
"223 588 OFFCURVE",
"226 622 OFFCURVE",
"226 654 CURVE SMOOTH",
"226 714 LINE",
"75 714 LINE",
"75 362 LINE SMOOTH",
"75 198 OFFCURVE",
"165 98 OFFCURVE",
"308 98 CURVE SMOOTH",
"386 98 OFFCURVE",
"436 119 OFFCURVE",
"481 176 CURVE",
"488 176 LINE",
"485 143 OFFCURVE",
"481 105 OFFCURVE",
"481 76 CURVE SMOOTH",
"481 0 LINE"
);
},
{
closed = 1;
nodes = (
"268 224 OFFCURVE",
"226 267 OFFCURVE",
"226 361 CURVE SMOOTH",
"226 464 OFFCURVE",
"263 506 OFFCURVE",
"355 506 CURVE SMOOTH",
"441 506 OFFCURVE",
"481 462 OFFCURVE",
"481 368 CURVE SMOOTH",
"481 267 OFFCURVE",
"444 224 OFFCURVE",
"352 224 CURVE SMOOTH"
);
}
);
width = 707;
}
);
note = uni10A9;
unicode = 10A9;
},
{
color = 5;
glyphname = uni10AA;
lastChange = "2015-09-22 12:26:45 +0000";
layers = (
{
layerId = "F1E1AA8A-A3F5-4941-B4E6-C7B9A7EBF3CF";
name = Light;
paths = (
{
closed = 1;
nodes = (
"581 -10 OFFCURVE",
"685 99 OFFCURVE",
"685 264 CURVE SMOOTH",
"685 413 OFFCURVE",
"601 536 OFFCURVE",
"446 536 CURVE SMOOTH",
"333 536 OFFCURVE",
"254 480 OFFCURVE",
"210 384 CURVE",
"206 384 LINE",
"207 406 OFFCURVE",
"209 473 OFFCURVE",
"209 519 CURVE SMOOTH",
"209 714 LINE",
"30 714 LINE",
"30 545 LINE",
"56 545 LINE",
"56 689 LINE",
"183 689 LINE",
"183 260 LINE SMOOTH",
"183 95 OFFCURVE",
"265 -10 OFFCURVE",
"423 -10 CURVE SMOOTH"
);
},
{
closed = 1;
nodes = (
"280 16 OFFCURVE",
"209 114 OFFCURVE",
"209 260 CURVE SMOOTH",
"209 400 OFFCURVE",
"296 510 OFFCURVE",
"445 510 CURVE SMOOTH",
"574 510 OFFCURVE",
"658 412 OFFCURVE",
"658 264 CURVE SMOOTH",
"658 115 OFFCURVE",
"566 16 OFFCURVE",
"423 16 CURVE SMOOTH"
);
}
);
width = 745;
},
{
layerId = "29BFE51A-F5BD-45F8-BEBC-9AD34273B132";
name = Bold;
paths = (
{
closed = 1;
nodes = (
"734 -10 OFFCURVE",
"835 99 OFFCURVE",
"835 277 CURVE SMOOTH",
"835 456 OFFCURVE",
"744 562 OFFCURVE",
"605 562 CURVE SMOOTH",
"533 562 OFFCURVE",
"484 539 OFFCURVE",
"444 498 CURVE",
"437 498 LINE",
"442 542 OFFCURVE",
"444 576 OFFCURVE",
"444 615 CURVE SMOOTH",
"444 714 LINE",
"25 714 LINE",
"25 458 LINE",
"192 458 LINE",
"192 560 LINE",
"253 560 LINE",
"253 279 LINE SMOOTH",
"253 96 OFFCURVE",
"342 -10 OFFCURVE",
"537 -10 CURVE SMOOTH"
);
},
{
closed = 1;
nodes = (
"476 147 OFFCURVE",
"444 184 OFFCURVE",
"444 277 CURVE SMOOTH",
"444 369 OFFCURVE",
"478 405 OFFCURVE",
"542 405 CURVE SMOOTH",
"604 405 OFFCURVE",
"636 369 OFFCURVE",
"636 277 CURVE SMOOTH",
"636 184 OFFCURVE",
"598 147 OFFCURVE",
"537 147 CURVE SMOOTH"
);
}
);
width = 883;
},
{
layerId = "0228171D-2638-482B-876E-783119597845";
name = "Light Condensed";
paths = (
{
closed = 1;
nodes = (
"437 -10 OFFCURVE",
"485 99 OFFCURVE",
"485 263 CURVE SMOOTH",
"485 424 OFFCURVE",
"430 535 OFFCURVE",
"322 535 CURVE SMOOTH",
"252 535 OFFCURVE",
"204 485 OFFCURVE",
"178 408 CURVE",
"175 408 LINE",
"177 441 OFFCURVE",
"178 481 OFFCURVE",
"178 518 CURVE SMOOTH",
"178 714 LINE",
"30 714 LINE",
"30 545 LINE",
"56 545 LINE",
"56 689 LINE",
"152 689 LINE",
"152 247 LINE SMOOTH",
"152 95 OFFCURVE",
"202 -10 OFFCURVE",
"316 -10 CURVE SMOOTH"
);
},
{
closed = 1;
nodes = (
"222 15 OFFCURVE",
"178 105 OFFCURVE",
"178 259 CURVE SMOOTH",
"178 401 OFFCURVE",
"229 510 OFFCURVE",
"322 510 CURVE SMOOTH",
"403 510 OFFCURVE",
"458 424 OFFCURVE",
"458 263 CURVE SMOOTH",
"458 103 OFFCURVE",
"411 15 OFFCURVE",
"316 15 CURVE SMOOTH"
);
}
);
width = 530;
},
{
layerId = "5ABCF6AD-94E3-4DCD-A28A-F55CA80EA6B2";
name = Condensed;
paths = (
{
closed = 1;
nodes = (
"506 -10 OFFCURVE",
"568 99 OFFCURVE",
"568 268 CURVE SMOOTH",
"568 435 OFFCURVE",
"511 544 OFFCURVE",
"399 544 CURVE SMOOTH",
"336 544 OFFCURVE",
"292 503 OFFCURVE",
"266 436 CURVE",
"261 436 LINE",
"264 473 OFFCURVE",
"266 514 OFFCURVE",
"266 552 CURVE SMOOTH",
"266 714 LINE",
"26 714 LINE",
"26 511 LINE",
"100 511 LINE",
"100 646 LINE",
"184 646 LINE",
"184 258 LINE SMOOTH",
"184 96 OFFCURVE",
"241 -10 OFFCURVE",
"372 -10 CURVE SMOOTH"
);
},
{
closed = 1;
nodes = (
"298 63 OFFCURVE",
"266 134 OFFCURVE",
"266 265 CURVE SMOOTH",
"266 388 OFFCURVE",
"303 471 OFFCURVE",
"376 471 CURVE SMOOTH",
"443 471 OFFCURVE",
"482 402 OFFCURVE",
"482 267 CURVE SMOOTH",
"482 133 OFFCURVE",
"445 63 OFFCURVE",
"373 63 CURVE SMOOTH"
);
}
);
width = 610;
},
{
layerId = "E419AE99-0260-44D0-87A9-BD030FD7659A";
name = "SemiBold Condensed";
paths = (
{
closed = 1;
nodes = (
"572 -10 OFFCURVE",
"646 98 OFFCURVE",
"646 273 CURVE SMOOTH",
"646 445 OFFCURVE",
"587 553 OFFCURVE",
"473 553 CURVE SMOOTH",
"415 553 OFFCURVE",
"375 521 OFFCURVE",
"349 464 CURVE",
"343 464 LINE",
"347 503 OFFCURVE",
"349 546 OFFCURVE",
"349 585 CURVE SMOOTH",
"349 714 LINE",
"22 714 LINE",
"22 479 LINE",
"142 479 LINE",
"142 606 LINE",
"213 606 LINE",
"213 269 LINE SMOOTH",
"213 97 OFFCURVE",
"278 -10 OFFCURVE",
"426 -10 CURVE SMOOTH"
);
},
{
closed = 1;
nodes = (
"369 110 OFFCURVE",
"349 162 OFFCURVE",
"349 270 CURVE SMOOTH",
"349 376 OFFCURVE",
"373 433 OFFCURVE",
"427 433 CURVE SMOOTH",
"479 433 OFFCURVE",
"505 381 OFFCURVE",
"505 271 CURVE SMOOTH",
"505 162 OFFCURVE",
"477 110 OFFCURVE",
"426 110 CURVE SMOOTH"
);
}
);
width = 687;
},
{
layerId = "C7A62E0A-0606-4C56-A5B0-C8EA8B1CCAFA";
name = "Bold Condensed";
paths = (
{
closed = 1;
nodes = (
"614 -10 OFFCURVE",
"697 98 OFFCURVE",
"697 276 CURVE SMOOTH",
"697 451 OFFCURVE",
"637 558 OFFCURVE",
"520 558 CURVE SMOOTH",
"467 558 OFFCURVE",
"429 532 OFFCURVE",
"403 481 CURVE",
"396 481 LINE",
"401 522 OFFCURVE",
"403 566 OFFCURVE",
"403 606 CURVE SMOOTH",
"403 714 LINE",
"20 714 LINE",
"20 458 LINE",
"169 458 LINE",
"169 580 LINE",
"233 580 LINE",
"233 276 LINE SMOOTH",
"233 98 OFFCURVE",
"302 -10 OFFCURVE",
"461 -10 CURVE SMOOTH"
);
},
{
closed = 1;
nodes = (
"415 139 OFFCURVE",
"403 180 OFFCURVE",
"403 274 CURVE SMOOTH",
"403 368 OFFCURVE",
"418 409 OFFCURVE",
"461 409 CURVE SMOOTH",
"504 409 OFFCURVE",
"520 367 OFFCURVE",
"520 274 CURVE SMOOTH",
"520 180 OFFCURVE",
"498 139 OFFCURVE",
"461 139 CURVE SMOOTH"
);
}
);
width = 736;
},
{
layerId = "9503992B-9F6A-43B6-8DBC-EB382B06F8D4";
name = Regular;
paths = (
{
closed = 1;
nodes = (
"643 -10 OFFCURVE",
"750 96 OFFCURVE",
"750 269 CURVE SMOOTH",
"750 427 OFFCURVE",
"661 546 OFFCURVE",
"502 546 CURVE SMOOTH",
"417 546 OFFCURVE",
"359 518 OFFCURVE",
"308 444 CURVE",
"302 444 LINE",
"305 493 OFFCURVE",
"307 521 OFFCURVE",
"307 530 CURVE SMOOTH",
"307 714 LINE",
"30 714 LINE",
"30 521 LINE",
"116 521 LINE",
"116 636 LINE",
"217 636 LINE",
"217 267 LINE SMOOTH",
"217 96 OFFCURVE",
"316 -10 OFFCURVE",
"478 -10 CURVE SMOOTH"
);
},
{
closed = 1;
nodes = (
"369 68 OFFCURVE",
"307 143 OFFCURVE",
"307 267 CURVE SMOOTH",
"307 392 OFFCURVE",
"373 468 OFFCURVE",
"488 468 CURVE SMOOTH",
"595 468 OFFCURVE",
"657 396 OFFCURVE",
"657 269 CURVE SMOOTH",
"657 142 OFFCURVE",
"590 68 OFFCURVE",
"477 68 CURVE SMOOTH"
);
}
);
width = 805;
},
{
layerId = "2D9814BA-45F0-4FCB-8967-A366BFC6AA80";
name = SemiBold;
paths = (
{
closed = 1;
nodes = (
"695 -10 OFFCURVE",
"803 97 OFFCURVE",
"803 274 CURVE SMOOTH",
"803 449 OFFCURVE",
"713 556 OFFCURVE",
"565 556 CURVE SMOOTH",
"487 556 OFFCURVE",
"439 534 OFFCURVE",
"393 473 CURVE",
"385 473 LINE",
"388 513 OFFCURVE",
"392 556 OFFCURVE",
"392 580 CURVE",
"392 714 LINE",
"25 714 LINE",
"25 476 LINE",
"163 476 LINE",
"163 590 LINE",
"241 590 LINE",
"241 274 LINE SMOOTH",
"241 100 OFFCURVE",
"349 -10 OFFCURVE",
"518 -10 CURVE SMOOTH"
);
},
{
closed = 1;
nodes = (
"430 116 OFFCURVE",
"392 166 OFFCURVE",
"392 266 CURVE SMOOTH",
"392 382 OFFCURVE",
"430 430 OFFCURVE",
"521 430 CURVE SMOOTH",
"607 430 OFFCURVE",
"647 379 OFFCURVE",
"647 274 CURVE SMOOTH",
"647 168 OFFCURVE",
"603 116 OFFCURVE",
"520 116 CURVE SMOOTH"
);
}
);
width = 857;
}
);
note = uni10AA;
unicode = 10AA;
},
{
color = 5;
glyphname = uni10AB;
lastChange = "2015-09-22 12:27:39 +0000";
layers = (
{
layerId = "F1E1AA8A-A3F5-4941-B4E6-C7B9A7EBF3CF";
name = Light;
paths = (
{
closed = 1;
nodes = (
"430 -10 OFFCURVE",
"508 87 OFFCURVE",
"508 282 CURVE SMOOTH",
"508 448 LINE",
"635 448 LINE",
"635 304 LINE",
"661 304 LINE",
"661 473 LINE",
"508 473 LINE",
"508 714 LINE",
"112 714 LINE",
"112 689 LINE",
"482 689 LINE",
"482 473 LINE",
"314 473 LINE SMOOTH",
"154 473 OFFCURVE",
"59 383 OFFCURVE",
"59 236 CURVE SMOOTH",
"59 89 OFFCURVE",
"140 -10 OFFCURVE",
"285 -10 CURVE SMOOTH"
);
},
{
closed = 1;
nodes = (
"161 15 OFFCURVE",
"86 101 OFFCURVE",
"86 236 CURVE SMOOTH",
"86 371 OFFCURVE",
"174 448 OFFCURVE",
"314 448 CURVE SMOOTH",
"482 448 LINE",
"482 282 LINE SMOOTH",
"482 102 OFFCURVE",
"409 15 OFFCURVE",
"285 15 CURVE SMOOTH"
);
}
);
width = 691;
},
{
layerId = "29BFE51A-F5BD-45F8-BEBC-9AD34273B132";
name = Bold;
paths = (
{
closed = 1;
nodes = (
"541 -10 OFFCURVE",
"650 86 OFFCURVE",
"650 253 CURVE SMOOTH",
"650 352 LINE",
"711 352 LINE",
"711 261 LINE",
"878 261 LINE",
"878 509 LINE",
"650 509 LINE",
"650 714 LINE",
"100 714 LINE",
"100 558 LINE",
"459 558 LINE",
"459 509 LINE",
"354 509 LINE SMOOTH",
"152 509 OFFCURVE",
"48 415 OFFCURVE",
"48 247 CURVE SMOOTH",
"48 85 OFFCURVE",
"163 -10 OFFCURVE",
"352 -10 CURVE SMOOTH"
);
},
{
closed = 1;
nodes = (
"283 147 OFFCURVE",
"247 181 OFFCURVE",
"247 249 CURVE SMOOTH",
"247 318 OFFCURVE",
"283 352 OFFCURVE",
"354 352 CURVE SMOOTH",
"459 352 LINE",
"459 262 LINE SMOOTH",
"459 182 OFFCURVE",
"425 147 OFFCURVE",
"354 147 CURVE SMOOTH"
);
}
);
width = 903;
},
{
layerId = "0228171D-2638-482B-876E-783119597845";
name = "Light Condensed";
paths = (
{
closed = 1;
nodes = (
"299 -10 OFFCURVE",
"343 83 OFFCURVE",
"343 242 CURVE SMOOTH",
"343 445 LINE",
"439 445 LINE",
"439 301 LINE",
"465 301 LINE",
"465 470 LINE",
"343 470 LINE",
"343 714 LINE",
"80 714 LINE",
"80 689 LINE",
"317 689 LINE",
"317 470 LINE",
"221 470 LINE SMOOTH",
"107 470 OFFCURVE",
"45 384 OFFCURVE",
"45 235 CURVE SMOOTH",
"45 83 OFFCURVE",
"93 -10 OFFCURVE",
"195 -10 CURVE SMOOTH"
);
},
{
closed = 1;
nodes = (
"113 15 OFFCURVE",
"72 93 OFFCURVE",
"72 235 CURVE SMOOTH",
"72 373 OFFCURVE",
"125 445 OFFCURVE",
"221 445 CURVE SMOOTH",
"317 445 LINE",
"317 243 LINE SMOOTH",
"317 93 OFFCURVE",
"279 15 OFFCURVE",
"195 15 CURVE SMOOTH"
);
}
);
width = 495;
},
{
layerId = "5ABCF6AD-94E3-4DCD-A28A-F55CA80EA6B2";
name = Condensed;
paths = (
{
closed = 1;
nodes = (
"360 -10 OFFCURVE",
"420 85 OFFCURVE",
"420 252 CURVE SMOOTH",
"420 412 LINE",
"499 412 LINE",
"499 285 LINE",
"573 285 LINE",
"573 482 LINE",
"420 482 LINE",
"420 714 LINE",
"84 714 LINE",
"84 641 LINE",
"338 641 LINE",
"338 482 LINE",
"251 482 LINE SMOOTH",
"119 482 OFFCURVE",
"43 396 OFFCURVE",
"43 240 CURVE SMOOTH",
"43 85 OFFCURVE",
"111 -10 OFFCURVE",
"234 -10 CURVE SMOOTH"
);
},
{
closed = 1;
nodes = (
"163 63 OFFCURVE",
"128 127 OFFCURVE",
"128 241 CURVE SMOOTH",
"128 353 OFFCURVE",
"169 412 OFFCURVE",
"251 412 CURVE SMOOTH",
"337 412 LINE",
"337 252 LINE SMOOTH",
"337 127 OFFCURVE",
"305 63 OFFCURVE",
"233 63 CURVE SMOOTH"
);
}
);
width = 598;
},
{
layerId = "E419AE99-0260-44D0-87A9-BD030FD7659A";
name = "SemiBold Condensed";
paths = (
{
closed = 1;
nodes = (
"417 -10 OFFCURVE",
"492 86 OFFCURVE",
"492 262 CURVE SMOOTH",
"492 381 LINE",
"554 381 LINE",
"554 271 LINE",
"674 271 LINE",
"674 493 LINE",
"492 493 LINE",
"492 714 LINE",
"86 714 LINE",
"86 596 LINE",
"356 596 LINE",
"356 493 LINE",
"279 493 LINE SMOOTH",
"129 493 OFFCURVE",
"40 408 OFFCURVE",
"40 244 CURVE SMOOTH",
"40 86 OFFCURVE",
"126 -10 OFFCURVE",
"269 -10 CURVE SMOOTH"
);
},
{
closed = 1;
nodes = (
"211 110 OFFCURVE",
"182 159 OFFCURVE",
"182 246 CURVE SMOOTH",
"182 333 OFFCURVE",
"211 381 OFFCURVE",
"281 381 CURVE SMOOTH",
"357 381 LINE",
"357 260 LINE SMOOTH",
"357 159 OFFCURVE",
"331 110 OFFCURVE",
"270 110 CURVE SMOOTH"
);
}
);
width = 697;
},
{
layerId = "C7A62E0A-0606-4C56-A5B0-C8EA8B1CCAFA";
name = "Bold Condensed";
paths = (
{
closed = 1;
nodes = (
"454 -10 OFFCURVE",
"539 87 OFFCURVE",
"539 268 CURVE SMOOTH",
"539 361 LINE",
"591 361 LINE",
"591 261 LINE",
"740 261 LINE",
"740 500 LINE",
"539 500 LINE",
"539 714 LINE",
"89 714 LINE",
"89 567 LINE",
"369 567 LINE",
"369 500 LINE",
"298 500 LINE SMOOTH",
"137 500 OFFCURVE",
"39 416 OFFCURVE",
"39 247 CURVE SMOOTH",
"39 87 OFFCURVE",
"137 -10 OFFCURVE",
"293 -10 CURVE SMOOTH"
);
},
{
closed = 1;
nodes = (
"241 139 OFFCURVE",
"216 179 OFFCURVE",
"216 250 CURVE SMOOTH",
"216 321 OFFCURVE",
"238 361 OFFCURVE",
"299 361 CURVE SMOOTH",
"369 361 LINE",
"369 265 LINE SMOOTH",
"369 179 OFFCURVE",
"347 139 OFFCURVE",
"293 139 CURVE SMOOTH"
);
}
);
width = 760;
},
{
layerId = "9503992B-9F6A-43B6-8DBC-EB382B06F8D4";
name = Regular;
paths = (
{
closed = 1;
nodes = (
"450 -10 OFFCURVE",
"537 99 OFFCURVE",
"537 278 CURVE SMOOTH",
"537 419 LINE",
"638 419 LINE",
"638 304 LINE",
"724 304 LINE",
"724 497 LINE",
"537 497 LINE",
"537 714 LINE",
"108 714 LINE",
"108 636 LINE",
"447 636 LINE",
"447 497 LINE",
"308 497 LINE SMOOTH",
"150 497 OFFCURVE",
"55 399 OFFCURVE",
"55 243 CURVE SMOOTH",
"55 87 OFFCURVE",
"147 -10 OFFCURVE",
"299 -10 CURVE SMOOTH"
);
},
{
closed = 1;
nodes = (
"199 68 OFFCURVE",
"144 132 OFFCURVE",
"144 243 CURVE SMOOTH",
"144 353 OFFCURVE",
"202 419 OFFCURVE",
"303 419 CURVE SMOOTH",
"447 419 LINE",
"447 272 LINE SMOOTH",
"447 143 OFFCURVE",
"396 68 OFFCURVE",
"294 68 CURVE SMOOTH"
);
}
);
width = 754;
},
{
layerId = "2D9814BA-45F0-4FCB-8967-A366BFC6AA80";
name = SemiBold;
paths = (
{
closed = 1;
nodes = (
"506 -10 OFFCURVE",
"616 98 OFFCURVE",
"616 274 CURVE SMOOTH",
"616 387 LINE",
"694 387 LINE",
"694 271 LINE",
"832 271 LINE",
"832 509 LINE",
"616 509 LINE",
"616 714 LINE",
"106 714 LINE",
"106 588 LINE",
"465 588 LINE",
"465 509 LINE",
"323 509 LINE SMOOTH",
"149 509 OFFCURVE",
"54 417 OFFCURVE",
"54 250 CURVE SMOOTH",
"54 88 OFFCURVE",
"163 -10 OFFCURVE",
"339 -10 CURVE SMOOTH"
);
},
{
closed = 1;
nodes = (
"254 116 OFFCURVE",
"210 161 OFFCURVE",
"210 250 CURVE SMOOTH",
"210 341 OFFCURVE",
"250 385 OFFCURVE",
"336 385 CURVE SMOOTH",
"465 385 LINE",
"465 266 LINE SMOOTH",
"465 166 OFFCURVE",
"427 116 OFFCURVE",
"337 116 CURVE SMOOTH"
);
}
);
width = 856;
}
);
note = uni10AB;
unicode = 10AB;
},
{
color = 5;
glyphname = uni10AC;
lastChange = "2015-09-22 12:09:46 +0000";
layers = (
{
layerId = "F1E1AA8A-A3F5-4941-B4E6-C7B9A7EBF3CF";
name = Light;
paths = (
{
closed = 1;
nodes = (
"129 0 LINE",
"129 224 LINE SMOOTH",
"129 378 OFFCURVE",
"212 456 OFFCURVE",
"342 456 CURVE SMOOTH",
"472 456 OFFCURVE",
"546 388 OFFCURVE",
"546 224 CURVE SMOOTH",
"546 0 LINE",
"572 0 LINE",
"572 225 LINE SMOOTH",
"572 420 OFFCURVE",
"472 482 OFFCURVE",
"344 482 CURVE SMOOTH",
"216 482 OFFCURVE",
"159 417 OFFCURVE",
"129 351 CURVE",
"126 351 LINE",
"128 380 OFFCURVE",
"129 430 OFFCURVE",
"129 447 CURVE SMOOTH",
"129 689 LINE",
"533 689 LINE",
"533 714 LINE",
"103 714 LINE",
"103 0 LINE"
);
}
);
width = 661;
},
{
layerId = "29BFE51A-F5BD-45F8-BEBC-9AD34273B132";
name = Bold;
paths = (
{
closed = 1;
nodes = (
"271 0 LINE",
"271 157 LINE SMOOTH",
"271 270 OFFCURVE",
"306 325 OFFCURVE",
"388 325 CURVE SMOOTH",
"457 325 OFFCURVE",
"500 286 OFFCURVE",
"500 205 CURVE SMOOTH",
"500 0 LINE",
"694 0 LINE",
"694 224 LINE SMOOTH",
"694 383 OFFCURVE",
"608 482 OFFCURVE",
"455 482 CURVE SMOOTH",
"370 482 OFFCURVE",
"306 451 OFFCURVE",
"267 395 CURVE",
"262 395 LINE",
"269 454 OFFCURVE",
"271 505 OFFCURVE",
"271 551 CURVE SMOOTH",
"271 558 LINE",
"657 558 LINE",
"657 714 LINE",
"77 714 LINE",
"77 0 LINE"
);
}
);
width = 763;
},
{
layerId = "0228171D-2638-482B-876E-783119597845";
name = "Light Condensed";
paths = (
{
closed = 1;
nodes = (
"97 0 LINE",
"97 224 LINE SMOOTH",
"97 385 OFFCURVE",
"147 456 OFFCURVE",
"233 456 CURVE SMOOTH",
"321 456 OFFCURVE",
"360 394 OFFCURVE",
"360 245 CURVE SMOOTH",
"360 0 LINE",
"386 0 LINE",
"386 247 LINE SMOOTH",
"386 426 OFFCURVE",
"326 481 OFFCURVE",
"235 481 CURVE SMOOTH",
"157 481 OFFCURVE",
"118 431 OFFCURVE",
"97 367 CURVE",
"95 367 LINE",
"97 394 OFFCURVE",
"97 426 OFFCURVE",
"97 444 CURVE SMOOTH",
"97 689 LINE",
"370 689 LINE",
"370 714 LINE",
"71 714 LINE",
"71 0 LINE"
);
}
);
width = 455;
},
{
layerId = "5ABCF6AD-94E3-4DCD-A28A-F55CA80EA6B2";
name = Condensed;
paths = (
{
closed = 1;
nodes = (
"148 0 LINE",
"148 212 LINE SMOOTH",
"148 355 OFFCURVE",
"190 413 OFFCURVE",
"263 413 CURVE SMOOTH",
"338 413 OFFCURVE",
"371 360 OFFCURVE",
"371 236 CURVE SMOOTH",
"371 0 LINE",
"453 0 LINE",
"453 242 LINE SMOOTH",
"453 408 OFFCURVE",
"394 481 OFFCURVE",
"290 481 CURVE SMOOTH",
"213 481 OFFCURVE",
"172 439 OFFCURVE",
"147 380 CURVE",
"145 380 LINE",
"147 411 OFFCURVE",
"148 448 OFFCURVE",
"148 472 CURVE SMOOTH",
"148 641 LINE",
"433 641 LINE",
"433 714 LINE",
"66 714 LINE",
"66 0 LINE"
);
}
);
width = 517;
},
{
layerId = "E419AE99-0260-44D0-87A9-BD030FD7659A";
name = "SemiBold Condensed";
paths = (
{
closed = 1;
nodes = (
"198 0 LINE",
"198 201 LINE SMOOTH",
"198 326 OFFCURVE",
"231 373 OFFCURVE",
"293 373 CURVE SMOOTH",
"355 373 OFFCURVE",
"381 328 OFFCURVE",
"381 227 CURVE SMOOTH",
"381 0 LINE",
"518 0 LINE",
"518 237 LINE SMOOTH",
"518 391 OFFCURVE",
"460 482 OFFCURVE",
"343 482 CURVE SMOOTH",
"268 482 OFFCURVE",
"223 446 OFFCURVE",
"196 393 CURVE",
"193 393 LINE",
"196 427 OFFCURVE",
"198 469 OFFCURVE",
"198 498 CURVE SMOOTH",
"198 596 LINE",
"493 596 LINE",
"493 714 LINE",
"62 714 LINE",
"62 0 LINE"
);
}
);
width = 576;
},
{
layerId = "C7A62E0A-0606-4C56-A5B0-C8EA8B1CCAFA";
name = "Bold Condensed";
paths = (
{
closed = 1;
nodes = (
"229 0 LINE",
"229 194 LINE SMOOTH",
"229 307 OFFCURVE",
"257 347 OFFCURVE",
"311 347 CURVE SMOOTH",
"365 347 OFFCURVE",
"388 308 OFFCURVE",
"388 222 CURVE SMOOTH",
"388 0 LINE",
"559 0 LINE",
"559 234 LINE SMOOTH",
"559 380 OFFCURVE",
"501 482 OFFCURVE",
"376 482 CURVE SMOOTH",
"302 482 OFFCURVE",
"256 451 OFFCURVE",
"227 401 CURVE",
"223 401 LINE",
"227 437 OFFCURVE",
"229 482 OFFCURVE",
"229 515 CURVE SMOOTH",
"229 567 LINE",
"531 567 LINE",
"531 714 LINE",
"59 714 LINE",
"59 0 LINE"
);
}
);
width = 614;
},
{
layerId = "9503992B-9F6A-43B6-8DBC-EB382B06F8D4";
name = Regular;
paths = (
{
closed = 1;
nodes = (
"188 0 LINE",
"188 220 LINE SMOOTH",
"188 337 OFFCURVE",
"257 410 OFFCURVE",
"374 410 CURVE SMOOTH",
"483 410 OFFCURVE",
"537 352 OFFCURVE",
"537 230 CURVE SMOOTH",
"537 0 LINE",
"627 0 LINE",
"627 229 LINE SMOOTH",
"627 401 OFFCURVE",
"543 488 OFFCURVE",
"391 488 CURVE SMOOTH",
"303 488 OFFCURVE",
"237 456 OFFCURVE",
"189 386 CURVE",
"183 386 LINE",
"187 435 OFFCURVE",
"188 464 OFFCURVE",
"188 472 CURVE SMOOTH",
"188 636 LINE",
"589 636 LINE",
"589 714 LINE",
"98 714 LINE",
"98 0 LINE"
);
}
);
width = 707;
},
{
layerId = "2D9814BA-45F0-4FCB-8967-A366BFC6AA80";
name = SemiBold;
paths = (
{
closed = 1;
nodes = (
"241 0 LINE",
"241 167 LINE SMOOTH",
"241 302 OFFCURVE",
"281 356 OFFCURVE",
"392 356 CURVE SMOOTH",
"484 356 OFFCURVE",
"525 303 OFFCURVE",
"525 215 CURVE SMOOTH",
"525 0 LINE",
"676 0 LINE",
"676 233 LINE SMOOTH",
"676 385 OFFCURVE",
"586 482 OFFCURVE",
"436 482 CURVE SMOOTH",
"349 482 OFFCURVE",
"283 451 OFFCURVE",
"239 389 CURVE",
"234 389 LINE",
"239 436 OFFCURVE",
"241 475 OFFCURVE",
"241 496 CURVE",
"241 588 LINE",
"639 588 LINE",
"639 714 LINE",
"90 714 LINE",
"90 0 LINE"
);
}
);
width = 751;
}
);
note = uni10AC;
unicode = 10AC;
},
{
color = 5;
glyphname = uni10AD;
lastChange = "2015-09-22 12:28:13 +0000";
layers = (
{
layerId = "F1E1AA8A-A3F5-4941-B4E6-C7B9A7EBF3CF";
name = Light;
paths = (
{
closed = 1;
nodes = (
"647 -151 OFFCURVE",
"663 -149 OFFCURVE",
"670 -147 CURVE",
"670 -123 LINE",
"660 -125 OFFCURVE",
"650 -126 OFFCURVE",
"636 -126 CURVE SMOOTH",
"568 -126 OFFCURVE",
"542 -89 OFFCURVE",
"542 -38 CURVE SMOOTH",
"542 10 OFFCURVE",
"562 43 OFFCURVE",
"583 62 CURVE SMOOTH",
"655 127 OFFCURVE",
"690 231 OFFCURVE",
"690 358 CURVE SMOOTH",
"690 590 OFFCURVE",
"579 725 OFFCURVE",
"382 725 CURVE SMOOTH",
"177 725 OFFCURVE",
"63 574 OFFCURVE",
"63 359 CURVE SMOOTH",
"63 143 OFFCURVE",
"168 -10 OFFCURVE",
"376 -10 CURVE SMOOTH",
"436 -10 OFFCURVE",
"487 2 OFFCURVE",
"530 25 CURVE",
"522 11 OFFCURVE",
"515 -14 OFFCURVE",
"515 -39 CURVE SMOOTH",
"515 -110 OFFCURVE",
"556 -151 OFFCURVE",
"635 -151 CURVE SMOOTH"
);
},
{
closed = 1;
nodes = (
"182 15 OFFCURVE",
"90 159 OFFCURVE",
"90 359 CURVE SMOOTH",
"90 556 OFFCURVE",
"186 700 OFFCURVE",
"382 700 CURVE SMOOTH",
"562 700 OFFCURVE",
"663 575 OFFCURVE",
"663 358 CURVE SMOOTH",
"663 156 OFFCURVE",
"573 15 OFFCURVE",
"377 15 CURVE SMOOTH"
);
}
);
width = 754;
},
{
layerId = "29BFE51A-F5BD-45F8-BEBC-9AD34273B132";
name = Bold;
paths = (
{
closed = 1;
nodes = (
"631 -195 OFFCURVE",
"685 -186 OFFCURVE",
"720 -174 CURVE",
"720 -44 LINE",
"693 -53 OFFCURVE",
"669 -59 OFFCURVE",
"637 -59 CURVE SMOOTH",
"605 -59 OFFCURVE",
"585 -46 OFFCURVE",
"585 -19 CURVE SMOOTH",
"585 10 OFFCURVE",
"599 30 OFFCURVE",
"629 58 CURVE",
"710 125 OFFCURVE",
"745 229 OFFCURVE",
"745 358 CURVE SMOOTH",
"745 580 OFFCURVE",
"643 725 OFFCURVE",
"399 725 CURVE SMOOTH",
"158 725 OFFCURVE",
"51 581 OFFCURVE",
"51 359 CURVE SMOOTH",
"51 136 OFFCURVE",
"158 -10 OFFCURVE",
"398 -10 CURVE SMOOTH",
"403 -10 OFFCURVE",
"412 -9 OFFCURVE",
"417 -9 CURVE",
"407 -27 OFFCURVE",
"404 -46 OFFCURVE",
"404 -70 CURVE SMOOTH",
"404 -148 OFFCURVE",
"463 -195 OFFCURVE",
"567 -195 CURVE SMOOTH"
);
},
{
closed = 1;
nodes = (
"295 151 OFFCURVE",
"254 229 OFFCURVE",
"254 358 CURVE SMOOTH",
"254 487 OFFCURVE",
"294 567 OFFCURVE",
"399 567 CURVE SMOOTH",
"504 567 OFFCURVE",
"542 487 OFFCURVE",
"542 358 CURVE SMOOTH",
"542 229 OFFCURVE",
"504 151 OFFCURVE",
"398 151 CURVE SMOOTH"
);
}
);
width = 797;
},
{
layerId = "0228171D-2638-482B-876E-783119597845";
name = "Light Condensed";
paths = (
{
closed = 1;
nodes = (
"424 -149 OFFCURVE",
"439 -146 OFFCURVE",
"448 -141 CURVE",
"448 -117 LINE",
"438 -122 OFFCURVE",
"424 -124 OFFCURVE",
"411 -124 CURVE SMOOTH",
"373 -124 OFFCURVE",
"358 -92 OFFCURVE",
"358 -49 CURVE SMOOTH",
"358 3 OFFCURVE",
"372 30 OFFCURVE",
"388 52 CURVE SMOOTH",
"439 120 OFFCURVE",
"457 233 OFFCURVE",
"457 358 CURVE SMOOTH",
"457 570 OFFCURVE",
"404 724 OFFCURVE",
"257 724 CURVE SMOOTH",
"126 724 OFFCURVE",
"54 602 OFFCURVE",
"54 358 CURVE SMOOTH",
"54 173 OFFCURVE",
"97 -10 OFFCURVE",
"257 -10 CURVE SMOOTH",
"290 -10 OFFCURVE",
"318 -2 OFFCURVE",
"341 11 CURVE",
"335 -5 OFFCURVE",
"332 -22 OFFCURVE",
"332 -49 CURVE SMOOTH",
"332 -109 OFFCURVE",
"360 -149 OFFCURVE",
"410 -149 CURVE SMOOTH"
);
},
{
closed = 1;
nodes = (
"143 15 OFFCURVE",
"80 141 OFFCURVE",
"80 358 CURVE SMOOTH",
"80 574 OFFCURVE",
"137 699 OFFCURVE",
"257 699 CURVE SMOOTH",
"374 699 OFFCURVE",
"431 577 OFFCURVE",
"431 358 CURVE SMOOTH",
"431 135 OFFCURVE",
"374 15 OFFCURVE",
"257 15 CURVE SMOOTH"
);
}
);
width = 511;
},
{
layerId = "5ABCF6AD-94E3-4DCD-A28A-F55CA80EA6B2";
name = Condensed;
paths = (
{
closed = 1;
nodes = (
"450 -164 OFFCURVE",
"474 -160 OFFCURVE",
"494 -153 CURVE",
"494 -93 LINE",
"480 -98 OFFCURVE",
"463 -101 OFFCURVE",
"449 -101 CURVE SMOOTH",
"413 -101 OFFCURVE",
"396 -75 OFFCURVE",
"396 -36 CURVE SMOOTH",
"396 8 OFFCURVE",
"410 32 OFFCURVE",
"428 54 CURVE SMOOTH",
"482 121 OFFCURVE",
"506 225 OFFCURVE",
"506 358 CURVE SMOOTH",
"506 581 OFFCURVE",
"437 724 OFFCURVE",
"278 724 CURVE SMOOTH",
"129 724 OFFCURVE",
"48 600 OFFCURVE",
"48 358 CURVE SMOOTH",
"48 152 OFFCURVE",
"112 -10 OFFCURVE",
"278 -10 CURVE SMOOTH",
"300 -10 OFFCURVE",
"319 -5 OFFCURVE",
"335 3 CURVE",
"327 -13 OFFCURVE",
"322 -32 OFFCURVE",
"322 -60 CURVE SMOOTH",
"322 -122 OFFCURVE",
"358 -164 OFFCURVE",
"420 -164 CURVE SMOOTH"
);
},
{
closed = 1;
nodes = (
"184 63 OFFCURVE",
"133 169 OFFCURVE",
"133 358 CURVE SMOOTH",
"133 547 OFFCURVE",
"180 652 OFFCURVE",
"278 652 CURVE SMOOTH",
"374 652 OFFCURVE",
"421 550 OFFCURVE",
"421 358 CURVE SMOOTH",
"421 163 OFFCURVE",
"374 63 OFFCURVE",
"278 63 CURVE SMOOTH"
);
}
);
width = 554;
},
{
layerId = "E419AE99-0260-44D0-87A9-BD030FD7659A";
name = "SemiBold Condensed";
paths = (
{
closed = 1;
nodes = (
"475 -179 OFFCURVE",
"507 -174 OFFCURVE",
"538 -165 CURVE",
"538 -70 LINE",
"521 -76 OFFCURVE",
"501 -78 OFFCURVE",
"485 -78 CURVE SMOOTH",
"453 -78 OFFCURVE",
"434 -58 OFFCURVE",
"434 -24 CURVE SMOOTH",
"434 12 OFFCURVE",
"447 33 OFFCURVE",
"467 57 CURVE SMOOTH",
"523 122 OFFCURVE",
"553 218 OFFCURVE",
"553 358 CURVE SMOOTH",
"553 592 OFFCURVE",
"469 725 OFFCURVE",
"299 725 CURVE SMOOTH",
"133 725 OFFCURVE",
"43 598 OFFCURVE",
"43 359 CURVE SMOOTH",
"43 132 OFFCURVE",
"126 -10 OFFCURVE",
"299 -10 CURVE SMOOTH",
"310 -10 OFFCURVE",
"321 -8 OFFCURVE",
"331 -4 CURVE",
"321 -21 OFFCURVE",
"314 -42 OFFCURVE",
"314 -71 CURVE SMOOTH",
"314 -134 OFFCURVE",
"357 -179 OFFCURVE",
"430 -179 CURVE SMOOTH"
);
},
{
closed = 1;
nodes = (
"223 110 OFFCURVE",
"184 195 OFFCURVE",
"184 358 CURVE SMOOTH",
"184 521 OFFCURVE",
"222 608 OFFCURVE",
"299 608 CURVE SMOOTH",
"374 608 OFFCURVE",
"412 525 OFFCURVE",
"412 358 CURVE SMOOTH",
"412 191 OFFCURVE",
"375 110 OFFCURVE",
"299 110 CURVE SMOOTH"
);
}
);
width = 595;
},
{
layerId = "C7A62E0A-0606-4C56-A5B0-C8EA8B1CCAFA";
name = "Bold Condensed";
paths = (
{
closed = 1;
nodes = (
"490 -188 OFFCURVE",
"528 -183 OFFCURVE",
"565 -172 CURVE",
"565 -55 LINE",
"546 -61 OFFCURVE",
"525 -64 OFFCURVE",
"508 -64 CURVE SMOOTH",
"477 -64 OFFCURVE",
"457 -48 OFFCURVE",
"457 -16 CURVE SMOOTH",
"457 15 OFFCURVE",
"470 34 OFFCURVE",
"491 58 CURVE SMOOTH",
"549 122 OFFCURVE",
"582 213 OFFCURVE",
"582 358 CURVE SMOOTH",
"582 599 OFFCURVE",
"489 725 OFFCURVE",
"311 725 CURVE SMOOTH",
"134 725 OFFCURVE",
"39 597 OFFCURVE",
"39 359 CURVE SMOOTH",
"39 119 OFFCURVE",
"135 -10 OFFCURVE",
"311 -10 CURVE SMOOTH",
"316 -10 OFFCURVE",
"322 -10 OFFCURVE",
"327 -9 CURVE",
"316 -26 OFFCURVE",
"308 -48 OFFCURVE",
"308 -78 CURVE SMOOTH",
"308 -142 OFFCURVE",
"356 -188 OFFCURVE",
"436 -188 CURVE SMOOTH"
);
},
{
closed = 1;
nodes = (
"248 139 OFFCURVE",
"216 212 OFFCURVE",
"216 358 CURVE SMOOTH",
"216 505 OFFCURVE",
"248 579 OFFCURVE",
"311 579 CURVE SMOOTH",
"374 579 OFFCURVE",
"405 509 OFFCURVE",
"405 358 CURVE SMOOTH",
"405 208 OFFCURVE",
"375 139 OFFCURVE",
"311 139 CURVE SMOOTH"
);
}
);
width = 621;
},
{
layerId = "9503992B-9F6A-43B6-8DBC-EB382B06F8D4";
name = Regular;
paths = (
{
closed = 1;
nodes = (
"663 -170 OFFCURVE",
"679 -168 OFFCURVE",
"695 -166 CURVE",
"695 -87 LINE",
"686 -90 OFFCURVE",
"672 -92 OFFCURVE",
"653 -92 CURVE SMOOTH",
"603 -92 OFFCURVE",
"576 -63 OFFCURVE",
"576 -17 CURVE SMOOTH",
"576 24 OFFCURVE",
"587 44 OFFCURVE",
"611 65 CURVE SMOOTH",
"685 129 OFFCURVE",
"720 228 OFFCURVE",
"720 358 CURVE SMOOTH",
"720 588 OFFCURVE",
"599 725 OFFCURVE",
"392 725 CURVE SMOOTH",
"179 725 OFFCURVE",
"61 591 OFFCURVE",
"61 359 CURVE SMOOTH",
"61 125 OFFCURVE",
"181 -10 OFFCURVE",
"391 -10 CURVE SMOOTH",
"424 -10 OFFCURVE",
"458 -6 OFFCURVE",
"492 2 CURVE",
"489 -13 OFFCURVE",
"488 -25 OFFCURVE",
"488 -34 CURVE SMOOTH",
"488 -116 OFFCURVE",
"551 -170 OFFCURVE",
"645 -170 CURVE SMOOTH"
);
},
{
closed = 1;
nodes = (
"237 68 OFFCURVE",
"156 169 OFFCURVE",
"156 358 CURVE SMOOTH",
"156 546 OFFCURVE",
"237 646 OFFCURVE",
"392 646 CURVE SMOOTH",
"545 646 OFFCURVE",
"625 549 OFFCURVE",
"625 358 CURVE SMOOTH",
"625 167 OFFCURVE",
"544 68 OFFCURVE",
"391 68 CURVE SMOOTH"
);
}
);
width = 781;
},
{
layerId = "2D9814BA-45F0-4FCB-8967-A366BFC6AA80";
name = SemiBold;
paths = (
{
closed = 1;
nodes = (
"645 -185 OFFCURVE",
"682 -180 OFFCURVE",
"713 -171 CURVE",
"713 -61 LINE",
"687 -69 OFFCURVE",
"662 -73 OFFCURVE",
"638 -73 CURVE SMOOTH",
"607 -73 OFFCURVE",
"585 -54 OFFCURVE",
"585 -19 CURVE SMOOTH",
"585 10 OFFCURVE",
"598 37 OFFCURVE",
"625 62 CURVE SMOOTH",
"700 132 OFFCURVE",
"738 230 OFFCURVE",
"738 358 CURVE SMOOTH",
"738 595 OFFCURVE",
"618 725 OFFCURVE",
"399 725 CURVE SMOOTH",
"180 725 OFFCURVE",
"58 597 OFFCURVE",
"58 359 CURVE SMOOTH",
"58 121 OFFCURVE",
"179 -10 OFFCURVE",
"398 -10 CURVE SMOOTH",
"415 -10 OFFCURVE",
"430 -9 OFFCURVE",
"444 -7 CURVE",
"439 -21 OFFCURVE",
"437 -37 OFFCURVE",
"437 -53 CURVE SMOOTH",
"437 -141 OFFCURVE",
"492 -185 OFFCURVE",
"601 -185 CURVE SMOOTH"
);
},
{
closed = 1;
nodes = (
"277 117 OFFCURVE",
"217 198 OFFCURVE",
"217 358 CURVE SMOOTH",
"217 518 OFFCURVE",
"278 599 OFFCURVE",
"399 599 CURVE SMOOTH",
"519 599 OFFCURVE",
"579 519 OFFCURVE",
"579 358 CURVE SMOOTH",
"579 197 OFFCURVE",
"519 117 OFFCURVE",
"398 117 CURVE SMOOTH"
);
}
);
width = 796;
}
);
note = uni10AD;
unicode = 10AD;
},
{
color = 5;
glyphname = uni10AE;
lastChange = "2015-09-22 12:09:46 +0000";
layers = (
{
layerId = "F1E1AA8A-A3F5-4941-B4E6-C7B9A7EBF3CF";
name = Light;
paths = (
{
closed = 1;
nodes = (
"598 -10 OFFCURVE",
"706 74 OFFCURVE",
"706 252 CURVE SMOOTH",
"706 714 LINE",
"680 714 LINE",
"680 244 LINE SMOOTH",
"680 92 OFFCURVE",
"586 15 OFFCURVE",
"444 15 CURVE SMOOTH",
"295 15 OFFCURVE",
"209 96 OFFCURVE",
"209 256 CURVE SMOOTH",
"209 714 LINE",
"20 714 LINE",
"20 689 LINE",
"183 689 LINE",
"183 254 LINE SMOOTH",
"183 81 OFFCURVE",
"278 -10 OFFCURVE",
"443 -10 CURVE SMOOTH"
);
}
);
width = 800;
},
{
layerId = "29BFE51A-F5BD-45F8-BEBC-9AD34273B132";
name = Bold;
paths = (
{
closed = 1;
nodes = (
"662 -10 OFFCURVE",
"764 104 OFFCURVE",
"764 284 CURVE SMOOTH",
"764 714 LINE",
"571 714 LINE",
"571 296 LINE SMOOTH",
"571 194 OFFCURVE",
"538 151 OFFCURVE",
"459 151 CURVE SMOOTH",
"385 151 OFFCURVE",
"347 194 OFFCURVE",
"347 295 CURVE SMOOTH",
"347 714 LINE",
"25 714 LINE",
"25 556 LINE",
"153 556 LINE",
"153 280 LINE SMOOTH",
"153 95 OFFCURVE",
"259 -10 OFFCURVE",
"456 -10 CURVE SMOOTH"
);
}
);
width = 837;
},
{
layerId = "0228171D-2638-482B-876E-783119597845";
name = "Light Condensed";
paths = (
{
closed = 1;
nodes = (
"381 -10 OFFCURVE",
"457 42 OFFCURVE",
"457 217 CURVE SMOOTH",
"457 714 LINE",
"431 714 LINE",
"431 221 LINE SMOOTH",
"431 63 OFFCURVE",
"371 15 OFFCURVE",
"286 15 CURVE SMOOTH",
"195 15 OFFCURVE",
"141 71 OFFCURVE",
"141 221 CURVE SMOOTH",
"141 714 LINE",
"10 714 LINE",
"10 689 LINE",
"115 689 LINE",
"115 217 LINE SMOOTH",
"115 59 OFFCURVE",
"176 -10 OFFCURVE",
"286 -10 CURVE SMOOTH"
);
}
);
width = 528;
},
{
layerId = "5ABCF6AD-94E3-4DCD-A28A-F55CA80EA6B2";
name = Condensed;
paths = (
{
closed = 1;
nodes = (
"431 -10 OFFCURVE",
"510 56 OFFCURVE",
"510 227 CURVE SMOOTH",
"510 714 LINE",
"428 714 LINE",
"428 231 LINE SMOOTH",
"428 104 OFFCURVE",
"383 63 OFFCURVE",
"313 63 CURVE SMOOTH",
"240 63 OFFCURVE",
"198 109 OFFCURVE",
"198 231 CURVE SMOOTH",
"198 714 LINE",
"14 714 LINE",
"14 641 LINE",
"115 641 LINE",
"115 225 LINE SMOOTH",
"115 64 OFFCURVE",
"185 -10 OFFCURVE",
"312 -10 CURVE SMOOTH"
);
}
);
width = 575;
},
{
layerId = "E419AE99-0260-44D0-87A9-BD030FD7659A";
name = "SemiBold Condensed";
paths = (
{
closed = 1;
nodes = (
"478 -10 OFFCURVE",
"561 69 OFFCURVE",
"561 236 CURVE SMOOTH",
"561 714 LINE",
"425 714 LINE",
"425 241 LINE SMOOTH",
"425 142 OFFCURVE",
"395 110 OFFCURVE",
"338 110 CURVE SMOOTH",
"282 110 OFFCURVE",
"252 145 OFFCURVE",
"252 240 CURVE SMOOTH",
"252 714 LINE",
"18 714 LINE",
"18 596 LINE",
"116 596 LINE",
"116 233 LINE SMOOTH",
"116 69 OFFCURVE",
"195 -10 OFFCURVE",
"337 -10 CURVE SMOOTH"
);
}
);
width = 619;
},
{
layerId = "C7A62E0A-0606-4C56-A5B0-C8EA8B1CCAFA";
name = "Bold Condensed";
paths = (
{
closed = 1;
nodes = (
"508 -10 OFFCURVE",
"593 77 OFFCURVE",
"593 242 CURVE SMOOTH",
"593 714 LINE",
"423 714 LINE",
"423 247 LINE SMOOTH",
"423 167 OFFCURVE",
"402 139 OFFCURVE",
"354 139 CURVE SMOOTH",
"309 139 OFFCURVE",
"286 168 OFFCURVE",
"286 246 CURVE SMOOTH",
"286 714 LINE",
"20 714 LINE",
"20 567 LINE",
"116 567 LINE",
"116 238 LINE SMOOTH",
"116 72 OFFCURVE",
"200 -10 OFFCURVE",
"352 -10 CURVE SMOOTH"
);
}
);
width = 648;
},
{
layerId = "9503992B-9F6A-43B6-8DBC-EB382B06F8D4";
name = Regular;
paths = (
{
closed = 1;
nodes = (
"621 -10 OFFCURVE",
"720 90 OFFCURVE",
"720 254 CURVE SMOOTH",
"720 714 LINE",
"630 714 LINE",
"630 251 LINE SMOOTH",
"630 134 OFFCURVE",
"568 68 OFFCURVE",
"443 68 CURVE SMOOTH",
"324 68 OFFCURVE",
"259 135 OFFCURVE",
"259 252 CURVE SMOOTH",
"259 714 LINE",
"20 714 LINE",
"20 636 LINE",
"170 636 LINE",
"170 252 LINE SMOOTH",
"170 88 OFFCURVE",
"274 -10 OFFCURVE",
"448 -10 CURVE SMOOTH"
);
}
);
width = 810;
},
{
layerId = "2D9814BA-45F0-4FCB-8967-A366BFC6AA80";
name = SemiBold;
paths = (
{
closed = 1;
nodes = (
"624 -10 OFFCURVE",
"744 82 OFFCURVE",
"744 252 CURVE SMOOTH",
"744 714 LINE",
"593 714 LINE",
"593 278 LINE SMOOTH",
"593 167 OFFCURVE",
"550 117 OFFCURVE",
"452 117 CURVE SMOOTH",
"350 117 OFFCURVE",
"309 167 OFFCURVE",
"309 277 CURVE SMOOTH",
"309 714 LINE",
"20 714 LINE",
"20 590 LINE",
"158 590 LINE",
"158 254 LINE SMOOTH",
"158 89 OFFCURVE",
"265 -10 OFFCURVE",
"448 -10 CURVE SMOOTH"
);
}
);
width = 829;
}
);
note = uni10AE;
unicode = 10AE;
},
{
color = 5;
glyphname = uni10AF;
lastChange = "2015-09-22 12:09:46 +0000";
layers = (
{
layerId = "F1E1AA8A-A3F5-4941-B4E6-C7B9A7EBF3CF";
name = Light;
paths = (
{
closed = 1;
nodes = (
"577 0 LINE",
"577 714 LINE",
"551 714 LINE",
"551 486 LINE SMOOTH",
"551 313 OFFCURVE",
"449 248 OFFCURVE",
"339 248 CURVE SMOOTH",
"230 248 OFFCURVE",
"156 317 OFFCURVE",
"156 457 CURVE SMOOTH",
"156 554 OFFCURVE",
"185 634 OFFCURVE",
"250 714 CURVE",
"20 714 LINE",
"20 689 LINE",
"199 689 LINE",
"156 624 OFFCURVE",
"129 546 OFFCURVE",
"129 457 CURVE SMOOTH",
"129 303 OFFCURVE",
"213 221 OFFCURVE",
"339 221 CURVE SMOOTH",
"432 221 OFFCURVE",
"515 270 OFFCURVE",
"549 353 CURVE",
"554 353 LINE",
"553 333 OFFCURVE",
"551 293 OFFCURVE",
"551 248 CURVE SMOOTH",
"551 0 LINE"
);
}
);
width = 680;
},
{
layerId = "29BFE51A-F5BD-45F8-BEBC-9AD34273B132";
name = Bold;
paths = (
{
closed = 1;
nodes = (
"741 0 LINE",
"741 714 LINE",
"547 714 LINE",
"547 528 LINE SMOOTH",
"547 415 OFFCURVE",
"499 360 OFFCURVE",
"422 360 CURVE SMOOTH",
"354 360 OFFCURVE",
"313 396 OFFCURVE",
"313 473 CURVE SMOOTH",
"313 555 OFFCURVE",
"337 640 OFFCURVE",
"380 714 CURVE",
"25 714 LINE",
"25 556 LINE",
"132 556 LINE",
"124 526 OFFCURVE",
"119 492 OFFCURVE",
"119 456 CURVE SMOOTH",
"119 295 OFFCURVE",
"212 203 OFFCURVE",
"363 203 CURVE SMOOTH",
"449 203 OFFCURVE",
"513 238 OFFCURVE",
"551 290 CURVE",
"556 290 LINE",
"549 231 OFFCURVE",
"547 179 OFFCURVE",
"547 133 CURVE SMOOTH",
"547 0 LINE"
);
}
);
width = 818;
},
{
layerId = "0228171D-2638-482B-876E-783119597845";
name = "Light Condensed";
paths = (
{
closed = 1;
nodes = (
"389 0 LINE",
"389 714 LINE",
"363 714 LINE",
"363 484 LINE SMOOTH",
"363 300 OFFCURVE",
"305 243 OFFCURVE",
"227 243 CURVE SMOOTH",
"144 243 OFFCURVE",
"107 327 OFFCURVE",
"107 450 CURVE SMOOTH",
"107 559 OFFCURVE",
"128 635 OFFCURVE",
"161 714 CURVE",
"10 714 LINE",
"10 689 LINE",
"123 689 LINE",
"95 617 OFFCURVE",
"80 543 OFFCURVE",
"80 450 CURVE SMOOTH",
"80 304 OFFCURVE",
"133 218 OFFCURVE",
"227 218 CURVE SMOOTH",
"292 218 OFFCURVE",
"341 255 OFFCURVE",
"363 333 CURVE",
"365 333 LINE",
"364 311 OFFCURVE",
"363 263 OFFCURVE",
"363 218 CURVE SMOOTH",
"363 0 LINE"
);
}
);
width = 467;
},
{
layerId = "5ABCF6AD-94E3-4DCD-A28A-F55CA80EA6B2";
name = Condensed;
paths = (
{
closed = 1;
nodes = (
"473 0 LINE",
"473 714 LINE",
"390 714 LINE",
"390 501 LINE SMOOTH",
"390 341 OFFCURVE",
"342 283 OFFCURVE",
"273 283 CURVE SMOOTH",
"203 283 OFFCURVE",
"169 350 OFFCURVE",
"169 459 CURVE SMOOTH",
"169 561 OFFCURVE",
"188 638 OFFCURVE",
"219 714 CURVE",
"14 714 LINE",
"14 641 LINE",
"115 641 LINE",
"95 583 OFFCURVE",
"84 524 OFFCURVE",
"84 452 CURVE SMOOTH",
"84 306 OFFCURVE",
"147 214 OFFCURVE",
"250 214 CURVE SMOOTH",
"319 214 OFFCURVE",
"365 250 OFFCURVE",
"391 322 CURVE",
"395 322 LINE",
"392 288 OFFCURVE",
"390 241 OFFCURVE",
"390 198 CURVE SMOOTH",
"390 0 LINE"
);
}
);
width = 543;
},
{
layerId = "E419AE99-0260-44D0-87A9-BD030FD7659A";
name = "SemiBold Condensed";
paths = (
{
closed = 1;
nodes = (
"552 0 LINE",
"552 714 LINE",
"417 714 LINE",
"417 517 LINE SMOOTH",
"417 380 OFFCURVE",
"377 321 OFFCURVE",
"317 321 CURVE SMOOTH",
"259 321 OFFCURVE",
"228 372 OFFCURVE",
"228 468 CURVE SMOOTH",
"228 562 OFFCURVE",
"245 641 OFFCURVE",
"274 714 CURVE",
"18 714 LINE",
"18 596 LINE",
"108 596 LINE",
"95 551 OFFCURVE",
"88 506 OFFCURVE",
"88 455 CURVE SMOOTH",
"88 308 OFFCURVE",
"160 211 OFFCURVE",
"272 211 CURVE SMOOTH",
"344 211 OFFCURVE",
"389 246 OFFCURVE",
"418 312 CURVE",
"423 312 LINE",
"419 265 OFFCURVE",
"417 220 OFFCURVE",
"417 179 CURVE SMOOTH",
"417 0 LINE"
);
}
);
width = 616;
},
{
layerId = "C7A62E0A-0606-4C56-A5B0-C8EA8B1CCAFA";
name = "Bold Condensed";
paths = (
{
closed = 1;
nodes = (
"603 0 LINE",
"603 714 LINE",
"433 714 LINE",
"433 527 LINE SMOOTH",
"433 405 OFFCURVE",
"399 345 OFFCURVE",
"345 345 CURVE SMOOTH",
"294 345 OFFCURVE",
"265 386 OFFCURVE",
"265 473 CURVE SMOOTH",
"265 563 OFFCURVE",
"281 643 OFFCURVE",
"309 714 CURVE",
"20 714 LINE",
"20 567 LINE",
"103 567 LINE",
"94 530 OFFCURVE",
"90 494 OFFCURVE",
"90 456 CURVE SMOOTH",
"90 309 OFFCURVE",
"168 209 OFFCURVE",
"286 209 CURVE SMOOTH",
"360 209 OFFCURVE",
"403 243 OFFCURVE",
"435 305 CURVE",
"441 305 LINE",
"436 251 OFFCURVE",
"433 206 OFFCURVE",
"433 167 CURVE SMOOTH",
"433 0 LINE"
);
}
);
width = 662;
},
{
layerId = "9503992B-9F6A-43B6-8DBC-EB382B06F8D4";
name = Regular;
paths = (
{
closed = 1;
nodes = (
"641 0 LINE",
"641 714 LINE",
"551 714 LINE",
"551 507 LINE SMOOTH",
"551 358 OFFCURVE",
"492 293 OFFCURVE",
"364 293 CURVE SMOOTH",
"262 293 OFFCURVE",
"211 352 OFFCURVE",
"211 469 CURVE SMOOTH",
"211 561 OFFCURVE",
"248 659 OFFCURVE",
"295 714 CURVE",
"20 714 LINE",
"20 636 LINE",
"150 636 LINE",
"127 580 OFFCURVE",
"116 524 OFFCURVE",
"116 470 CURVE SMOOTH",
"116 308 OFFCURVE",
"200 215 OFFCURVE",
"346 215 CURVE SMOOTH",
"432 215 OFFCURVE",
"511 254 OFFCURVE",
"550 312 CURVE",
"555 312 LINE",
"552 280 OFFCURVE",
"550 252 OFFCURVE",
"550 214 CURVE SMOOTH",
"550 0 LINE"
);
}
);
width = 739;
},
{
layerId = "2D9814BA-45F0-4FCB-8967-A366BFC6AA80";
name = SemiBold;
paths = (
{
closed = 1;
nodes = (
"700 0 LINE",
"700 714 LINE",
"549 714 LINE",
"549 527 LINE SMOOTH",
"549 401 OFFCURVE",
"500 338 OFFCURVE",
"398 338 CURVE SMOOTH",
"307 338 OFFCURVE",
"265 382 OFFCURVE",
"265 489 CURVE SMOOTH",
"265 574 OFFCURVE",
"292 659 OFFCURVE",
"332 714 CURVE",
"20 714 LINE",
"20 589 LINE",
"125 589 LINE",
"114 549 OFFCURVE",
"109 514 OFFCURVE",
"109 482 CURVE SMOOTH",
"109 313 OFFCURVE",
"201 212 OFFCURVE",
"354 212 CURVE SMOOTH",
"441 212 OFFCURVE",
"511 247 OFFCURVE",
"551 311 CURVE",
"556 311 LINE",
"551 256 OFFCURVE",
"549 213 OFFCURVE",
"549 182 CURVE SMOOTH",
"549 0 LINE"
);
}
);
width = 790;
}
);
note = uni10AF;
unicode = 10AF;
},
{
color = 5;
glyphname = uni10B0;
lastChange = "2015-09-22 12:09:46 +0000";
layers = (
{
layerId = "F1E1AA8A-A3F5-4941-B4E6-C7B9A7EBF3CF";
name = Light;
paths = (
{
closed = 1;
nodes = (
"433 -10 OFFCURVE",
"501 87 OFFCURVE",
"501 250 CURVE SMOOTH",
"501 368 LINE",
"628 368 LINE",
"628 224 LINE",
"654 224 LINE",
"654 393 LINE",
"501 393 LINE",
"501 714 LINE",
"475 714 LINE",
"475 250 LINE SMOOTH",
"475 92 OFFCURVE",
"406 16 OFFCURVE",
"279 16 CURVE SMOOTH",
"152 16 OFFCURVE",
"76 94 OFFCURVE",
"76 247 CURVE SMOOTH",
"76 255 LINE",
"50 255 LINE",
"50 247 LINE SMOOTH",
"50 90 OFFCURVE",
"129 -10 OFFCURVE",
"279 -10 CURVE SMOOTH"
);
}
);
width = 684;
},
{
layerId = "29BFE51A-F5BD-45F8-BEBC-9AD34273B132";
name = Bold;
paths = (
{
closed = 1;
nodes = (
"522 -10 OFFCURVE",
"623 94 OFFCURVE",
"623 280 CURVE SMOOTH",
"623 301 LINE",
"684 301 LINE",
"684 202 LINE",
"851 202 LINE",
"851 458 LINE",
"623 458 LINE",
"623 714 LINE",
"429 714 LINE",
"429 293 LINE SMOOTH",
"429 194 OFFCURVE",
"392 151 OFFCURVE",
"321 151 CURVE SMOOTH",
"250 151 OFFCURVE",
"216 194 OFFCURVE",
"216 278 CURVE SMOOTH",
"216 285 LINE",
"25 285 LINE",
"25 266 LINE SMOOTH",
"25 96 OFFCURVE",
"130 -10 OFFCURVE",
"326 -10 CURVE SMOOTH"
);
}
);
width = 876;
},
{
layerId = "0228171D-2638-482B-876E-783119597845";
name = "Light Condensed";
paths = (
{
closed = 1;
nodes = (
"313 -10 OFFCURVE",
"352 86 OFFCURVE",
"352 250 CURVE SMOOTH",
"352 368 LINE",
"448 368 LINE",
"448 224 LINE",
"474 224 LINE",
"474 393 LINE",
"352 393 LINE",
"352 714 LINE",
"326 714 LINE",
"326 250 LINE SMOOTH",
"326 88 OFFCURVE",
"287 15 OFFCURVE",
"204 15 CURVE SMOOTH",
"121 15 OFFCURVE",
"76 87 OFFCURVE",
"76 248 CURVE SMOOTH",
"76 257 LINE",
"50 257 LINE",
"50 247 LINE SMOOTH",
"50 87 OFFCURVE",
"94 -10 OFFCURVE",
"205 -10 CURVE SMOOTH"
);
}
);
width = 504;
},
{
layerId = "5ABCF6AD-94E3-4DCD-A28A-F55CA80EA6B2";
name = Condensed;
paths = (
{
closed = 1;
nodes = (
"355 -10 OFFCURVE",
"411 83 OFFCURVE",
"411 254 CURVE SMOOTH",
"411 349 LINE",
"490 349 LINE",
"490 215 LINE",
"564 215 LINE",
"564 418 LINE",
"411 418 LINE",
"411 714 LINE",
"329 714 LINE",
"329 259 LINE SMOOTH",
"329 126 OFFCURVE",
"298 63 OFFCURVE",
"226 63 CURVE SMOOTH",
"156 63 OFFCURVE",
"120 126 OFFCURVE",
"120 258 CURVE SMOOTH",
"120 268 LINE",
"38 268 LINE",
"38 252 LINE SMOOTH",
"38 84 OFFCURVE",
"102 -10 OFFCURVE",
"228 -10 CURVE SMOOTH"
);
}
);
width = 590;
},
{
layerId = "E419AE99-0260-44D0-87A9-BD030FD7659A";
name = "SemiBold Condensed";
paths = (
{
closed = 1;
nodes = (
"395 -10 OFFCURVE",
"468 81 OFFCURVE",
"468 258 CURVE SMOOTH",
"468 331 LINE",
"530 331 LINE",
"530 207 LINE",
"650 207 LINE",
"650 443 LINE",
"468 443 LINE",
"468 714 LINE",
"332 714 LINE",
"332 268 LINE SMOOTH",
"332 162 OFFCURVE",
"308 110 OFFCURVE",
"248 110 CURVE SMOOTH",
"189 110 OFFCURVE",
"163 163 OFFCURVE",
"163 267 CURVE SMOOTH",
"163 278 LINE",
"27 278 LINE",
"27 257 LINE SMOOTH",
"27 81 OFFCURVE",
"110.006 -10 OFFCURVE",
"250 -10 CURVE SMOOTH"
);
}
);
width = 672;
},
{
layerId = "C7A62E0A-0606-4C56-A5B0-C8EA8B1CCAFA";
name = "Bold Condensed";
paths = (
{
closed = 1;
nodes = (
"421 -10 OFFCURVE",
"504 79 OFFCURVE",
"504 260 CURVE SMOOTH",
"504 319 LINE",
"556 319 LINE",
"556 202 LINE",
"705 202 LINE",
"705 458 LINE",
"504 458 LINE",
"504 714 LINE",
"334 714 LINE",
"334 273 LINE SMOOTH",
"334 185 OFFCURVE",
"315 139 OFFCURVE",
"262 139 CURVE SMOOTH",
"211 139 OFFCURVE",
"190 187 OFFCURVE",
"190 273 CURVE SMOOTH",
"190 285 LINE",
"20 285 LINE",
"20 260 LINE SMOOTH",
"20 79 OFFCURVE",
"115 -10 OFFCURVE",
"264 -10 CURVE SMOOTH"
);
}
);
width = 725;
},
{
layerId = "9503992B-9F6A-43B6-8DBC-EB382B06F8D4";
name = Regular;
paths = (
{
closed = 1;
nodes = (
"457 -10 OFFCURVE",
"548 86 OFFCURVE",
"548 252 CURVE SMOOTH",
"548 339 LINE",
"649 339 LINE",
"649 224 LINE",
"735 224 LINE",
"735 417 LINE",
"548 417 LINE",
"548 714 LINE",
"458 714 LINE",
"458 252 LINE SMOOTH",
"458 129 OFFCURVE",
"404 68 OFFCURVE",
"296 68 CURVE SMOOTH",
"185 68 OFFCURVE",
"130 134 OFFCURVE",
"130 251 CURVE SMOOTH",
"130 264 LINE",
"40 264 LINE",
"40 254 LINE SMOOTH",
"40 87 OFFCURVE",
"133 -10 OFFCURVE",
"297 -10 CURVE SMOOTH"
);
}
);
width = 765;
},
{
layerId = "2D9814BA-45F0-4FCB-8967-A366BFC6AA80";
name = SemiBold;
paths = (
{
closed = 1;
nodes = (
"485 -10 OFFCURVE",
"587 89 OFFCURVE",
"587 254 CURVE SMOOTH",
"587 316 LINE",
"665 316 LINE",
"665 202 LINE",
"803 202 LINE",
"803 440 LINE",
"587 440 LINE",
"587 714 LINE",
"436 714 LINE",
"436 265 LINE SMOOTH",
"436 164 OFFCURVE",
"396 117 OFFCURVE",
"305 117 CURVE SMOOTH",
"214 117 OFFCURVE",
"176 167 OFFCURVE",
"176 265 CURVE SMOOTH",
"176 274 LINE",
"25 274 LINE",
"25 252 LINE SMOOTH",
"25 85 OFFCURVE",
"139 -10 OFFCURVE",
"309 -10 CURVE SMOOTH"
);
}
);
width = 828;
}
);
note = uni10B0;
unicode = 10B0;
},
{
color = 5;
glyphname = uni10B1;
lastChange = "2015-09-22 12:09:46 +0000";
layers = (
{
layerId = "F1E1AA8A-A3F5-4941-B4E6-C7B9A7EBF3CF";
name = Light;
paths = (
{
closed = 1;
nodes = (
"467 -10 OFFCURVE",
"550 90 OFFCURVE",
"550 247 CURVE SMOOTH",
"550 255 LINE",
"524 255 LINE",
"524 247 LINE SMOOTH",
"524 94 OFFCURVE",
"446 16 OFFCURVE",
"319 16 CURVE SMOOTH",
"192 16 OFFCURVE",
"125 92 OFFCURVE",
"125 250 CURVE SMOOTH",
"125 714 LINE",
"99 714 LINE",
"99 250 LINE SMOOTH",
"99 87 OFFCURVE",
"165 -10 OFFCURVE",
"319 -10 CURVE SMOOTH"
);
}
);
width = 600;
},
{
layerId = "29BFE51A-F5BD-45F8-BEBC-9AD34273B132";
name = Bold;
paths = (
{
closed = 1;
nodes = (
"566 -10 OFFCURVE",
"671 96 OFFCURVE",
"671 266 CURVE SMOOTH",
"671 285 LINE",
"480 285 LINE",
"480 278 LINE SMOOTH",
"480 194 OFFCURVE",
"446 151 OFFCURVE",
"375 151 CURVE SMOOTH",
"304 151 OFFCURVE",
"267 194 OFFCURVE",
"267 293 CURVE SMOOTH",
"267 714 LINE",
"73 714 LINE",
"73 280 LINE SMOOTH",
"73 94 OFFCURVE",
"174 -10 OFFCURVE",
"370 -10 CURVE SMOOTH"
);
}
);
width = 696;
},
{
layerId = "0228171D-2638-482B-876E-783119597845";
name = "Light Condensed";
paths = (
{
closed = 1;
nodes = (
"328 -10 OFFCURVE",
"374 87 OFFCURVE",
"374 247 CURVE SMOOTH",
"374 257 LINE",
"348 257 LINE",
"348 248 LINE SMOOTH",
"348 87 OFFCURVE",
"304 15 OFFCURVE",
"219 15 CURVE SMOOTH",
"137 15 OFFCURVE",
"98 86 OFFCURVE",
"98 250 CURVE SMOOTH",
"98 714 LINE",
"72 714 LINE",
"72 250 LINE SMOOTH",
"72 86 OFFCURVE",
"111 -10 OFFCURVE",
"219 -10 CURVE SMOOTH"
);
}
);
width = 424;
},
{
layerId = "5ABCF6AD-94E3-4DCD-A28A-F55CA80EA6B2";
name = Condensed;
paths = (
{
closed = 1;
nodes = (
"373 -10 OFFCURVE",
"438 84 OFFCURVE",
"438 252 CURVE SMOOTH",
"438 268 LINE",
"356 268 LINE",
"356 258 LINE SMOOTH",
"356 126 OFFCURVE",
"321 63 OFFCURVE",
"249 63 CURVE SMOOTH",
"178 63 OFFCURVE",
"147 125 OFFCURVE",
"147 259 CURVE SMOOTH",
"147 714 LINE",
"65 714 LINE",
"65 254 LINE SMOOTH",
"65 83 OFFCURVE",
"120 -10 OFFCURVE",
"248 -10 CURVE SMOOTH"
);
}
);
width = 477;
},
{
layerId = "E419AE99-0260-44D0-87A9-BD030FD7659A";
name = "SemiBold Condensed";
paths = (
{
closed = 1;
nodes = (
"416 -10 OFFCURVE",
"500 81 OFFCURVE",
"500 257 CURVE SMOOTH",
"500 278 LINE",
"364 278 LINE",
"364 267 LINE SMOOTH",
"364 163 OFFCURVE",
"337 110 OFFCURVE",
"278 110 CURVE SMOOTH",
"219 110 OFFCURVE",
"195 161 OFFCURVE",
"195 268 CURVE SMOOTH",
"195 714 LINE",
"59 714 LINE",
"59 258 LINE SMOOTH",
"59 81 OFFCURVE",
"130 -10 OFFCURVE",
"277 -10 CURVE SMOOTH"
);
}
);
width = 527;
},
{
layerId = "C7A62E0A-0606-4C56-A5B0-C8EA8B1CCAFA";
name = "Bold Condensed";
paths = (
{
closed = 1;
nodes = (
"444 -10 OFFCURVE",
"539 79 OFFCURVE",
"539 260 CURVE SMOOTH",
"539 285 LINE",
"369 285 LINE",
"369 273 LINE SMOOTH",
"369 187 OFFCURVE",
"348 139 OFFCURVE",
"297 139 CURVE SMOOTH",
"244 139 OFFCURVE",
"225 185 OFFCURVE",
"225 273 CURVE SMOOTH",
"225 714 LINE",
"55 714 LINE",
"55 260 LINE SMOOTH",
"55 79 OFFCURVE",
"136 -10 OFFCURVE",
"295 -10 CURVE SMOOTH"
);
}
);
width = 559;
},
{
layerId = "9503992B-9F6A-43B6-8DBC-EB382B06F8D4";
name = Regular;
paths = (
{
closed = 1;
nodes = (
"505 -10 OFFCURVE",
"598 89 OFFCURVE",
"598 254 CURVE SMOOTH",
"598 264 LINE",
"508 264 LINE",
"508 251 LINE SMOOTH",
"508 134 OFFCURVE",
"453 68 OFFCURVE",
"342 68 CURVE SMOOTH",
"234 68 OFFCURVE",
"180 129 OFFCURVE",
"180 252 CURVE SMOOTH",
"180 714 LINE",
"90 714 LINE",
"90 252 LINE SMOOTH",
"90 82 OFFCURVE",
"178 -10 OFFCURVE",
"341 -10 CURVE SMOOTH"
);
}
);
width = 638;
},
{
layerId = "2D9814BA-45F0-4FCB-8967-A366BFC6AA80";
name = SemiBold;
paths = (
{
closed = 1;
nodes = (
"531 -10 OFFCURVE",
"647 82 OFFCURVE",
"647 252 CURVE SMOOTH",
"647 284 LINE",
"496 284 LINE",
"496 265 LINE SMOOTH",
"496 166 OFFCURVE",
"458 117 OFFCURVE",
"367 117 CURVE SMOOTH",
"275 117 OFFCURVE",
"236 164 OFFCURVE",
"236 265 CURVE SMOOTH",
"236 714 LINE",
"85 714 LINE",
"85 254 LINE SMOOTH",
"85 90 OFFCURVE",
"188 -10 OFFCURVE",
"363 -10 CURVE SMOOTH"
);
}
);
width = 672;
}
);
note = uni10B1;
unicode = 10B1;
},
{
color = 5;
glyphname = uni10B2;
lastChange = "2015-09-22 12:09:46 +0000";
layers = (
{
layerId = "F1E1AA8A-A3F5-4941-B4E6-C7B9A7EBF3CF";
name = Light;
paths = (
{
closed = 1;
nodes = (
"502 0 LINE",
"502 25 LINE",
"129 25 LINE",
"129 305 LINE",
"256 305 LINE SMOOTH",
"414 305 OFFCURVE",
"516 364 OFFCURVE",
"516 519 CURVE SMOOTH",
"516 658 OFFCURVE",
"429 714 OFFCURVE",
"270 714 CURVE SMOOTH",
"103 714 LINE",
"103 0 LINE"
);
},
{
closed = 1;
nodes = (
"129 689 LINE",
"266 689 LINE SMOOTH",
"418 689 OFFCURVE",
"489 639 OFFCURVE",
"489 518 CURVE SMOOTH",
"489 372 OFFCURVE",
"394 330 OFFCURVE",
"254 330 CURVE SMOOTH",
"129 330 LINE"
);
}
);
width = 573;
},
{
layerId = "29BFE51A-F5BD-45F8-BEBC-9AD34273B132";
name = Bold;
paths = (
{
closed = 1;
nodes = (
"561 0 LINE",
"561 156 LINE",
"270 156 LINE",
"270 237 LINE",
"324 237 LINE SMOOTH",
"527 237 OFFCURVE",
"595 357 OFFCURVE",
"595 487 CURVE SMOOTH",
"595 632 OFFCURVE",
"505 714 OFFCURVE",
"324 714 CURVE SMOOTH",
"77 714 LINE",
"77 0 LINE"
);
},
{
closed = 1;
nodes = (
"270 558 LINE",
"320 558 LINE SMOOTH",
"376 558 OFFCURVE",
"402 527 OFFCURVE",
"402 482 CURVE SMOOTH",
"402 417 OFFCURVE",
"358 394 OFFCURVE",
"308 394 CURVE SMOOTH",
"270 394 LINE"
);
}
);
width = 632;
},
{
layerId = "0228171D-2638-482B-876E-783119597845";
name = "Light Condensed";
paths = (
{
closed = 1;
nodes = (
"351 0 LINE",
"351 25 LINE",
"104 25 LINE",
"104 306 LINE",
"172 306 LINE SMOOTH",
"303 306 OFFCURVE",
"362 366 OFFCURVE",
"362 519 CURVE SMOOTH",
"362 663 OFFCURVE",
"300 714 OFFCURVE",
"172 714 CURVE SMOOTH",
"78 714 LINE",
"78 0 LINE"
);
},
{
closed = 1;
nodes = (
"104 689 LINE",
"171 689 LINE SMOOTH",
"282 689 OFFCURVE",
"335 645 OFFCURVE",
"335 520 CURVE SMOOTH",
"335 385 OFFCURVE",
"285 331 OFFCURVE",
"178 331 CURVE SMOOTH",
"104 331 LINE"
);
}
);
width = 395;
},
{
layerId = "5ABCF6AD-94E3-4DCD-A28A-F55CA80EA6B2";
name = Condensed;
paths = (
{
closed = 1;
nodes = (
"395 0 LINE",
"395 73 LINE",
"153 73 LINE",
"153 279 LINE",
"208 279 LINE SMOOTH",
"349 279 OFFCURVE",
"413 357 OFFCURVE",
"413 507 CURVE SMOOTH",
"413 651 OFFCURVE",
"346 714 OFFCURVE",
"211 714 CURVE SMOOTH",
"71 714 LINE",
"71 0 LINE"
);
},
{
closed = 1;
nodes = (
"153 643 LINE",
"204 643 LINE SMOOTH",
"289 643 OFFCURVE",
"330 605 OFFCURVE",
"330 507 CURVE SMOOTH",
"330 395 OFFCURVE",
"288 351 OFFCURVE",
"204 351 CURVE SMOOTH",
"153 351 LINE"
);
}
);
width = 444;
},
{
layerId = "E419AE99-0260-44D0-87A9-BD030FD7659A";
name = "SemiBold Condensed";
paths = (
{
closed = 1;
nodes = (
"437 0 LINE",
"437 118 LINE",
"200 118 LINE",
"200 253 LINE",
"241 253 LINE SMOOTH",
"393 253 OFFCURVE",
"462 349 OFFCURVE",
"462 495 CURVE SMOOTH",
"462 639 OFFCURVE",
"390 714 OFFCURVE",
"248 714 CURVE SMOOTH",
"64 714 LINE",
"64 0 LINE"
);
},
{
closed = 1;
nodes = (
"199 598 LINE",
"235 598 LINE SMOOTH",
"295 598 OFFCURVE",
"325 566 OFFCURVE",
"325 494 CURVE SMOOTH",
"325 404 OFFCURVE",
"289 369 OFFCURVE",
"228 369 CURVE SMOOTH",
"199 369 LINE"
);
}
);
width = 490;
},
{
layerId = "C7A62E0A-0606-4C56-A5B0-C8EA8B1CCAFA";
name = "Bold Condensed";
paths = (
{
closed = 1;
nodes = (
"463 0 LINE",
"463 147 LINE",
"229 147 LINE",
"229 237 LINE",
"262 237 LINE SMOOTH",
"420 237 OFFCURVE",
"492 344 OFFCURVE",
"492 487 CURVE SMOOTH",
"492 632 OFFCURVE",
"418 714 OFFCURVE",
"271 714 CURVE SMOOTH",
"59 714 LINE",
"59 0 LINE"
);
},
{
closed = 1;
nodes = (
"229 570 LINE",
"255 570 LINE SMOOTH",
"300 570 OFFCURVE",
"322 542 OFFCURVE",
"322 486 CURVE SMOOTH",
"322 410 OFFCURVE",
"291 381 OFFCURVE",
"244 381 CURVE SMOOTH",
"229 381 LINE"
);
}
);
width = 520;
},
{
layerId = "9503992B-9F6A-43B6-8DBC-EB382B06F8D4";
name = Regular;
paths = (
{
closed = 1;
nodes = (
"527 0 LINE",
"527 78 LINE",
"188 78 LINE",
"188 278 LINE",
"270 278 LINE SMOOTH",
"451 278 OFFCURVE",
"555 358 OFFCURVE",
"555 504 CURVE SMOOTH",
"555 644 OFFCURVE",
"466 714 OFFCURVE",
"287 714 CURVE SMOOTH",
"98 714 LINE",
"98 0 LINE"
);
},
{
closed = 1;
nodes = (
"188 637 LINE",
"279 637 LINE SMOOTH",
"404 637 OFFCURVE",
"462 592 OFFCURVE",
"462 500 CURVE SMOOTH",
"462 398 OFFCURVE",
"402 355 OFFCURVE",
"260 355 CURVE SMOOTH",
"188 355 LINE"
);
}
);
width = 606;
},
{
layerId = "2D9814BA-45F0-4FCB-8967-A366BFC6AA80";
name = SemiBold;
paths = (
{
closed = 1;
nodes = (
"549 0 LINE",
"549 126 LINE",
"241 126 LINE",
"241 254 LINE",
"306 254 LINE SMOOTH",
"483 254 OFFCURVE",
"583 337 OFFCURVE",
"583 491 CURVE SMOOTH",
"583 639 OFFCURVE",
"491 714 OFFCURVE",
"318 714 CURVE SMOOTH",
"90 714 LINE",
"90 0 LINE"
);
},
{
closed = 1;
nodes = (
"241 590 LINE",
"310 590 LINE SMOOTH",
"393 590 OFFCURVE",
"430 557 OFFCURVE",
"430 486 CURVE SMOOTH",
"430 416 OFFCURVE",
"392 378 OFFCURVE",
"304 378 CURVE SMOOTH",
"241 378 LINE"
);
}
);
width = 628;
}
);
note = uni10B2;
unicode = 10B2;
},
{
color = 5;
glyphname = uni10B3;
lastChange = "2015-09-22 12:28:39 +0000";
layers = (
{
layerId = "F1E1AA8A-A3F5-4941-B4E6-C7B9A7EBF3CF";
name = Light;
paths = (
{
closed = 1;
nodes = (
"670 -150 OFFCURVE",
"723 -102 OFFCURVE",
"723 -21 CURVE SMOOTH",
"723 55 OFFCURVE",
"672 95 OFFCURVE",
"623 108 CURVE",
"667 172 OFFCURVE",
"690 257 OFFCURVE",
"690 358 CURVE SMOOTH",
"690 590 OFFCURVE",
"579 725 OFFCURVE",
"382 725 CURVE SMOOTH",
"177 725 OFFCURVE",
"63 574 OFFCURVE",
"63 359 CURVE SMOOTH",
"63 143 OFFCURVE",
"168 -10 OFFCURVE",
"376 -10 CURVE SMOOTH",
"478 -10 OFFCURVE",
"556 26 OFFCURVE",
"608 88 CURVE",
"661 74 OFFCURVE",
"696 35 OFFCURVE",
"696 -22 CURVE SMOOTH",
"696 -80 OFFCURVE",
"663 -124 OFFCURVE",
"591 -124 CURVE SMOOTH",
"578 -124 OFFCURVE",
"564 -123 OFFCURVE",
"555 -122 CURVE",
"555 -147 LINE",
"563 -149 OFFCURVE",
"580 -150 OFFCURVE",
"591 -150 CURVE SMOOTH"
);
},
{
closed = 1;
nodes = (
"182 15 OFFCURVE",
"90 159 OFFCURVE",
"90 359 CURVE SMOOTH",
"90 556 OFFCURVE",
"186 700 OFFCURVE",
"382 700 CURVE SMOOTH",
"562 700 OFFCURVE",
"663 575 OFFCURVE",
"663 358 CURVE SMOOTH",
"663 156 OFFCURVE",
"573 15 OFFCURVE",
"377 15 CURVE SMOOTH"
);
}
);
width = 754;
},
{
layerId = "29BFE51A-F5BD-45F8-BEBC-9AD34273B132";
name = Bold;
paths = (
{
closed = 1;
nodes = (
"708 -195 OFFCURVE",
"777 -135 OFFCURVE",
"777 -30 CURVE SMOOTH",
"777 51 OFFCURVE",
"728 106 OFFCURVE",
"691 132 CURVE",
"728 190 OFFCURVE",
"745 269 OFFCURVE",
"745 358 CURVE SMOOTH",
"745 580 OFFCURVE",
"643 725 OFFCURVE",
"399 725 CURVE SMOOTH",
"158 725 OFFCURVE",
"51 581 OFFCURVE",
"51 359 CURVE SMOOTH",
"51 136 OFFCURVE",
"158 -10 OFFCURVE",
"398 -10 CURVE SMOOTH",
"475 -10 OFFCURVE",
"539 5 OFFCURVE",
"587 32 CURVE",
"599 16 OFFCURVE",
"606 0 OFFCURVE",
"606 -17 CURVE SMOOTH",
"606 -43 OFFCURVE",
"588 -59 OFFCURVE",
"555 -59 CURVE SMOOTH",
"540 -59 OFFCURVE",
"526 -57 OFFCURVE",
"514 -53 CURVE",
"514 -184 LINE",
"537 -192 OFFCURVE",
"567 -195 OFFCURVE",
"599 -195 CURVE SMOOTH"
);
},
{
closed = 1;
nodes = (
"295 151 OFFCURVE",
"254 229 OFFCURVE",
"254 358 CURVE SMOOTH",
"254 487 OFFCURVE",
"294 567 OFFCURVE",
"399 567 CURVE SMOOTH",
"504 567 OFFCURVE",
"542 487 OFFCURVE",
"542 358 CURVE SMOOTH",
"542 229 OFFCURVE",
"504 151 OFFCURVE",
"398 151 CURVE SMOOTH"
);
}
);
width = 797;
},
{
layerId = "0228171D-2638-482B-876E-783119597845";
name = "Light Condensed";
paths = (
{
closed = 1;
nodes = (
"439 -148 OFFCURVE",
"473 -103 OFFCURVE",
"473 -33 CURVE SMOOTH",
"473 32 OFFCURVE",
"444 77 OFFCURVE",
"416 100 CURVE",
"447 168 OFFCURVE",
"457 261 OFFCURVE",
"457 358 CURVE SMOOTH",
"457 570 OFFCURVE",
"404 724 OFFCURVE",
"257 724 CURVE SMOOTH",
"126 724 OFFCURVE",
"54 602 OFFCURVE",
"54 358 CURVE SMOOTH",
"54 173 OFFCURVE",
"97 -10 OFFCURVE",
"257 -10 CURVE SMOOTH",
"327 -10 OFFCURVE",
"374 24 OFFCURVE",
"405 79 CURVE",
"429 54 OFFCURVE",
"447 15 OFFCURVE",
"447 -33 CURVE SMOOTH",
"447 -84 OFFCURVE",
"426 -123 OFFCURVE",
"382 -123 CURVE SMOOTH",
"373 -123 OFFCURVE",
"364 -122 OFFCURVE",
"357 -120 CURVE",
"357 -145 LINE",
"364 -147 OFFCURVE",
"375 -148 OFFCURVE",
"382 -148 CURVE SMOOTH"
);
},
{
closed = 1;
nodes = (
"143 15 OFFCURVE",
"80 141 OFFCURVE",
"80 358 CURVE SMOOTH",
"80 574 OFFCURVE",
"137 699 OFFCURVE",
"257 699 CURVE SMOOTH",
"374 699 OFFCURVE",
"431 577 OFFCURVE",
"431 358 CURVE SMOOTH",
"431 135 OFFCURVE",
"374 15 OFFCURVE",
"257 15 CURVE SMOOTH"
);
}
);
width = 511;
},
{
layerId = "5ABCF6AD-94E3-4DCD-A28A-F55CA80EA6B2";
name = Condensed;
paths = (
{
closed = 1;
nodes = (
"486 -164 OFFCURVE",
"528 -113 OFFCURVE",
"528 -34 CURVE SMOOTH",
"528 37 OFFCURVE",
"496 84 OFFCURVE",
"464 112 CURVE",
"494 176 OFFCURVE",
"506 263 OFFCURVE",
"506 358 CURVE SMOOTH",
"506 581 OFFCURVE",
"437 724 OFFCURVE",
"278 724 CURVE SMOOTH",
"129 724 OFFCURVE",
"48 600 OFFCURVE",
"48 358 CURVE SMOOTH",
"48 152 OFFCURVE",
"112 -10 OFFCURVE",
"278 -10 CURVE SMOOTH",
"342 -10 OFFCURVE",
"389 16 OFFCURVE",
"424 59 CURVE",
"441 39 OFFCURVE",
"454 10 OFFCURVE",
"454 -29 CURVE SMOOTH",
"454 -69 OFFCURVE",
"434 -100 OFFCURVE",
"399 -100 CURVE SMOOTH",
"388 -100 OFFCURVE",
"378 -99 OFFCURVE",
"369 -96 CURVE",
"369 -157 LINE",
"382 -161 OFFCURVE",
"399 -164 OFFCURVE",
"413 -164 CURVE SMOOTH"
);
},
{
closed = 1;
nodes = (
"184 63 OFFCURVE",
"133 169 OFFCURVE",
"133 358 CURVE SMOOTH",
"133 547 OFFCURVE",
"180 652 OFFCURVE",
"278 652 CURVE SMOOTH",
"374 652 OFFCURVE",
"421 550 OFFCURVE",
"421 358 CURVE SMOOTH",
"421 163 OFFCURVE",
"374 63 OFFCURVE",
"278 63 CURVE SMOOTH"
);
}
);
width = 554;
},
{
layerId = "E419AE99-0260-44D0-87A9-BD030FD7659A";
name = "SemiBold Condensed";
paths = (
{
closed = 1;
nodes = (
"532 -178 OFFCURVE",
"581 -122 OFFCURVE",
"581 -35 CURVE SMOOTH",
"581 41 OFFCURVE",
"546 90 OFFCURVE",
"510 123 CURVE",
"539 183 OFFCURVE",
"553 264 OFFCURVE",
"553 358 CURVE SMOOTH",
"553 592 OFFCURVE",
"469 725 OFFCURVE",
"299 725 CURVE SMOOTH",
"133 725 OFFCURVE",
"43 598 OFFCURVE",
"43 359 CURVE SMOOTH",
"43 132 OFFCURVE",
"126 -10 OFFCURVE",
"299 -10 CURVE SMOOTH",
"357 -10 OFFCURVE",
"405 8 OFFCURVE",
"442 41 CURVE",
"453 25 OFFCURVE",
"461 4 OFFCURVE",
"461 -25 CURVE SMOOTH",
"461 -55 OFFCURVE",
"443 -78 OFFCURVE",
"417 -78 CURVE SMOOTH",
"404 -78 OFFCURVE",
"392 -76 OFFCURVE",
"381 -73 CURVE",
"381 -169 LINE",
"400 -175 OFFCURVE",
"423 -178 OFFCURVE",
"443 -178 CURVE SMOOTH"
);
},
{
closed = 1;
nodes = (
"223 110 OFFCURVE",
"184 195 OFFCURVE",
"184 358 CURVE SMOOTH",
"184 521 OFFCURVE",
"222 608 OFFCURVE",
"299 608 CURVE SMOOTH",
"374 608 OFFCURVE",
"412 525 OFFCURVE",
"412 358 CURVE SMOOTH",
"412 191 OFFCURVE",
"375 110 OFFCURVE",
"299 110 CURVE SMOOTH"
);
}
);
width = 596;
},
{
layerId = "C7A62E0A-0606-4C56-A5B0-C8EA8B1CCAFA";
name = "Bold Condensed";
paths = (
{
closed = 1;
nodes = (
"560 -188 OFFCURVE",
"614 -128 OFFCURVE",
"614 -36 CURVE SMOOTH",
"614 44 OFFCURVE",
"577 94 OFFCURVE",
"539 130 CURVE",
"567 188 OFFCURVE",
"582 265 OFFCURVE",
"582 358 CURVE SMOOTH",
"582 599 OFFCURVE",
"489 725 OFFCURVE",
"311 725 CURVE SMOOTH",
"134 725 OFFCURVE",
"39 597 OFFCURVE",
"39 359 CURVE SMOOTH",
"39 119 OFFCURVE",
"135 -10 OFFCURVE",
"311 -10 CURVE SMOOTH",
"366 -10 OFFCURVE",
"414 3 OFFCURVE",
"453 29 CURVE",
"460 16 OFFCURVE",
"465 1 OFFCURVE",
"465 -22 CURVE SMOOTH",
"465 -46 OFFCURVE",
"448 -64 OFFCURVE",
"427 -64 CURVE SMOOTH",
"413 -64 OFFCURVE",
"400 -62 OFFCURVE",
"388 -58 CURVE",
"388 -177 LINE",
"411 -184 OFFCURVE",
"438 -188 OFFCURVE",
"462 -188 CURVE SMOOTH"
);
},
{
closed = 1;
nodes = (
"248 139 OFFCURVE",
"216 212 OFFCURVE",
"216 358 CURVE SMOOTH",
"216 505 OFFCURVE",
"248 579 OFFCURVE",
"311 579 CURVE SMOOTH",
"374 579 OFFCURVE",
"405 509 OFFCURVE",
"405 358 CURVE SMOOTH",
"405 208 OFFCURVE",
"375 139 OFFCURVE",
"311 139 CURVE SMOOTH"
);
}
);
width = 622;
},
{
layerId = "9503992B-9F6A-43B6-8DBC-EB382B06F8D4";
name = Regular;
paths = (
{
closed = 1;
nodes = (
"685 -170 OFFCURVE",
"750 -109 OFFCURVE",
"750 -17 CURVE SMOOTH",
"750 55 OFFCURVE",
"716 104 OFFCURVE",
"660 124 CURVE",
"700 187 OFFCURVE",
"720 265 OFFCURVE",
"720 358 CURVE SMOOTH",
"720 588 OFFCURVE",
"599 725 OFFCURVE",
"392 725 CURVE SMOOTH",
"179 725 OFFCURVE",
"61 591 OFFCURVE",
"61 359 CURVE SMOOTH",
"61 125 OFFCURVE",
"181 -10 OFFCURVE",
"391 -10 CURVE SMOOTH",
"476 -10 OFFCURVE",
"546 13 OFFCURVE",
"603 59 CURVE",
"642 50 OFFCURVE",
"662 21 OFFCURVE",
"662 -17 CURVE SMOOTH",
"662 -63 OFFCURVE",
"635 -92 OFFCURVE",
"585 -92 CURVE SMOOTH",
"569 -92 OFFCURVE",
"555 -90 OFFCURVE",
"543 -88 CURVE",
"543 -166 LINE",
"560 -168 OFFCURVE",
"574 -170 OFFCURVE",
"585 -170 CURVE SMOOTH"
);
},
{
closed = 1;
nodes = (
"237 68 OFFCURVE",
"156 169 OFFCURVE",
"156 358 CURVE SMOOTH",
"156 546 OFFCURVE",
"237 646 OFFCURVE",
"392 646 CURVE SMOOTH",
"545 646 OFFCURVE",
"625 549 OFFCURVE",
"625 358 CURVE SMOOTH",
"625 167 OFFCURVE",
"544 68 OFFCURVE",
"391 68 CURVE SMOOTH"
);
}
);
width = 781;
},
{
layerId = "2D9814BA-45F0-4FCB-8967-A366BFC6AA80";
name = SemiBold;
paths = (
{
closed = 1;
nodes = (
"707 -185 OFFCURVE",
"770 -125 OFFCURVE",
"770 -24 CURVE SMOOTH",
"770 41 OFFCURVE",
"737 98 OFFCURVE",
"683 129 CURVE",
"720 188 OFFCURVE",
"738 265 OFFCURVE",
"738 358 CURVE SMOOTH",
"738 595 OFFCURVE",
"618 725 OFFCURVE",
"399 725 CURVE SMOOTH",
"180 725 OFFCURVE",
"58 597 OFFCURVE",
"58 359 CURVE SMOOTH",
"58 121 OFFCURVE",
"179 -10 OFFCURVE",
"398 -10 CURVE SMOOTH",
"478 -10 OFFCURVE",
"544 7 OFFCURVE",
"598 41 CURVE",
"620 26 OFFCURVE",
"632 2 OFFCURVE",
"632 -19 CURVE SMOOTH",
"632 -54 OFFCURVE",
"610 -73 OFFCURVE",
"579 -73 CURVE SMOOTH",
"565 -73 OFFCURVE",
"548 -71 OFFCURVE",
"529 -67 CURVE",
"529 -177 LINE",
"551 -182 OFFCURVE",
"571 -185 OFFCURVE",
"588 -185 CURVE SMOOTH"
);
},
{
closed = 1;
nodes = (
"277 117 OFFCURVE",
"217 198 OFFCURVE",
"217 358 CURVE SMOOTH",
"217 518 OFFCURVE",
"278 599 OFFCURVE",
"399 599 CURVE SMOOTH",
"519 599 OFFCURVE",
"579 519 OFFCURVE",
"579 358 CURVE SMOOTH",
"579 197 OFFCURVE",
"519 117 OFFCURVE",
"398 117 CURVE SMOOTH"
);
}
);
width = 796;
}
);
note = uni10B3;
unicode = 10B3;
},
{
color = 5;
glyphname = uni10B4;
lastChange = "2015-09-22 12:09:46 +0000";
layers = (
{
layerId = "F1E1AA8A-A3F5-4941-B4E6-C7B9A7EBF3CF";
name = Light;
paths = (
{
closed = 1;
nodes = (
"391 0 LINE",
"391 186 LINE",
"570 191 OFFCURVE",
"692 276 OFFCURVE",
"692 465 CURVE SMOOTH",
"692 655 OFFCURVE",
"546 725 OFFCURVE",
"378 725 CURVE SMOOTH",
"202 725 OFFCURVE",
"64 639 OFFCURVE",
"64 459 CURVE SMOOTH",
"64 272 OFFCURVE",
"190 189 OFFCURVE",
"365 186 CURVE",
"365 0 LINE"
);
},
{
closed = 1;
nodes = (
"196 216 OFFCURVE",
"91 289 OFFCURVE",
"91 459 CURVE SMOOTH",
"91 623 OFFCURVE",
"214 695 OFFCURVE",
"365 700 CURVE",
"365 211 LINE"
);
},
{
closed = 1;
nodes = (
"391 700 LINE",
"547 695 OFFCURVE",
"665 630 OFFCURVE",
"665 465 CURVE SMOOTH",
"665 292 OFFCURVE",
"558 216 OFFCURVE",
"391 211 CURVE"
);
}
);
width = 756;
},
{
layerId = "29BFE51A-F5BD-45F8-BEBC-9AD34273B132";
name = Bold;
paths = (
{
closed = 1;
nodes = (
"544 0 LINE",
"544 152 LINE",
"729 157 OFFCURVE",
"861 264 OFFCURVE",
"861 438 CURVE SMOOTH",
"861 620 OFFCURVE",
"719 724 OFFCURVE",
"448 724 CURVE SMOOTH",
"227 724 OFFCURVE",
"41 649 OFFCURVE",
"41 438 CURVE SMOOTH",
"41 266 OFFCURVE",
"171 157 OFFCURVE",
"358 152 CURVE",
"358 0 LINE"
);
},
{
closed = 1;
nodes = (
"280 304 OFFCURVE",
"229 357 OFFCURVE",
"229 439 CURVE SMOOTH",
"229 519 OFFCURVE",
"280 564 OFFCURVE",
"358 569 CURVE",
"358 299 LINE"
);
},
{
closed = 1;
nodes = (
"544 569 LINE",
"622 564 OFFCURVE",
"673 516 OFFCURVE",
"673 439 CURVE SMOOTH",
"673 358 OFFCURVE",
"622 304 OFFCURVE",
"544 299 CURVE"
);
}
);
width = 903;
},
{
layerId = "0228171D-2638-482B-876E-783119597845";
name = "Light Condensed";
paths = (
{
closed = 1;
nodes = (
"278 0 LINE",
"278 187 LINE",
"395 194 OFFCURVE",
"475 276 OFFCURVE",
"475 467 CURVE SMOOTH",
"475 658 OFFCURVE",
"384 725 OFFCURVE",
"265 725 CURVE SMOOTH",
"143 725 OFFCURVE",
"54 640 OFFCURVE",
"54 460 CURVE SMOOTH",
"54 271 OFFCURVE",
"136 192 OFFCURVE",
"252 187 CURVE",
"252 0 LINE"
);
},
{
closed = 1;
nodes = (
"149 218 OFFCURVE",
"81 285 OFFCURVE",
"81 460 CURVE SMOOTH",
"81 629 OFFCURVE",
"156 694 OFFCURVE",
"252 700 CURVE",
"252 212 LINE"
);
},
{
closed = 1;
nodes = (
"278 700 LINE",
"374 694 OFFCURVE",
"448 636 OFFCURVE",
"448 467 CURVE SMOOTH",
"448 289 OFFCURVE",
"381 219 OFFCURVE",
"278 212 CURVE"
);
}
);
width = 529;
},
{
layerId = "5ABCF6AD-94E3-4DCD-A28A-F55CA80EA6B2";
name = Condensed;
paths = (
{
closed = 1;
nodes = (
"345 0 LINE",
"345 176 LINE",
"476 183 OFFCURVE",
"567 272 OFFCURVE",
"567 456 CURVE SMOOTH",
"567 646 OFFCURVE",
"459 725 OFFCURVE",
"307 725 CURVE SMOOTH",
"154 725 OFFCURVE",
"44 635 OFFCURVE",
"44 452 CURVE SMOOTH",
"44 269 OFFCURVE",
"136 182 OFFCURVE",
"267 176 CURVE",
"267 0 LINE"
);
},
{
closed = 1;
nodes = (
"184 252 OFFCURVE",
"127 310 OFFCURVE",
"127 452 CURVE SMOOTH",
"127 592 OFFCURVE",
"188 649 OFFCURVE",
"267 655 CURVE",
"267 246 LINE"
);
},
{
closed = 1;
nodes = (
"345 655 LINE",
"423 649 OFFCURVE",
"484 595 OFFCURVE",
"484 456 CURVE SMOOTH",
"484 312 OFFCURVE",
"428 253 OFFCURVE",
"345 246 CURVE"
);
}
);
width = 611;
},
{
layerId = "E419AE99-0260-44D0-87A9-BD030FD7659A";
name = "SemiBold Condensed";
paths = (
{
closed = 1;
nodes = (
"409 0 LINE",
"409 166 LINE",
"554 173 OFFCURVE",
"655 269 OFFCURVE",
"655 446 CURVE SMOOTH",
"655 635 OFFCURVE",
"531 724 OFFCURVE",
"347 724 CURVE SMOOTH",
"164 724 OFFCURVE",
"35 631 OFFCURVE",
"35 444 CURVE SMOOTH",
"35 268 OFFCURVE",
"136 172 OFFCURVE",
"281 166 CURVE",
"281 0 LINE"
);
},
{
closed = 1;
nodes = (
"217 284 OFFCURVE",
"171 333 OFFCURVE",
"171 445 CURVE SMOOTH",
"171 556 OFFCURVE",
"219 606 OFFCURVE",
"281 612 CURVE",
"281 278 LINE"
);
},
{
closed = 1;
nodes = (
"409 612 LINE",
"471 606 OFFCURVE",
"519 556 OFFCURVE",
"519 446 CURVE SMOOTH",
"519 335 OFFCURVE",
"472 285 OFFCURVE",
"409 278 CURVE"
);
}
);
width = 690;
},
{
layerId = "C7A62E0A-0606-4C56-A5B0-C8EA8B1CCAFA";
name = "Bold Condensed";
paths = (
{
closed = 1;
nodes = (
"450 0 LINE",
"450 159 LINE",
"603 166 OFFCURVE",
"711 267 OFFCURVE",
"711 439 CURVE SMOOTH",
"711 628 OFFCURVE",
"577 724 OFFCURVE",
"372 724 CURVE SMOOTH",
"171 724 OFFCURVE",
"29 628 OFFCURVE",
"29 439 CURVE SMOOTH",
"29 267 OFFCURVE",
"136 166 OFFCURVE",
"290 159 CURVE",
"290 0 LINE"
);
},
{
closed = 1;
nodes = (
"238 305 OFFCURVE",
"199 348 OFFCURVE",
"199 440 CURVE SMOOTH",
"199 533 OFFCURVE",
"238 578 OFFCURVE",
"290 585 CURVE",
"290 298 LINE"
);
},
{
closed = 1;
nodes = (
"450 585 LINE",
"501 578 OFFCURVE",
"541 531 OFFCURVE",
"541 440 CURVE SMOOTH",
"541 349 OFFCURVE",
"501 305 OFFCURVE",
"450 298 CURVE"
);
}
);
width = 740;
},
{
layerId = "9503992B-9F6A-43B6-8DBC-EB382B06F8D4";
name = Regular;
paths = (
{
closed = 1;
nodes = (
"450 0 LINE",
"450 178 LINE",
"632 178 OFFCURVE",
"756 274 OFFCURVE",
"756 448 CURVE SMOOTH",
"756 630 OFFCURVE",
"636 724 OFFCURVE",
"408 724 CURVE SMOOTH",
"181 724 OFFCURVE",
"55 626 OFFCURVE",
"55 448 CURVE SMOOTH",
"55 278 OFFCURVE",
"176 178 OFFCURVE",
"361 178 CURVE",
"361 0 LINE"
);
},
{
closed = 1;
nodes = (
"223 252 OFFCURVE",
"146 323 OFFCURVE",
"146 449 CURVE SMOOTH",
"146 572 OFFCURVE",
"224 645 OFFCURVE",
"361 648 CURVE",
"361 252 LINE"
);
},
{
closed = 1;
nodes = (
"450 648 LINE",
"588 645 OFFCURVE",
"665 574 OFFCURVE",
"665 449 CURVE SMOOTH",
"665 323 OFFCURVE",
"587 252 OFFCURVE",
"450 252 CURVE"
);
}
);
width = 811;
},
{
layerId = "2D9814BA-45F0-4FCB-8967-A366BFC6AA80";
name = SemiBold;
paths = (
{
closed = 1;
nodes = (
"498 0 LINE",
"498 162 LINE",
"681 162 OFFCURVE",
"815 268 OFFCURVE",
"815 442 CURVE SMOOTH",
"815 625 OFFCURVE",
"679 724 OFFCURVE",
"429 724 CURVE SMOOTH",
"211 724 OFFCURVE",
"45 641 OFFCURVE",
"45 442 CURVE SMOOTH",
"45 271 OFFCURVE",
"176 162 OFFCURVE",
"362 162 CURVE",
"362 0 LINE"
);
},
{
closed = 1;
nodes = (
"253 279 OFFCURVE",
"187 344 OFFCURVE",
"187 443 CURVE SMOOTH",
"187 540 OFFCURVE",
"255 600 OFFCURVE",
"362 600 CURVE",
"362 279 LINE"
);
},
{
closed = 1;
nodes = (
"498 600 LINE",
"605 600 OFFCURVE",
"673 539 OFFCURVE",
"673 443 CURVE SMOOTH",
"673 345 OFFCURVE",
"607 279 OFFCURVE",
"498 279 CURVE"
);
}
);
width = 860;
}
);
note = uni10B4;
unicode = 10B4;
},
{
color = 5;
glyphname = uni10B5;
lastChange = "2015-09-22 12:09:46 +0000";
layers = (
{
layerId = "F1E1AA8A-A3F5-4941-B4E6-C7B9A7EBF3CF";
name = Light;
paths = (
{
closed = 1;
nodes = (
"305 0 LINE",
"305 465 LINE",
"524 465 LINE",
"524 321 LINE",
"550 321 LINE",
"550 490 LINE",
"305 490 LINE",
"305 714 LINE",
"279 714 LINE",
"279 490 LINE",
"56 490 LINE",
"56 629 LINE",
"30 629 LINE",
"30 465 LINE",
"279 465 LINE",
"279 0 LINE"
);
}
);
width = 580;
},
{
layerId = "29BFE51A-F5BD-45F8-BEBC-9AD34273B132";
name = Bold;
paths = (
{
closed = 1;
nodes = (
"446 0 LINE",
"446 389 LINE",
"507 389 LINE",
"507 290 LINE",
"674 290 LINE",
"674 546 LINE",
"446 546 LINE",
"446 714 LINE",
"253 714 LINE",
"253 546 LINE",
"192 546 LINE",
"192 645 LINE",
"25 645 LINE",
"25 389 LINE",
"253 389 LINE",
"253 0 LINE"
);
}
);
width = 699;
},
{
layerId = "0228171D-2638-482B-876E-783119597845";
name = "Light Condensed";
paths = (
{
closed = 1;
nodes = (
"218 0 LINE",
"218 465 LINE",
"352 465 LINE",
"352 321 LINE",
"378 321 LINE",
"378 490 LINE",
"218 490 LINE",
"218 714 LINE",
"192 714 LINE",
"192 490 LINE",
"56 490 LINE",
"56 629 LINE",
"30 629 LINE",
"30 465 LINE",
"192 465 LINE",
"192 0 LINE"
);
}
);
width = 408;
},
{
layerId = "5ABCF6AD-94E3-4DCD-A28A-F55CA80EA6B2";
name = Condensed;
paths = (
{
closed = 1;
nodes = (
"285 0 LINE",
"285 442 LINE",
"387 442 LINE",
"387 309 LINE",
"461 309 LINE",
"461 512 LINE",
"285 512 LINE",
"285 714 LINE",
"203 714 LINE",
"203 512 LINE",
"100 512 LINE",
"100 635 LINE",
"26 635 LINE",
"26 442 LINE",
"203 442 LINE",
"203 0 LINE"
);
}
);
width = 487;
},
{
layerId = "E419AE99-0260-44D0-87A9-BD030FD7659A";
name = "SemiBold Condensed";
paths = (
{
closed = 1;
nodes = (
"349 0 LINE",
"349 421 LINE",
"420 421 LINE",
"420 297 LINE",
"540 297 LINE",
"540 533 LINE",
"349 533 LINE",
"349 714 LINE",
"213 714 LINE",
"213 533 LINE",
"142 533 LINE",
"142 641 LINE",
"22 641 LINE",
"22 421 LINE",
"213 421 LINE",
"213 0 LINE"
);
}
);
width = 563;
},
{
layerId = "C7A62E0A-0606-4C56-A5B0-C8EA8B1CCAFA";
name = "Bold Condensed";
paths = (
{
closed = 1;
nodes = (
"390 0 LINE",
"390 407 LINE",
"442 407 LINE",
"442 290 LINE",
"591 290 LINE",
"591 546 LINE",
"390 546 LINE",
"390 714 LINE",
"220 714 LINE",
"220 546 LINE",
"169 546 LINE",
"169 645 LINE",
"20 645 LINE",
"20 407 LINE",
"220 407 LINE",
"220 0 LINE"
);
}
);
width = 611;
},
{
layerId = "9503992B-9F6A-43B6-8DBC-EB382B06F8D4";
name = Regular;
paths = (
{
closed = 1;
nodes = (
"358 0 LINE",
"358 436 LINE",
"514 436 LINE",
"514 321 LINE",
"600 321 LINE",
"600 514 LINE",
"358 514 LINE",
"358 714 LINE",
"268 714 LINE",
"268 514 LINE",
"111 514 LINE",
"111 629 LINE",
"25 629 LINE",
"25 436 LINE",
"268 436 LINE",
"268 0 LINE"
);
}
);
width = 625;
},
{
layerId = "2D9814BA-45F0-4FCB-8967-A366BFC6AA80";
name = SemiBold;
paths = (
{
closed = 1;
nodes = (
"409 0 LINE",
"409 404 LINE",
"504 404 LINE",
"504 290 LINE",
"642 290 LINE",
"642 528 LINE",
"409 528 LINE",
"409 714 LINE",
"258 714 LINE",
"258 528 LINE",
"163 528 LINE",
"163 642 LINE",
"25 642 LINE",
"25 404 LINE",
"258 404 LINE",
"258 0 LINE"
);
}
);
width = 667;
}
);
note = uni10B5;
unicode = 10B5;
},
{
color = 5;
glyphname = uni10B6;
lastChange = "2015-09-22 12:09:46 +0000";
layers = (
{
layerId = "F1E1AA8A-A3F5-4941-B4E6-C7B9A7EBF3CF";
name = Light;
paths = (
{
closed = 1;
nodes = (
"120 0 LINE",
"120 462 LINE SMOOTH",
"120 623 OFFCURVE",
"214 699 OFFCURVE",
"356 699 CURVE SMOOTH",
"505 699 OFFCURVE",
"591 620 OFFCURVE",
"591 459 CURVE SMOOTH",
"591 0 LINE",
"617 0 LINE",
"617 460 LINE SMOOTH",
"617 633 OFFCURVE",
"522 724 OFFCURVE",
"357 724 CURVE SMOOTH",
"202 724 OFFCURVE",
"94 640 OFFCURVE",
"94 462 CURVE SMOOTH",
"94 0 LINE"
);
}
);
width = 712;
},
{
layerId = "29BFE51A-F5BD-45F8-BEBC-9AD34273B132";
name = Bold;
paths = (
{
closed = 1;
nodes = (
"266 0 LINE",
"266 418 LINE SMOOTH",
"266 520 OFFCURVE",
"299 563 OFFCURVE",
"378 563 CURVE SMOOTH",
"452 563 OFFCURVE",
"490 520 OFFCURVE",
"490 419 CURVE SMOOTH",
"490 0 LINE",
"684 0 LINE",
"684 434 LINE SMOOTH",
"684 619 OFFCURVE",
"578 724 OFFCURVE",
"381 724 CURVE SMOOTH",
"175 724 OFFCURVE",
"73 610 OFFCURVE",
"73 430 CURVE SMOOTH",
"73 0 LINE"
);
}
);
width = 757;
},
{
layerId = "0228171D-2638-482B-876E-783119597845";
name = "Light Condensed";
paths = (
{
closed = 1;
nodes = (
"98 0 LINE",
"98 493 LINE SMOOTH",
"98 651 OFFCURVE",
"158 699 OFFCURVE",
"243 699 CURVE SMOOTH",
"334 699 OFFCURVE",
"388 643 OFFCURVE",
"388 493 CURVE SMOOTH",
"388 0 LINE",
"414 0 LINE",
"414 497 LINE SMOOTH",
"414 655 OFFCURVE",
"353 724 OFFCURVE",
"243 724 CURVE SMOOTH",
"148 724 OFFCURVE",
"72 672 OFFCURVE",
"72 497 CURVE SMOOTH",
"72 0 LINE"
);
}
);
width = 485;
},
{
layerId = "5ABCF6AD-94E3-4DCD-A28A-F55CA80EA6B2";
name = Condensed;
paths = (
{
closed = 1;
nodes = (
"147 0 LINE",
"147 483 LINE SMOOTH",
"147 610 OFFCURVE",
"192 651 OFFCURVE",
"263 651 CURVE SMOOTH",
"336 651 OFFCURVE",
"377 605 OFFCURVE",
"377 483 CURVE SMOOTH",
"377 0 LINE",
"460 0 LINE",
"460 489 LINE SMOOTH",
"460 650 OFFCURVE",
"390 724 OFFCURVE",
"263 724 CURVE SMOOTH",
"145 724 OFFCURVE",
"65 658 OFFCURVE",
"65 487 CURVE SMOOTH",
"65 0 LINE"
);
}
);
width = 525;
},
{
layerId = "E419AE99-0260-44D0-87A9-BD030FD7659A";
name = "SemiBold Condensed";
paths = (
{
closed = 1;
nodes = (
"195 0 LINE",
"195 473 LINE SMOOTH",
"195 572 OFFCURVE",
"225 604 OFFCURVE",
"282 604 CURVE SMOOTH",
"338 604 OFFCURVE",
"368 569 OFFCURVE",
"368 474 CURVE SMOOTH",
"368 0 LINE",
"504 0 LINE",
"504 481 LINE SMOOTH",
"504 645 OFFCURVE",
"425 724 OFFCURVE",
"283 724 CURVE SMOOTH",
"142 724 OFFCURVE",
"59 645 OFFCURVE",
"59 478 CURVE SMOOTH",
"59 0 LINE"
);
}
);
width = 563;
},
{
layerId = "C7A62E0A-0606-4C56-A5B0-C8EA8B1CCAFA";
name = "Bold Condensed";
paths = (
{
closed = 1;
nodes = (
"225 0 LINE",
"225 467 LINE SMOOTH",
"225 547 OFFCURVE",
"246 575 OFFCURVE",
"294 575 CURVE SMOOTH",
"339 575 OFFCURVE",
"362 546 OFFCURVE",
"362 468 CURVE SMOOTH",
"362 0 LINE",
"532 0 LINE",
"532 476 LINE SMOOTH",
"532 642 OFFCURVE",
"448 724 OFFCURVE",
"296 724 CURVE SMOOTH",
"140 724 OFFCURVE",
"55 637 OFFCURVE",
"55 472 CURVE SMOOTH",
"55 0 LINE"
);
}
);
width = 587;
},
{
layerId = "9503992B-9F6A-43B6-8DBC-EB382B06F8D4";
name = Regular;
paths = (
{
closed = 1;
nodes = (
"179 0 LINE",
"179 462 LINE SMOOTH",
"179 581 OFFCURVE",
"245 646 OFFCURVE",
"363 646 CURVE SMOOTH",
"486 646 OFFCURVE",
"550 582 OFFCURVE",
"550 463 CURVE SMOOTH",
"550 0 LINE",
"640 0 LINE",
"640 460 LINE SMOOTH",
"640 624 OFFCURVE",
"541 724 OFFCURVE",
"368 724 CURVE SMOOTH",
"194 724 OFFCURVE",
"90 625 OFFCURVE",
"90 462 CURVE SMOOTH",
"90 0 LINE"
);
}
);
width = 730;
},
{
layerId = "2D9814BA-45F0-4FCB-8967-A366BFC6AA80";
name = SemiBold;
paths = (
{
closed = 1;
nodes = (
"236 0 LINE",
"236 436 LINE SMOOTH",
"236 547 OFFCURVE",
"278 597 OFFCURVE",
"377 597 CURVE SMOOTH",
"479 597 OFFCURVE",
"520 548 OFFCURVE",
"520 437 CURVE SMOOTH",
"520 0 LINE",
"671 0 LINE",
"671 460 LINE SMOOTH",
"671 624 OFFCURVE",
"564 724 OFFCURVE",
"381 724 CURVE SMOOTH",
"205 724 OFFCURVE",
"85 631 OFFCURVE",
"85 462 CURVE SMOOTH",
"85 0 LINE"
);
}
);
width = 756;
}
);
note = uni10B6;
unicode = 10B6;
},
{
color = 5;
glyphname = uni10B7;
lastChange = "2015-09-22 12:28:58 +0000";
layers = (
{
layerId = "F1E1AA8A-A3F5-4941-B4E6-C7B9A7EBF3CF";
name = Light;
paths = (
{
closed = 1;
nodes = (
"558 0 LINE",
"558 714 LINE",
"532 714 LINE",
"532 490 LINE SMOOTH",
"532 336 OFFCURVE",
"449 258 OFFCURVE",
"319 258 CURVE SMOOTH",
"189 258 OFFCURVE",
"115 326 OFFCURVE",
"115 490 CURVE SMOOTH",
"115 714 LINE",
"89 714 LINE",
"89 489 LINE SMOOTH",
"89 294 OFFCURVE",
"189 232 OFFCURVE",
"317 232 CURVE SMOOTH",
"445 232 OFFCURVE",
"502 297 OFFCURVE",
"532 363 CURVE",
"535 363 LINE",
"533 334 OFFCURVE",
"532 284 OFFCURVE",
"532 267 CURVE SMOOTH",
"532 0 LINE"
);
}
);
width = 661;
},
{
layerId = "29BFE51A-F5BD-45F8-BEBC-9AD34273B132";
name = Bold;
paths = (
{
closed = 1;
nodes = (
"686 0 LINE",
"686 714 LINE",
"492 714 LINE",
"492 528 LINE SMOOTH",
"492 415 OFFCURVE",
"457 360 OFFCURVE",
"375 360 CURVE SMOOTH",
"306 360 OFFCURVE",
"263 399 OFFCURVE",
"263 480 CURVE SMOOTH",
"263 714 LINE",
"69 714 LINE",
"69 461 LINE SMOOTH",
"69 302 OFFCURVE",
"155 203 OFFCURVE",
"308 203 CURVE SMOOTH",
"393 203 OFFCURVE",
"457 234 OFFCURVE",
"496 290 CURVE",
"501 290 LINE",
"494 231 OFFCURVE",
"492 179 OFFCURVE",
"492 133 CURVE SMOOTH",
"492 0 LINE"
);
}
);
width = 763;
},
{
layerId = "0228171D-2638-482B-876E-783119597845";
name = "Light Condensed";
paths = (
{
closed = 1;
nodes = (
"384 0 LINE",
"384 714 LINE",
"358 714 LINE",
"358 490 LINE SMOOTH",
"358 329 OFFCURVE",
"308 258 OFFCURVE",
"222 258 CURVE SMOOTH",
"134 258 OFFCURVE",
"95 320 OFFCURVE",
"95 469 CURVE SMOOTH",
"95 714 LINE",
"69 714 LINE",
"69 467 LINE SMOOTH",
"69 288 OFFCURVE",
"129 233 OFFCURVE",
"220 233 CURVE SMOOTH",
"298 233 OFFCURVE",
"337 283 OFFCURVE",
"358 347 CURVE",
"360 347 LINE",
"358 320 OFFCURVE",
"358 288 OFFCURVE",
"358 270 CURVE SMOOTH",
"358 0 LINE"
);
}
);
width = 462;
},
{
layerId = "5ABCF6AD-94E3-4DCD-A28A-F55CA80EA6B2";
name = Condensed;
paths = (
{
closed = 1;
nodes = (
"451 0 LINE",
"451 714 LINE",
"369 714 LINE",
"369 493 LINE SMOOTH",
"369 351 OFFCURVE",
"328 292 OFFCURVE",
"254 292 CURVE SMOOTH",
"179 292 OFFCURVE",
"147 345 OFFCURVE",
"147 469 CURVE SMOOTH",
"147 714 LINE",
"64 714 LINE",
"64 463 LINE SMOOTH",
"64 297 OFFCURVE",
"123 224 OFFCURVE",
"227 224 CURVE SMOOTH",
"303 224 OFFCURVE",
"344 267 OFFCURVE",
"370 325 CURVE",
"373 325 LINE",
"370 295 OFFCURVE",
"369 258 OFFCURVE",
"369 234 CURVE SMOOTH",
"369 0 LINE"
);
}
);
width = 521;
},
{
layerId = "E419AE99-0260-44D0-87A9-BD030FD7659A";
name = "SemiBold Condensed";
paths = (
{
closed = 1;
nodes = (
"514 0 LINE",
"514 714 LINE",
"378 714 LINE",
"378 496 LINE SMOOTH",
"378 372 OFFCURVE",
"345 324 OFFCURVE",
"283 324 CURVE SMOOTH",
"221 324 OFFCURVE",
"195 369 OFFCURVE",
"195 470 CURVE SMOOTH",
"195 714 LINE",
"58 714 LINE",
"58 460 LINE SMOOTH",
"58 306 OFFCURVE",
"116 215 OFFCURVE",
"233 215 CURVE SMOOTH",
"306 215 OFFCURVE",
"350 251 OFFCURVE",
"380 304 CURVE",
"383 304 LINE",
"380 270 OFFCURVE",
"378 229 OFFCURVE",
"378 199 CURVE SMOOTH",
"378 0 LINE"
);
}
);
width = 578;
},
{
layerId = "C7A62E0A-0606-4C56-A5B0-C8EA8B1CCAFA";
name = "Bold Condensed";
paths = (
{
closed = 1;
nodes = (
"555 0 LINE",
"555 714 LINE",
"385 714 LINE",
"385 498 LINE SMOOTH",
"385 385 OFFCURVE",
"357 345 OFFCURVE",
"303 345 CURVE SMOOTH",
"249 345 OFFCURVE",
"226 384 OFFCURVE",
"226 470 CURVE SMOOTH",
"226 714 LINE",
"55 714 LINE",
"55 458 LINE SMOOTH",
"55 312 OFFCURVE",
"113 210 OFFCURVE",
"238 210 CURVE SMOOTH",
"309 210 OFFCURVE",
"355 241 OFFCURVE",
"387 291 CURVE",
"391 291 LINE",
"387 255 OFFCURVE",
"385 210 OFFCURVE",
"385 177 CURVE SMOOTH",
"385 0 LINE"
);
}
);
width = 614;
},
{
layerId = "9503992B-9F6A-43B6-8DBC-EB382B06F8D4";
name = Regular;
paths = (
{
closed = 1;
nodes = (
"609 0 LINE",
"609 714 LINE",
"519 714 LINE",
"519 494 LINE SMOOTH",
"519 375 OFFCURVE",
"448 304 OFFCURVE",
"333 304 CURVE SMOOTH",
"220 304 OFFCURVE",
"170 359 OFFCURVE",
"170 484 CURVE SMOOTH",
"170 714 LINE",
"80 714 LINE",
"80 485 LINE SMOOTH",
"80 313 OFFCURVE",
"164 226 OFFCURVE",
"316 226 CURVE SMOOTH",
"404 226 OFFCURVE",
"472 260 OFFCURVE",
"518 328 CURVE",
"524 328 LINE",
"521 279 OFFCURVE",
"519 250 OFFCURVE",
"519 242 CURVE SMOOTH",
"519 0 LINE"
);
}
);
width = 707;
},
{
layerId = "2D9814BA-45F0-4FCB-8967-A366BFC6AA80";
name = SemiBold;
paths = (
{
closed = 1;
nodes = (
"661 0 LINE",
"661 714 LINE",
"510 714 LINE",
"510 527 LINE SMOOTH",
"510 396 OFFCURVE",
"466 338 OFFCURVE",
"359 338 CURVE SMOOTH",
"270 338 OFFCURVE",
"226 383 OFFCURVE",
"226 479 CURVE SMOOTH",
"226 714 LINE",
"75 714 LINE",
"75 461 LINE SMOOTH",
"75 309 OFFCURVE",
"165 212 OFFCURVE",
"315 212 CURVE SMOOTH",
"401 212 OFFCURVE",
"467 243 OFFCURVE",
"512 305 CURVE",
"517 305 LINE",
"512 250 OFFCURVE",
"510 207 OFFCURVE",
"510 176 CURVE SMOOTH",
"510 0 LINE"
);
}
);
width = 751;
}
);
note = uni10B7;
unicode = 10B7;
},
{
color = 5;
glyphname = uni10B8;
lastChange = "2015-09-22 12:29:12 +0000";
layers = (
{
layerId = "F1E1AA8A-A3F5-4941-B4E6-C7B9A7EBF3CF";
name = Light;
paths = (
{
closed = 1;
nodes = (
"468 -10 OFFCURVE",
"558 86 OFFCURVE",
"558 250 CURVE SMOOTH",
"558 714 LINE",
"532 714 LINE",
"532 554 LINE SMOOTH",
"532 403 OFFCURVE",
"452 322 OFFCURVE",
"315 322 CURVE SMOOTH",
"184 322 OFFCURVE",
"115 398 OFFCURVE",
"115 550 CURVE SMOOTH",
"115 714 LINE",
"89 714 LINE",
"89 550 LINE SMOOTH",
"89 383 OFFCURVE",
"167 296 OFFCURVE",
"315 296 CURVE SMOOTH",
"408 296 OFFCURVE",
"487 328 OFFCURVE",
"532 427 CURVE",
"535 427 LINE",
"533 397 OFFCURVE",
"532 332 OFFCURVE",
"532 318 CURVE SMOOTH",
"532 250 LINE SMOOTH",
"532 113 OFFCURVE",
"459 16 OFFCURVE",
"326 16 CURVE SMOOTH",
"186 16 OFFCURVE",
"120 107 OFFCURVE",
"120 245 CURVE SMOOTH",
"120 255 LINE",
"94 255 LINE",
"94 244 LINE SMOOTH",
"94 92 OFFCURVE",
"170 -10 OFFCURVE",
"326 -10 CURVE SMOOTH"
);
}
);
width = 652;
},
{
layerId = "29BFE51A-F5BD-45F8-BEBC-9AD34273B132";
name = Bold;
paths = (
{
closed = 1;
nodes = (
"576 -15 OFFCURVE",
"686 82 OFFCURVE",
"686 269 CURVE SMOOTH",
"686 714 LINE",
"492 714 LINE",
"492 618 LINE SMOOTH",
"492 505 OFFCURVE",
"457 450 OFFCURVE",
"375 450 CURVE SMOOTH",
"306 450 OFFCURVE",
"263 489 OFFCURVE",
"263 570 CURVE SMOOTH",
"263 714 LINE",
"69 714 LINE",
"69 551 LINE SMOOTH",
"69 392 OFFCURVE",
"155 293 OFFCURVE",
"308 293 CURVE SMOOTH",
"393 293 OFFCURVE",
"457 324 OFFCURVE",
"496 380 CURVE",
"501 380 LINE",
"494 329 OFFCURVE",
"492 303 OFFCURVE",
"492 271 CURVE SMOOTH",
"492 263 LINE SMOOTH",
"492 186 OFFCURVE",
"446 146 OFFCURVE",
"375 146 CURVE SMOOTH",
"304 146 OFFCURVE",
"261 178 OFFCURVE",
"261 252 CURVE SMOOTH",
"261 259 LINE",
"70 259 LINE",
"70 240 LINE SMOOTH",
"70 70 OFFCURVE",
"184 -15 OFFCURVE",
"380 -15 CURVE SMOOTH"
);
}
);
width = 759;
},
{
layerId = "0228171D-2638-482B-876E-783119597845";
name = "Light Condensed";
paths = (
{
closed = 1;
nodes = (
"335 -10 OFFCURVE",
"380 74 OFFCURVE",
"380 248 CURVE SMOOTH",
"380 714 LINE",
"354 714 LINE",
"354 553 LINE SMOOTH",
"354 392 OFFCURVE",
"304 321 OFFCURVE",
"218 321 CURVE SMOOTH",
"130 321 OFFCURVE",
"91 383 OFFCURVE",
"91 532 CURVE SMOOTH",
"91 714 LINE",
"65 714 LINE",
"65 530 LINE SMOOTH",
"65 351 OFFCURVE",
"125 296 OFFCURVE",
"216 296 CURVE SMOOTH",
"294 296 OFFCURVE",
"333 346 OFFCURVE",
"354 410 CURVE",
"356 410 LINE",
"354 383 OFFCURVE",
"354 341 OFFCURVE",
"354 303 CURVE SMOOTH",
"354 248 LINE SMOOTH",
"354 78 OFFCURVE",
"309 15 OFFCURVE",
"224 15 CURVE SMOOTH",
"140 15 OFFCURVE",
"96 77 OFFCURVE",
"96 246 CURVE SMOOTH",
"96 255 LINE",
"70 255 LINE",
"70 245 LINE SMOOTH",
"70 77 OFFCURVE",
"112 -10 OFFCURVE",
"224 -10 CURVE SMOOTH"
);
}
);
width = 452;
},
{
layerId = "5ABCF6AD-94E3-4DCD-A28A-F55CA80EA6B2";
name = Condensed;
paths = (
{
closed = 1;
nodes = (
"389 -10 OFFCURVE",
"449 76 OFFCURVE",
"449 253 CURVE SMOOTH",
"449 714 LINE",
"367 714 LINE",
"367 566 LINE SMOOTH",
"367 424 OFFCURVE",
"326 365 OFFCURVE",
"252 365 CURVE SMOOTH",
"177 365 OFFCURVE",
"145 418 OFFCURVE",
"145 542 CURVE SMOOTH",
"145 714 LINE",
"62 714 LINE",
"62 536 LINE SMOOTH",
"62 366 OFFCURVE",
"121 297 OFFCURVE",
"225 297 CURVE SMOOTH",
"301 297 OFFCURVE",
"342 339 OFFCURVE",
"368 398 CURVE",
"371 398 LINE",
"368 367 OFFCURVE",
"367 324 OFFCURVE",
"367 288 CURVE SMOOTH",
"367 254 LINE SMOOTH",
"367 120 OFFCURVE",
"332 63 OFFCURVE",
"256 63 CURVE SMOOTH",
"181 63 OFFCURVE",
"146 120 OFFCURVE",
"146 246 CURVE SMOOTH",
"146 257 LINE",
"63 257 LINE",
"63 241 LINE SMOOTH",
"63 78 OFFCURVE",
"126 -10 OFFCURVE",
"257 -10 CURVE SMOOTH"
);
}
);
width = 516;
},
{
layerId = "E419AE99-0260-44D0-87A9-BD030FD7659A";
name = "SemiBold Condensed";
paths = (
{
closed = 1;
nodes = (
"442 -10 OFFCURVE",
"516 78 OFFCURVE",
"516 257 CURVE SMOOTH",
"516 714 LINE",
"380 714 LINE",
"380 578 LINE SMOOTH",
"380 454 OFFCURVE",
"347 406 OFFCURVE",
"285 406 CURVE SMOOTH",
"223 406 OFFCURVE",
"196 451 OFFCURVE",
"196 552 CURVE SMOOTH",
"196 714 LINE",
"60 714 LINE",
"60 542 LINE SMOOTH",
"60 381 OFFCURVE",
"118 298 OFFCURVE",
"235 298 CURVE SMOOTH",
"308 298 OFFCURVE",
"352 333 OFFCURVE",
"382 386 CURVE",
"385 386 LINE",
"382 353 OFFCURVE",
"380 308 OFFCURVE",
"380 274 CURVE SMOOTH",
"380 259 LINE SMOOTH",
"380 160 OFFCURVE",
"355 110 OFFCURVE",
"287 110 CURVE SMOOTH",
"220 110 OFFCURVE",
"194 161 OFFCURVE",
"194 247 CURVE SMOOTH",
"194 258 LINE",
"58 258 LINE",
"58 237 LINE SMOOTH",
"58 79 OFFCURVE",
"140 -10 OFFCURVE",
"288 -10 CURVE SMOOTH"
);
}
);
width = 578;
},
{
layerId = "C7A62E0A-0606-4C56-A5B0-C8EA8B1CCAFA";
name = "Bold Condensed";
paths = (
{
closed = 1;
nodes = (
"475 -10 OFFCURVE",
"558 79 OFFCURVE",
"558 260 CURVE SMOOTH",
"558 714 LINE",
"388 714 LINE",
"388 586 LINE SMOOTH",
"388 473 OFFCURVE",
"360 433 OFFCURVE",
"306 433 CURVE SMOOTH",
"252 433 OFFCURVE",
"229 472 OFFCURVE",
"229 558 CURVE SMOOTH",
"229 714 LINE",
"58 714 LINE",
"58 546 LINE SMOOTH",
"58 390 OFFCURVE",
"116 298 OFFCURVE",
"241 298 CURVE SMOOTH",
"312 298 OFFCURVE",
"358 329 OFFCURVE",
"390 379 CURVE",
"394 379 LINE",
"390 343 OFFCURVE",
"388 298 OFFCURVE",
"388 265 CURVE SMOOTH",
"388 263 LINE SMOOTH",
"388 185 OFFCURVE",
"369 139 OFFCURVE",
"306 139 CURVE SMOOTH",
"245 139 OFFCURVE",
"224 187 OFFCURVE",
"224 247 CURVE SMOOTH",
"224 259 LINE",
"54 259 LINE",
"54 234 LINE SMOOTH",
"54 79 OFFCURVE",
"149 -10 OFFCURVE",
"308 -10 CURVE SMOOTH"
);
}
);
width = 617;
},
{
layerId = "9503992B-9F6A-43B6-8DBC-EB382B06F8D4";
name = Regular;
paths = (
{
closed = 1;
nodes = (
"521 -10 OFFCURVE",
"619 87 OFFCURVE",
"619 252 CURVE SMOOTH",
"619 714 LINE",
"529 714 LINE",
"529 564 LINE SMOOTH",
"529 447 OFFCURVE",
"459 374 OFFCURVE",
"343 374 CURVE SMOOTH",
"234 374 OFFCURVE",
"180 434 OFFCURVE",
"180 554 CURVE SMOOTH",
"180 714 LINE",
"90 714 LINE",
"90 555 LINE SMOOTH",
"90 391 OFFCURVE",
"177 296 OFFCURVE",
"326 296 CURVE SMOOTH",
"414 296 OFFCURVE",
"479 327 OFFCURVE",
"528 398 CURVE",
"534 398 LINE",
"531 358 OFFCURVE",
"529 318 OFFCURVE",
"529 296 CURVE SMOOTH",
"529 252 LINE SMOOTH",
"529 133 OFFCURVE",
"468 68 OFFCURVE",
"357 68 CURVE SMOOTH",
"238 68 OFFCURVE",
"180 134 OFFCURVE",
"180 247 CURVE SMOOTH",
"180 260 LINE",
"90 260 LINE",
"90 250 LINE SMOOTH",
"90 89 OFFCURVE",
"188 -10 OFFCURVE",
"358 -10 CURVE SMOOTH"
);
}
);
width = 709;
},
{
layerId = "2D9814BA-45F0-4FCB-8967-A366BFC6AA80";
name = SemiBold;
paths = (
{
closed = 1;
nodes = (
"564 -10 OFFCURVE",
"671 88 OFFCURVE",
"671 254 CURVE SMOOTH",
"671 714 LINE",
"520 714 LINE",
"520 615 LINE SMOOTH",
"520 480 OFFCURVE",
"476 426 OFFCURVE",
"364 426 CURVE SMOOTH",
"277 426 OFFCURVE",
"236 470 OFFCURVE",
"236 567 CURVE SMOOTH",
"236 714 LINE",
"85 714 LINE",
"85 549 LINE SMOOTH",
"85 395 OFFCURVE",
"177 300 OFFCURVE",
"329 300 CURVE SMOOTH",
"412 300 OFFCURVE",
"477 331 OFFCURVE",
"522 393 CURVE",
"527 393 LINE",
"523 344 OFFCURVE",
"520 305 OFFCURVE",
"520 275 CURVE SMOOTH",
"520 264 LINE",
"520 163 OFFCURVE",
"476 117 OFFCURVE",
"377 117 CURVE SMOOTH",
"278 117 OFFCURVE",
"236 163 OFFCURVE",
"236 249 CURVE SMOOTH",
"236 259 LINE",
"85 259 LINE",
"85 252 LINE SMOOTH",
"85 86 OFFCURVE",
"197 -10 OFFCURVE",
"381 -10 CURVE SMOOTH"
);
}
);
width = 756;
}
);
note = uni10B8;
unicode = 10B8;
},
{
color = 5;
glyphname = uni10B9;
lastChange = "2015-09-22 12:09:46 +0000";
layers = (
{
layerId = "F1E1AA8A-A3F5-4941-B4E6-C7B9A7EBF3CF";
name = Light;
paths = (
{
closed = 1;
nodes = (
"129 0 LINE",
"129 224 LINE SMOOTH",
"129 378 OFFCURVE",
"212 456 OFFCURVE",
"342 456 CURVE SMOOTH",
"472 456 OFFCURVE",
"546 388 OFFCURVE",
"546 224 CURVE SMOOTH",
"546 0 LINE",
"572 0 LINE",
"572 225 LINE SMOOTH",
"572 420 OFFCURVE",
"472 482 OFFCURVE",
"344 482 CURVE SMOOTH",
"216 482 OFFCURVE",
"159 417 OFFCURVE",
"129 351 CURVE",
"126 351 LINE",
"128 380 OFFCURVE",
"129 430 OFFCURVE",
"129 447 CURVE SMOOTH",
"129 714 LINE",
"103 714 LINE",
"103 0 LINE"
);
}
);
width = 661;
},
{
layerId = "29BFE51A-F5BD-45F8-BEBC-9AD34273B132";
name = Bold;
paths = (
{
closed = 1;
nodes = (
"271 0 LINE",
"271 186 LINE SMOOTH",
"271 299 OFFCURVE",
"306 354 OFFCURVE",
"388 354 CURVE SMOOTH",
"457 354 OFFCURVE",
"500 315 OFFCURVE",
"500 234 CURVE SMOOTH",
"500 0 LINE",
"694 0 LINE",
"694 253 LINE SMOOTH",
"694 412 OFFCURVE",
"608 511 OFFCURVE",
"455 511 CURVE SMOOTH",
"370 511 OFFCURVE",
"306 480 OFFCURVE",
"267 424 CURVE",
"262 424 LINE",
"269 483 OFFCURVE",
"271 535 OFFCURVE",
"271 581 CURVE SMOOTH",
"271 714 LINE",
"77 714 LINE",
"77 0 LINE"
);
}
);
width = 763;
},
{
layerId = "0228171D-2638-482B-876E-783119597845";
name = "Light Condensed";
paths = (
{
closed = 1;
nodes = (
"104 0 LINE",
"104 224 LINE SMOOTH",
"104 385 OFFCURVE",
"154 456 OFFCURVE",
"240 456 CURVE SMOOTH",
"328 456 OFFCURVE",
"367 394 OFFCURVE",
"367 245 CURVE SMOOTH",
"367 0 LINE",
"393 0 LINE",
"393 247 LINE SMOOTH",
"393 426 OFFCURVE",
"333 481 OFFCURVE",
"242 481 CURVE SMOOTH",
"164 481 OFFCURVE",
"125 431 OFFCURVE",
"104 367 CURVE",
"102 367 LINE",
"104 394 OFFCURVE",
"104 426 OFFCURVE",
"104 444 CURVE SMOOTH",
"104 714 LINE",
"78 714 LINE",
"78 0 LINE"
);
}
);
width = 462;
},
{
layerId = "5ABCF6AD-94E3-4DCD-A28A-F55CA80EA6B2";
name = Condensed;
paths = (
{
closed = 1;
nodes = (
"153 0 LINE",
"153 212 LINE SMOOTH",
"153 355 OFFCURVE",
"195 413 OFFCURVE",
"268 413 CURVE SMOOTH",
"343 413 OFFCURVE",
"376 360 OFFCURVE",
"376 236 CURVE SMOOTH",
"376 0 LINE",
"458 0 LINE",
"458 242 LINE SMOOTH",
"458 408 OFFCURVE",
"399 481 OFFCURVE",
"295 481 CURVE SMOOTH",
"218 481 OFFCURVE",
"177 439 OFFCURVE",
"152 380 CURVE",
"150 380 LINE",
"152 411 OFFCURVE",
"153 448 OFFCURVE",
"153 472 CURVE SMOOTH",
"153 714 LINE",
"71 714 LINE",
"71 0 LINE"
);
}
);
width = 521;
},
{
layerId = "E419AE99-0260-44D0-87A9-BD030FD7659A";
name = "SemiBold Condensed";
paths = (
{
closed = 1;
nodes = (
"200 0 LINE",
"200 201 LINE SMOOTH",
"200 326 OFFCURVE",
"233 373 OFFCURVE",
"295 373 CURVE SMOOTH",
"357 373 OFFCURVE",
"383 328 OFFCURVE",
"383 227 CURVE SMOOTH",
"383.006 0 LINE",
"520 0 LINE",
"520 237 LINE SMOOTH",
"520 391 OFFCURVE",
"462 482 OFFCURVE",
"345 482 CURVE SMOOTH",
"270 482 OFFCURVE",
"225 446 OFFCURVE",
"198 393 CURVE",
"195 393 LINE",
"198 427 OFFCURVE",
"200 469 OFFCURVE",
"200 498 CURVE SMOOTH",
"200 714 LINE",
"64 714 LINE",
"64 0 LINE"
);
}
);
width = 578;
},
{
layerId = "C7A62E0A-0606-4C56-A5B0-C8EA8B1CCAFA";
name = "Bold Condensed";
paths = (
{
closed = 1;
nodes = (
"229 0 LINE",
"229 194 LINE SMOOTH",
"229 307 OFFCURVE",
"257 347 OFFCURVE",
"311 347 CURVE SMOOTH",
"365 347 OFFCURVE",
"388 308 OFFCURVE",
"388 222 CURVE SMOOTH",
"388 0 LINE",
"559 0 LINE",
"559 234 LINE SMOOTH",
"559 380 OFFCURVE",
"501 482 OFFCURVE",
"376 482 CURVE SMOOTH",
"302 482 OFFCURVE",
"256 451 OFFCURVE",
"227 401 CURVE",
"223 401 LINE",
"227 437 OFFCURVE",
"229 482 OFFCURVE",
"229 515 CURVE SMOOTH",
"229 714 LINE",
"59 714 LINE",
"59 0 LINE"
);
}
);
width = 614;
},
{
layerId = "9503992B-9F6A-43B6-8DBC-EB382B06F8D4";
name = Regular;
paths = (
{
closed = 1;
nodes = (
"188 0 LINE",
"188 220 LINE SMOOTH",
"188 337 OFFCURVE",
"257 410 OFFCURVE",
"374 410 CURVE SMOOTH",
"487 410 OFFCURVE",
"537 354 OFFCURVE",
"537 230 CURVE SMOOTH",
"537 0 LINE",
"627 0 LINE",
"627 229 LINE SMOOTH",
"627 396 OFFCURVE",
"543 488 OFFCURVE",
"391 488 CURVE SMOOTH",
"303 488 OFFCURVE",
"237 456 OFFCURVE",
"189 386 CURVE",
"183 386 LINE",
"187 435 OFFCURVE",
"188 464 OFFCURVE",
"188 472 CURVE SMOOTH",
"188 714 LINE",
"98 714 LINE",
"98 0 LINE"
);
}
);
width = 707;
},
{
layerId = "2D9814BA-45F0-4FCB-8967-A366BFC6AA80";
name = SemiBold;
paths = (
{
closed = 1;
nodes = (
"241 0 LINE",
"241 187 LINE SMOOTH",
"241 322 OFFCURVE",
"281 376 OFFCURVE",
"392 376 CURVE SMOOTH",
"484 376 OFFCURVE",
"525 323 OFFCURVE",
"525 235 CURVE SMOOTH",
"525 0 LINE",
"676 0 LINE",
"676 253 LINE SMOOTH",
"676 405 OFFCURVE",
"586 502 OFFCURVE",
"436 502 CURVE SMOOTH",
"349 502 OFFCURVE",
"283 471 OFFCURVE",
"239 409 CURVE",
"234 409 LINE",
"239 467 OFFCURVE",
"241 502 OFFCURVE",
"241 516 CURVE",
"241 714 LINE",
"90 714 LINE",
"90 0 LINE"
);
}
);
width = 751;
}
);
note = uni10B9;
unicode = 10B9;
},
{
color = 5;
glyphname = uni10BA;
lastChange = "2015-09-22 12:09:46 +0000";
layers = (
{
layerId = "F1E1AA8A-A3F5-4941-B4E6-C7B9A7EBF3CF";
name = Light;
paths = (
{
closed = 1;
nodes = (
"454 -10 OFFCURVE",
"526 21 OFFCURVE",
"587 56 CURVE",
"587 0 LINE",
"613 0 LINE",
"613 295 LINE",
"587 295 LINE",
"587 85 LINE",
"526 46 OFFCURVE",
"443 15 OFFCURVE",
"361 15 CURVE SMOOTH",
"195 15 OFFCURVE",
"90 151 OFFCURVE",
"90 358 CURVE SMOOTH",
"90 567 OFFCURVE",
"204 701 OFFCURVE",
"376 701 CURVE SMOOTH",
"435 701 OFFCURVE",
"497 688 OFFCURVE",
"547 665 CURVE",
"559 690 LINE",
"504 715 OFFCURVE",
"448 726 OFFCURVE",
"376 726 CURVE SMOOTH",
"184 726 OFFCURVE",
"63 574 OFFCURVE",
"63 358 CURVE SMOOTH",
"63 133 OFFCURVE",
"181 -10 OFFCURVE",
"360 -10 CURVE SMOOTH"
);
}
);
width = 694;
},
{
layerId = "29BFE51A-F5BD-45F8-BEBC-9AD34273B132";
name = Bold;
paths = (
{
closed = 1;
nodes = (
"423 -8 OFFCURVE",
"464 2 OFFCURVE",
"491 18 CURVE",
"491 0 LINE",
"672 0 LINE",
"672 307 LINE",
"491 307 LINE",
"491 167 LINE",
"470 156 OFFCURVE",
"436 149 OFFCURVE",
"406 149 CURVE SMOOTH",
"310 149 OFFCURVE",
"250 219 OFFCURVE",
"250 354 CURVE SMOOTH",
"250 482 OFFCURVE",
"308 566 OFFCURVE",
"427 566 CURVE SMOOTH",
"490 566 OFFCURVE",
"550 550 OFFCURVE",
"597 528 CURVE",
"657 679 LINE",
"599 706 OFFCURVE",
"515 724 OFFCURVE",
"427 724 CURVE SMOOTH",
"191 724 OFFCURVE",
"51 592 OFFCURVE",
"51 356 CURVE SMOOTH",
"51 120 OFFCURVE",
"176 -8 OFFCURVE",
"381 -8 CURVE SMOOTH"
);
}
);
width = 740;
},
{
layerId = "0228171D-2638-482B-876E-783119597845";
name = "Light Condensed";
paths = (
{
closed = 1;
nodes = (
"317 -10 OFFCURVE",
"357 17 OFFCURVE",
"391 50 CURVE",
"391 0 LINE",
"417 0 LINE",
"417 295 LINE",
"391 295 LINE",
"391 82 LINE",
"353 42 OFFCURVE",
"311 15 OFFCURVE",
"253 15 CURVE SMOOTH",
"138 15 OFFCURVE",
"81 145 OFFCURVE",
"81 358 CURVE SMOOTH",
"81 570 OFFCURVE",
"147 701 OFFCURVE",
"263 701 CURVE SMOOTH",
"305 701 OFFCURVE",
"341 686 OFFCURVE",
"372 667 CURVE",
"385 691 LINE",
"349 713 OFFCURVE",
"312 726 OFFCURVE",
"263 726 CURVE SMOOTH",
"122 726 OFFCURVE",
"54 573 OFFCURVE",
"54 358 CURVE SMOOTH",
"54 133 OFFCURVE",
"118 -10 OFFCURVE",
"253 -10 CURVE SMOOTH"
);
}
);
width = 473;
},
{
layerId = "5ABCF6AD-94E3-4DCD-A28A-F55CA80EA6B2";
name = Condensed;
paths = (
{
closed = 1;
nodes = (
"318 -10 OFFCURVE",
"355 10 OFFCURVE",
"385 38 CURVE",
"385 0 LINE",
"466 0 LINE",
"466 300 LINE",
"385 300 LINE",
"385 109 LINE",
"358 82 OFFCURVE",
"324 63 OFFCURVE",
"277 63 CURVE SMOOTH",
"183 63 OFFCURVE",
"134 170 OFFCURVE",
"134 358 CURVE SMOOTH",
"134 542 OFFCURVE",
"192 653 OFFCURVE",
"297 653 CURVE SMOOTH",
"342 653 OFFCURVE",
"382 638 OFFCURVE",
"416 617 CURVE",
"443 686 LINE",
"400 711 OFFCURVE",
"352 725 OFFCURVE",
"296 725 CURVE SMOOTH",
"134 725 OFFCURVE",
"48 579 OFFCURVE",
"48 358 CURVE SMOOTH",
"48 129 OFFCURVE",
"123 -10 OFFCURVE",
"263 -10 CURVE SMOOTH"
);
}
);
width = 520;
},
{
layerId = "E419AE99-0260-44D0-87A9-BD030FD7659A";
name = "SemiBold Condensed";
paths = (
{
closed = 1;
nodes = (
"320 -9 OFFCURVE",
"354 4 OFFCURVE",
"381 27 CURVE",
"381 0 LINE",
"514 0 LINE",
"514 304 LINE",
"381 304 LINE",
"381 135 LINE",
"363 120 OFFCURVE",
"337 108 OFFCURVE",
"301 108 CURVE SMOOTH",
"226 109 OFFCURVE",
"184 194 OFFCURVE",
"184 357 CURVE SMOOTH",
"184 516 OFFCURVE",
"236 607 OFFCURVE",
"330 607 CURVE SMOOTH",
"378 607 OFFCURVE",
"422 593 OFFCURVE",
"459 570 CURVE",
"498 682 LINE",
"450 708 OFFCURVE",
"390 724 OFFCURVE",
"327 724 CURVE SMOOTH",
"145 724 OFFCURVE",
"43 585 OFFCURVE",
"43 357 CURVE SMOOTH",
"43 126 OFFCURVE",
"129 -9 OFFCURVE",
"272 -9 CURVE SMOOTH"
);
}
);
width = 564;
},
{
layerId = "C7A62E0A-0606-4C56-A5B0-C8EA8B1CCAFA";
name = "Bold Condensed";
paths = (
{
closed = 1;
nodes = (
"320 -9 OFFCURVE",
"352 0 OFFCURVE",
"377 20 CURVE",
"377 0 LINE",
"544 0 LINE",
"544 307 LINE",
"377 307 LINE",
"377 152 LINE",
"365 144 OFFCURVE",
"345 137 OFFCURVE",
"316 137 CURVE SMOOTH",
"253 138 OFFCURVE",
"216 209 OFFCURVE",
"216 357 CURVE SMOOTH",
"216 499 OFFCURVE",
"263 578 OFFCURVE",
"350 578 CURVE SMOOTH",
"400 578 OFFCURVE",
"447 564 OFFCURVE",
"486 540 CURVE",
"533 679 LINE",
"481 707 OFFCURVE",
"414 724 OFFCURVE",
"347 724 CURVE SMOOTH",
"152 724 OFFCURVE",
"39 589 OFFCURVE",
"39 357 CURVE SMOOTH",
"39 124 OFFCURVE",
"132 -9 OFFCURVE",
"278 -9 CURVE SMOOTH"
);
}
);
width = 593;
},
{
layerId = "9503992B-9F6A-43B6-8DBC-EB382B06F8D4";
name = Regular;
paths = (
{
closed = 1;
nodes = (
"430 -10 OFFCURVE",
"493 5 OFFCURVE",
"549 35 CURVE",
"549 0 LINE",
"639 0 LINE",
"639 295 LINE",
"549 295 LINE",
"549 114 LINE",
"492 84 OFFCURVE",
"434 69 OFFCURVE",
"375 69 CURVE SMOOTH",
"240 69 OFFCURVE",
"156 178 OFFCURVE",
"156 357 CURVE SMOOTH",
"156 535 OFFCURVE",
"249 645 OFFCURVE",
"403 645 CURVE SMOOTH",
"454 645 OFFCURVE",
"508 632 OFFCURVE",
"565 606 CURVE",
"601 682 LINE",
"545 710 OFFCURVE",
"479 724 OFFCURVE",
"404 724 CURVE SMOOTH",
"191 724 OFFCURVE",
"61 581 OFFCURVE",
"61 358 CURVE SMOOTH",
"61 129 OFFCURVE",
"173 -10 OFFCURVE",
"361 -10 CURVE SMOOTH"
);
}
);
width = 704;
},
{
layerId = "2D9814BA-45F0-4FCB-8967-A366BFC6AA80";
name = SemiBold;
paths = (
{
closed = 1;
nodes = (
"420 -10 OFFCURVE",
"469 3 OFFCURVE",
"513 28 CURVE",
"513 0 LINE",
"664 0 LINE",
"664 295 LINE",
"513 295 LINE",
"513 146 LINE",
"478 126 OFFCURVE",
"436 116 OFFCURVE",
"388 116 CURVE SMOOTH",
"276 116 OFFCURVE",
"214 203 OFFCURVE",
"214 355 CURVE SMOOTH",
"214 503 OFFCURVE",
"299 598 OFFCURVE",
"430 598 CURVE SMOOTH",
"486 598 OFFCURVE",
"541 585 OFFCURVE",
"593 559 CURVE",
"643 680 LINE",
"575 709 OFFCURVE",
"504 724 OFFCURVE",
"431 724 CURVE SMOOTH",
"197 724 OFFCURVE",
"58 588 OFFCURVE",
"58 358 CURVE SMOOTH",
"58 125 OFFCURVE",
"170 -10 OFFCURVE",
"367 -10 CURVE SMOOTH"
);
}
);
width = 724;
}
);
note = uni10BA;
unicode = 10BA;
},
{
color = 5;
glyphname = uni10BB;
lastChange = "2015-09-22 12:09:46 +0000";
layers = (
{
layerId = "F1E1AA8A-A3F5-4941-B4E6-C7B9A7EBF3CF";
name = Light;
paths = (
{
closed = 1;
nodes = (
"430 -10 OFFCURVE",
"508 87 OFFCURVE",
"508 282 CURVE SMOOTH",
"508 448 LINE",
"635 448 LINE",
"635 304 LINE",
"661 304 LINE",
"661 473 LINE",
"508 473 LINE",
"508 714 LINE",
"482 714 LINE",
"482 473 LINE",
"314 473 LINE SMOOTH",
"154 473 OFFCURVE",
"59 383 OFFCURVE",
"59 236 CURVE SMOOTH",
"59 89 OFFCURVE",
"140 -10 OFFCURVE",
"285 -10 CURVE SMOOTH"
);
},
{
closed = 1;
nodes = (
"161 15 OFFCURVE",
"86 101 OFFCURVE",
"86 236 CURVE SMOOTH",
"86 371 OFFCURVE",
"174 448 OFFCURVE",
"314 448 CURVE SMOOTH",
"482 448 LINE",
"482 282 LINE SMOOTH",
"482 102 OFFCURVE",
"409 15 OFFCURVE",
"285 15 CURVE SMOOTH"
);
}
);
width = 691;
},
{
layerId = "29BFE51A-F5BD-45F8-BEBC-9AD34273B132";
name = Bold;
paths = (
{
closed = 1;
nodes = (
"541 -10 OFFCURVE",
"650 86 OFFCURVE",
"650 253 CURVE SMOOTH",
"650 360 LINE",
"711 360 LINE",
"711 261 LINE",
"878 261 LINE",
"878 517 LINE",
"650 517 LINE",
"650 714 LINE",
"459 714 LINE",
"459 517 LINE",
"354 517 LINE SMOOTH",
"152 517 OFFCURVE",
"48 422 OFFCURVE",
"48 251 CURVE SMOOTH",
"48 86 OFFCURVE",
"163 -10 OFFCURVE",
"352 -10 CURVE SMOOTH"
);
},
{
closed = 1;
nodes = (
"283 147 OFFCURVE",
"247 182 OFFCURVE",
"247 253 CURVE SMOOTH",
"247 325 OFFCURVE",
"283 360 OFFCURVE",
"354 360 CURVE SMOOTH",
"459 360 LINE",
"459 262 LINE SMOOTH",
"459 182 OFFCURVE",
"425 147 OFFCURVE",
"354 147 CURVE SMOOTH"
);
}
);
width = 903;
},
{
layerId = "0228171D-2638-482B-876E-783119597845";
name = "Light Condensed";
paths = (
{
closed = 1;
nodes = (
"299 -10 OFFCURVE",
"343 83 OFFCURVE",
"343 242 CURVE SMOOTH",
"343 445 LINE",
"439 445 LINE",
"439 301 LINE",
"465 301 LINE",
"465 470 LINE",
"343 470 LINE",
"343 714 LINE",
"317 714 LINE",
"317 470 LINE",
"221 470 LINE SMOOTH",
"107 470 OFFCURVE",
"45 384 OFFCURVE",
"45 235 CURVE SMOOTH",
"45 83 OFFCURVE",
"93 -10 OFFCURVE",
"195 -10 CURVE SMOOTH"
);
},
{
closed = 1;
nodes = (
"113 15 OFFCURVE",
"72 93 OFFCURVE",
"72 235 CURVE SMOOTH",
"72 373 OFFCURVE",
"125 445 OFFCURVE",
"221 445 CURVE SMOOTH",
"317 445 LINE",
"317 243 LINE SMOOTH",
"317 93 OFFCURVE",
"279 15 OFFCURVE",
"195 15 CURVE SMOOTH"
);
}
);
width = 495;
},
{
layerId = "5ABCF6AD-94E3-4DCD-A28A-F55CA80EA6B2";
name = Condensed;
paths = (
{
closed = 1;
nodes = (
"360 -10 OFFCURVE",
"420 85 OFFCURVE",
"420 252 CURVE SMOOTH",
"420 412 LINE",
"499 412 LINE",
"499 285 LINE",
"573 285 LINE",
"573 482 LINE",
"420 482 LINE",
"420 714 LINE",
"338 714 LINE",
"338 482 LINE",
"251 482 LINE SMOOTH",
"119 482 OFFCURVE",
"43 396 OFFCURVE",
"43 240 CURVE SMOOTH",
"43 85 OFFCURVE",
"111 -10 OFFCURVE",
"234 -10 CURVE SMOOTH"
);
},
{
closed = 1;
nodes = (
"163 63 OFFCURVE",
"128 127 OFFCURVE",
"128 241 CURVE SMOOTH",
"128 353 OFFCURVE",
"169 412 OFFCURVE",
"251 412 CURVE SMOOTH",
"337 412 LINE",
"337 252 LINE SMOOTH",
"337 127 OFFCURVE",
"305 63 OFFCURVE",
"233 63 CURVE SMOOTH"
);
}
);
width = 598;
},
{
layerId = "E419AE99-0260-44D0-87A9-BD030FD7659A";
name = "SemiBold Condensed";
paths = (
{
closed = 1;
nodes = (
"417 -10 OFFCURVE",
"492 86 OFFCURVE",
"492 262 CURVE SMOOTH",
"492 381 LINE",
"554 381 LINE",
"554 271 LINE",
"674 271 LINE",
"674 493 LINE",
"492 493 LINE",
"492 714 LINE",
"356 714 LINE",
"356 493 LINE",
"279 493 LINE SMOOTH",
"129 493 OFFCURVE",
"40 408 OFFCURVE",
"40 244 CURVE SMOOTH",
"40 86 OFFCURVE",
"126 -10 OFFCURVE",
"269 -10 CURVE SMOOTH"
);
},
{
closed = 1;
nodes = (
"211 110 OFFCURVE",
"182 159 OFFCURVE",
"182 246 CURVE SMOOTH",
"182 333 OFFCURVE",
"211 381 OFFCURVE",
"281 381 CURVE SMOOTH",
"357 381 LINE",
"357 260 LINE SMOOTH",
"357 159 OFFCURVE",
"331 110 OFFCURVE",
"270 110 CURVE SMOOTH"
);
}
);
width = 697;
},
{
layerId = "C7A62E0A-0606-4C56-A5B0-C8EA8B1CCAFA";
name = "Bold Condensed";
paths = (
{
closed = 1;
nodes = (
"454 -10 OFFCURVE",
"539 87 OFFCURVE",
"539 268 CURVE SMOOTH",
"539 361 LINE",
"591 361 LINE",
"591 261 LINE",
"740 261 LINE",
"740 500 LINE",
"539 500 LINE",
"539 714 LINE",
"369 714 LINE",
"369 500 LINE",
"298 500 LINE SMOOTH",
"137 500 OFFCURVE",
"39 416 OFFCURVE",
"39 247 CURVE SMOOTH",
"39 87 OFFCURVE",
"137 -10 OFFCURVE",
"293 -10 CURVE SMOOTH"
);
},
{
closed = 1;
nodes = (
"241 139 OFFCURVE",
"216 179 OFFCURVE",
"216 250 CURVE SMOOTH",
"216 321 OFFCURVE",
"238 361 OFFCURVE",
"299 361 CURVE SMOOTH",
"369 361 LINE",
"369 265 LINE SMOOTH",
"369 179 OFFCURVE",
"347 139 OFFCURVE",
"293 139 CURVE SMOOTH"
);
}
);
width = 760;
},
{
layerId = "9503992B-9F6A-43B6-8DBC-EB382B06F8D4";
name = Regular;
paths = (
{
closed = 1;
nodes = (
"446 -10 OFFCURVE",
"533 99 OFFCURVE",
"533 278 CURVE SMOOTH",
"533 419 LINE",
"634 419 LINE",
"634 304 LINE",
"720 304 LINE",
"720 497 LINE",
"533 497 LINE",
"533 714 LINE",
"443 714 LINE",
"443 497 LINE",
"304 497 LINE SMOOTH",
"143 497 OFFCURVE",
"51 403 OFFCURVE",
"51 243 CURVE SMOOTH",
"51 87 OFFCURVE",
"143 -10 OFFCURVE",
"295 -10 CURVE SMOOTH"
);
},
{
closed = 1;
nodes = (
"195 68 OFFCURVE",
"140 132 OFFCURVE",
"140 243 CURVE SMOOTH",
"140 363 OFFCURVE",
"195 419 OFFCURVE",
"307 419 CURVE SMOOTH",
"443 419 LINE",
"443 272 LINE SMOOTH",
"443 143 OFFCURVE",
"392 68 OFFCURVE",
"290 68 CURVE SMOOTH"
);
}
);
width = 750;
},
{
layerId = "2D9814BA-45F0-4FCB-8967-A366BFC6AA80";
name = SemiBold;
paths = (
{
closed = 1;
nodes = (
"506 -10 OFFCURVE",
"616 99 OFFCURVE",
"616 274 CURVE SMOOTH",
"616 387 LINE",
"694 387 LINE",
"694 271 LINE",
"832 271 LINE",
"832 509 LINE",
"616 509 LINE",
"616 714 LINE",
"465 714 LINE",
"465 509 LINE",
"323 509 LINE SMOOTH",
"149 509 OFFCURVE",
"54 417 OFFCURVE",
"54 250 CURVE SMOOTH",
"54 88 OFFCURVE",
"163 -10 OFFCURVE",
"339 -10 CURVE SMOOTH"
);
},
{
closed = 1;
nodes = (
"254 116 OFFCURVE",
"210 161 OFFCURVE",
"210 250 CURVE SMOOTH",
"210 341 OFFCURVE",
"250 385 OFFCURVE",
"336 385 CURVE SMOOTH",
"465 385 LINE",
"465 266 LINE SMOOTH",
"465 166 OFFCURVE",
"427 116 OFFCURVE",
"337 116 CURVE SMOOTH"
);
}
);
width = 856;
}
);
note = uni10BB;
unicode = 10BB;
},
{
color = 5;
glyphname = uni10BC;
lastChange = "2015-09-22 12:29:49 +0000";
layers = (
{
layerId = "F1E1AA8A-A3F5-4941-B4E6-C7B9A7EBF3CF";
name = Light;
paths = (
{
closed = 1;
nodes = (
"129 0 LINE",
"129 174 LINE",
"283 174 LINE",
"283 30 LINE",
"309 30 LINE",
"309 199 LINE",
"129 199 LINE",
"129 305 LINE",
"256 305 LINE SMOOTH",
"414 305 OFFCURVE",
"516 364 OFFCURVE",
"516 519 CURVE SMOOTH",
"516 658 OFFCURVE",
"429 714 OFFCURVE",
"270 714 CURVE SMOOTH",
"103 714 LINE",
"103 0 LINE"
);
},
{
closed = 1;
nodes = (
"129 689 LINE",
"266 689 LINE SMOOTH",
"418 689 OFFCURVE",
"489 639 OFFCURVE",
"489 518 CURVE SMOOTH",
"489 372 OFFCURVE",
"394 330 OFFCURVE",
"254 330 CURVE SMOOTH",
"129 330 LINE"
);
}
);
width = 573;
},
{
layerId = "29BFE51A-F5BD-45F8-BEBC-9AD34273B132";
name = Bold;
paths = (
{
closed = 1;
nodes = (
"270 0 LINE",
"270 91 LINE",
"331 91 LINE",
"331 24 LINE",
"498 24 LINE",
"498 248 LINE",
"270 248 LINE",
"270 284 LINE",
"324 284 LINE SMOOTH",
"527 284 OFFCURVE",
"595 392 OFFCURVE",
"595 509 CURVE SMOOTH",
"595 640 OFFCURVE",
"505 714 OFFCURVE",
"324 714 CURVE SMOOTH",
"77 714 LINE",
"77 0 LINE"
);
},
{
closed = 1;
nodes = (
"270 559 LINE",
"320 559 LINE SMOOTH",
"376 559 OFFCURVE",
"402 536 OFFCURVE",
"402 504 CURVE SMOOTH",
"402 457 OFFCURVE",
"358 440 OFFCURVE",
"308 440 CURVE SMOOTH",
"270 440 LINE"
);
}
);
width = 632;
},
{
layerId = "0228171D-2638-482B-876E-783119597845";
name = "Light Condensed";
paths = (
{
closed = 1;
nodes = (
"104 0 LINE",
"104 173 LINE",
"200 173 LINE",
"200 30 LINE",
"226 30 LINE",
"226 198 LINE",
"104 198 LINE",
"104 306 LINE",
"172 306 LINE SMOOTH",
"303 306 OFFCURVE",
"362 366 OFFCURVE",
"362 519 CURVE SMOOTH",
"362 663 OFFCURVE",
"300 714 OFFCURVE",
"172 714 CURVE SMOOTH",
"78 714 LINE",
"78 0 LINE"
);
},
{
closed = 1;
nodes = (
"104 689 LINE",
"171 689 LINE SMOOTH",
"282 689 OFFCURVE",
"335 645 OFFCURVE",
"335 520 CURVE SMOOTH",
"335 385 OFFCURVE",
"285 331 OFFCURVE",
"178 331 CURVE SMOOTH",
"104 331 LINE"
);
}
);
width = 395;
},
{
layerId = "5ABCF6AD-94E3-4DCD-A28A-F55CA80EA6B2";
name = Condensed;
paths = (
{
closed = 1;
nodes = (
"153 0 LINE",
"153 148 LINE",
"232 148 LINE",
"232 28 LINE",
"306 28 LINE",
"306 218 LINE",
"153 218 LINE",
"153 297 LINE",
"208 297 LINE SMOOTH",
"349 297 OFFCURVE",
"413 376 OFFCURVE",
"413 513 CURVE SMOOTH",
"413 651 OFFCURVE",
"346 714 OFFCURVE",
"211 714 CURVE SMOOTH",
"71 714 LINE",
"71 0 LINE"
);
},
{
closed = 1;
nodes = (
"153 643 LINE",
"204 643 LINE SMOOTH",
"289 643 OFFCURVE",
"330 607 OFFCURVE",
"330 513 CURVE SMOOTH",
"330 413 OFFCURVE",
"288 369 OFFCURVE",
"204 369 CURVE SMOOTH",
"153 369 LINE"
);
}
);
width = 444;
},
{
layerId = "E419AE99-0260-44D0-87A9-BD030FD7659A";
name = "SemiBold Condensed";
paths = (
{
closed = 1;
nodes = (
"200 0 LINE",
"200 124 LINE",
"262 124 LINE",
"262 25 LINE",
"382 25 LINE",
"382 236 LINE",
"200 236 LINE",
"200 289 LINE",
"241 289 LINE SMOOTH",
"393 289 OFFCURVE",
"462 385 OFFCURVE",
"462 507 CURVE SMOOTH",
"462 639 OFFCURVE",
"390 714 OFFCURVE",
"248 714 CURVE SMOOTH",
"64 714 LINE",
"64 0 LINE"
);
},
{
closed = 1;
nodes = (
"199 598 LINE",
"235 598 LINE SMOOTH",
"295 598 OFFCURVE",
"325 571 OFFCURVE",
"325 506 CURVE SMOOTH",
"325 439 OFFCURVE",
"289 405 OFFCURVE",
"228 405 CURVE SMOOTH",
"199 405 LINE"
);
}
);
width = 490;
},
{
layerId = "C7A62E0A-0606-4C56-A5B0-C8EA8B1CCAFA";
name = "Bold Condensed";
paths = (
{
closed = 1;
nodes = (
"229 0 LINE",
"229 109 LINE",
"281 109 LINE",
"281 24 LINE",
"430 24 LINE",
"430 248 LINE",
"229 248 LINE",
"229 284 LINE",
"262 284 LINE SMOOTH",
"420 284 OFFCURVE",
"492 391 OFFCURVE",
"492 503 CURVE SMOOTH",
"492 632 OFFCURVE",
"418 714 OFFCURVE",
"271 714 CURVE SMOOTH",
"59 714 LINE",
"59 0 LINE"
);
},
{
closed = 1;
nodes = (
"229 570 LINE",
"255 570 LINE SMOOTH",
"300 570 OFFCURVE",
"322 548 OFFCURVE",
"322 502 CURVE SMOOTH",
"322 456 OFFCURVE",
"291 428 OFFCURVE",
"244 428 CURVE SMOOTH",
"229 428 LINE"
);
}
);
width = 520;
},
{
layerId = "9503992B-9F6A-43B6-8DBC-EB382B06F8D4";
name = Regular;
paths = (
{
closed = 1;
nodes = (
"188 0 LINE",
"188 131 LINE",
"309 131 LINE",
"309 30 LINE",
"395 30 LINE",
"395 208 LINE",
"188 208 LINE",
"188 292 LINE",
"270 292 LINE SMOOTH",
"454 292 OFFCURVE",
"555 371 OFFCURVE",
"555 511 CURVE SMOOTH",
"555 646 OFFCURVE",
"466 714 OFFCURVE",
"287 714 CURVE SMOOTH",
"98 714 LINE",
"98 0 LINE"
);
},
{
closed = 1;
nodes = (
"188 637 LINE",
"279 637 LINE SMOOTH",
"404 637 OFFCURVE",
"462 594 OFFCURVE",
"462 507 CURVE SMOOTH",
"462 411 OFFCURVE",
"401 369 OFFCURVE",
"260 369 CURVE SMOOTH",
"188 369 LINE"
);
}
);
width = 606;
},
{
layerId = "2D9814BA-45F0-4FCB-8967-A366BFC6AA80";
name = SemiBold;
paths = (
{
closed = 1;
nodes = (
"241 0 LINE",
"241 108 LINE",
"333 108 LINE",
"333 34 LINE",
"471 34 LINE",
"471 232 LINE",
"241 232 LINE",
"241 287 LINE",
"306 287 LINE SMOOTH",
"483 287 OFFCURVE",
"583 364 OFFCURVE",
"583 507 CURVE SMOOTH",
"583 644 OFFCURVE",
"492 714 OFFCURVE",
"318 714 CURVE SMOOTH",
"90 714 LINE",
"90 0 LINE"
);
},
{
closed = 1;
nodes = (
"241 590 LINE",
"310 590 LINE SMOOTH",
"393 590 OFFCURVE",
"430 561 OFFCURVE",
"430 502 CURVE SMOOTH",
"430 441 OFFCURVE",
"384 411 OFFCURVE",
"291 411 CURVE SMOOTH",
"241 411 LINE"
);
}
);
width = 628;
}
);
note = uni10BC;
unicode = 10BC;
},
{
color = 5;
glyphname = uni10BD;
lastChange = "2015-09-22 12:09:46 +0000";
layers = (
{
layerId = "F1E1AA8A-A3F5-4941-B4E6-C7B9A7EBF3CF";
name = Light;
paths = (
{
closed = 1;
nodes = (
"427 -10 OFFCURVE",
"499 63 OFFCURVE",
"499 175 CURVE SMOOTH",
"499 289 OFFCURVE",
"434 332 OFFCURVE",
"296 383 CURVE SMOOTH",
"180 426 OFFCURVE",
"127 466 OFFCURVE",
"127 555 CURVE SMOOTH",
"127 644 OFFCURVE",
"191 699 OFFCURVE",
"296 699 CURVE SMOOTH",
"391 699 OFFCURVE",
"455 642 OFFCURVE",
"455 575 CURVE SMOOTH",
"455 565 OFFCURVE",
"454 555 OFFCURVE",
"452 547 CURVE",
"479 547 LINE",
"481 555 OFFCURVE",
"482 567 OFFCURVE",
"482 576 CURVE SMOOTH",
"482 658 OFFCURVE",
"407 724 OFFCURVE",
"297 724 CURVE SMOOTH",
"179 724 OFFCURVE",
"100 660 OFFCURVE",
"100 555 CURVE SMOOTH",
"100 464 OFFCURVE",
"139 411 OFFCURVE",
"287 356 CURVE SMOOTH",
"414 309 OFFCURVE",
"472 277 OFFCURVE",
"472 174 CURVE SMOOTH",
"472 80 OFFCURVE",
"414 15 OFFCURVE",
"288 15 CURVE SMOOTH",
"157 15 OFFCURVE",
"84 84 OFFCURVE",
"84 175 CURVE SMOOTH",
"84 197 OFFCURVE",
"86 217 OFFCURVE",
"92 234 CURVE",
"64 234 LINE",
"60 216 OFFCURVE",
"57 197 OFFCURVE",
"57 175 CURVE SMOOTH",
"57 63 OFFCURVE",
"147 -10 OFFCURVE",
"287 -10 CURVE SMOOTH"
);
}
);
width = 569;
},
{
layerId = "29BFE51A-F5BD-45F8-BEBC-9AD34273B132";
name = Bold;
paths = (
{
closed = 1;
nodes = (
"471 -10 OFFCURVE",
"561 67 OFFCURVE",
"561 207 CURVE SMOOTH",
"561 338 OFFCURVE",
"469 388 OFFCURVE",
"363 432 CURVE SMOOTH",
"294 461 OFFCURVE",
"238 477 OFFCURVE",
"238 519 CURVE SMOOTH",
"238 549 OFFCURVE",
"262 567 OFFCURVE",
"298 567 CURVE SMOOTH",
"334 567 OFFCURVE",
"361 549 OFFCURVE",
"361 515 CURVE SMOOTH",
"361 509 OFFCURVE",
"360 503 OFFCURVE",
"359 498 CURVE",
"544 498 LINE",
"545 502 OFFCURVE",
"546 512 OFFCURVE",
"546 520 CURVE SMOOTH",
"546 657 OFFCURVE",
"438 724 OFFCURVE",
"296 724 CURVE SMOOTH",
"157 724 OFFCURVE",
"53 656 OFFCURVE",
"53 512 CURVE SMOOTH",
"53 381 OFFCURVE",
"166 330 OFFCURVE",
"261 287 CURVE SMOOTH",
"323 259 OFFCURVE",
"375 243 OFFCURVE",
"375 201 CURVE SMOOTH",
"375 164 OFFCURVE",
"346 146 OFFCURVE",
"300 146 CURVE SMOOTH",
"253 146 OFFCURVE",
"226 168 OFFCURVE",
"226 204 CURVE SMOOTH",
"226 214 OFFCURVE",
"228 227 OFFCURVE",
"231 234 CURVE",
"47 234 LINE",
"43 222 OFFCURVE",
"40 202 OFFCURVE",
"40 185 CURVE SMOOTH",
"40 63 OFFCURVE",
"126 -10 OFFCURVE",
"295 -10 CURVE SMOOTH"
);
}
);
width = 606;
},
{
layerId = "0228171D-2638-482B-876E-783119597845";
name = "Light Condensed";
paths = (
{
closed = 1;
nodes = (
"288 -10 OFFCURVE",
"342 55 OFFCURVE",
"342 165 CURVE SMOOTH",
"342 287 OFFCURVE",
"277 335 OFFCURVE",
"215 378 CURVE SMOOTH",
"153 421 OFFCURVE",
"100 455 OFFCURVE",
"100 555 CURVE SMOOTH",
"100 643 OFFCURVE",
"134 699 OFFCURVE",
"206 699 CURVE SMOOTH",
"274 699 OFFCURVE",
"308 645 OFFCURVE",
"308 575 CURVE SMOOTH",
"308 565 OFFCURVE",
"307 555 OFFCURVE",
"305 547 CURVE",
"332 547 LINE",
"334 555 OFFCURVE",
"335 567 OFFCURVE",
"335 576 CURVE SMOOTH",
"335 658 OFFCURVE",
"290 724 OFFCURVE",
"207 724 CURVE SMOOTH",
"122 724 OFFCURVE",
"73 659 OFFCURVE",
"73 555 CURVE SMOOTH",
"73 441 OFFCURVE",
"137 399 OFFCURVE",
"199 356 CURVE SMOOTH",
"258 315 OFFCURVE",
"315 271 OFFCURVE",
"315 164 CURVE SMOOTH",
"315 72 OFFCURVE",
"271 15 OFFCURVE",
"201 15 CURVE SMOOTH",
"120 15 OFFCURVE",
"77 74 OFFCURVE",
"77 165 CURVE SMOOTH",
"77 188 OFFCURVE",
"79 212 OFFCURVE",
"85 234 CURVE",
"57 234 LINE",
"53 216 OFFCURVE",
"50 188 OFFCURVE",
"50 165 CURVE SMOOTH",
"50 53 OFFCURVE",
"110 -10 OFFCURVE",
"200 -10 CURVE SMOOTH"
);
}
);
width = 396;
},
{
layerId = "5ABCF6AD-94E3-4DCD-A28A-F55CA80EA6B2";
name = Condensed;
paths = (
{
closed = 1;
nodes = (
"327 -10 OFFCURVE",
"389 58 OFFCURVE",
"389 174 CURVE SMOOTH",
"389 296 OFFCURVE",
"322 347 OFFCURVE",
"255 393 CURVE SMOOTH",
"190 438 OFFCURVE",
"143 467 OFFCURVE",
"143 546 CURVE SMOOTH",
"143 613 OFFCURVE",
"167 655 OFFCURVE",
"221 655 CURVE SMOOTH",
"272 655 OFFCURVE",
"297 614 OFFCURVE",
"297 555 CURVE SMOOTH",
"297 547 OFFCURVE",
"296 538 OFFCURVE",
"294 531 CURVE",
"376 531 LINE",
"377 538 OFFCURVE",
"378 549 OFFCURVE",
"378 557 CURVE SMOOTH",
"378 657 OFFCURVE",
"320 724 OFFCURVE",
"222 724 CURVE SMOOTH",
"121 724 OFFCURVE",
"60 655 OFFCURVE",
"60 543 CURVE SMOOTH",
"60 427 OFFCURVE",
"131 382 OFFCURVE",
"199 333 CURVE SMOOTH",
"253 295 OFFCURVE",
"306 258 OFFCURVE",
"306 171 CURVE SMOOTH",
"306 101 OFFCURVE",
"271 59 OFFCURVE",
"218 59 CURVE SMOOTH",
"158 59 OFFCURVE",
"125 103 OFFCURVE",
"125 172 CURVE SMOOTH",
"125 196 OFFCURVE",
"127 216 OFFCURVE",
"131 234 CURVE",
"50 234 LINE",
"47 217 OFFCURVE",
"44 193 OFFCURVE",
"44 170 CURVE SMOOTH",
"44 57 OFFCURVE",
"109 -10 OFFCURVE",
"218 -10 CURVE SMOOTH"
);
}
);
width = 435;
},
{
layerId = "E419AE99-0260-44D0-87A9-BD030FD7659A";
name = "SemiBold Condensed";
paths = (
{
closed = 1;
nodes = (
"365 -10 OFFCURVE",
"434 61 OFFCURVE",
"434 183 CURVE SMOOTH",
"434 305 OFFCURVE",
"365 358 OFFCURVE",
"293 408 CURVE SMOOTH",
"226 455 OFFCURVE",
"184 478 OFFCURVE",
"184 538 CURVE SMOOTH",
"184 584 OFFCURVE",
"200 612 OFFCURVE",
"236 612 CURVE SMOOTH",
"271 612 OFFCURVE",
"287 585 OFFCURVE",
"287 537 CURVE SMOOTH",
"287 530 OFFCURVE",
"286 521 OFFCURVE",
"285 516 CURVE",
"418 516 LINE",
"419 522 OFFCURVE",
"419 531 OFFCURVE",
"419 539 CURVE SMOOTH",
"419 656 OFFCURVE",
"350 724 OFFCURVE",
"236 724 CURVE SMOOTH",
"120 724 OFFCURVE",
"49 651 OFFCURVE",
"49 532 CURVE SMOOTH",
"49 414 OFFCURVE",
"127 366 OFFCURVE",
"199 312 CURVE SMOOTH",
"249 275 OFFCURVE",
"298 245 OFFCURVE",
"298 178 CURVE SMOOTH",
"298 128 OFFCURVE",
"272 102 OFFCURVE",
"236 102 CURVE SMOOTH",
"196 102 OFFCURVE",
"171 131 OFFCURVE",
"171 179 CURVE SMOOTH",
"171 204 OFFCURVE",
"173 220 OFFCURVE",
"176 234 CURVE",
"44 234 LINE",
"41 218 OFFCURVE",
"39 198 OFFCURVE",
"39 176 CURVE SMOOTH",
"39 61 OFFCURVE",
"109 -10 OFFCURVE",
"235 -10 CURVE SMOOTH"
);
}
);
width = 473;
},
{
layerId = "C7A62E0A-0606-4C56-A5B0-C8EA8B1CCAFA";
name = "Bold Condensed";
paths = (
{
closed = 1;
nodes = (
"388 -10 OFFCURVE",
"462 63 OFFCURVE",
"462 189 CURVE SMOOTH",
"462 310 OFFCURVE",
"392 365 OFFCURVE",
"317 417 CURVE SMOOTH",
"248 465 OFFCURVE",
"210 485 OFFCURVE",
"210 533 CURVE SMOOTH",
"210 566 OFFCURVE",
"220 585 OFFCURVE",
"245 585 CURVE SMOOTH",
"269 585 OFFCURVE",
"280 566 OFFCURVE",
"280 525 CURVE SMOOTH",
"280 519 OFFCURVE",
"279 511 OFFCURVE",
"278 506 CURVE",
"444 506 LINE",
"445 512 OFFCURVE",
"445 520 OFFCURVE",
"445 527 CURVE SMOOTH",
"445 656 OFFCURVE",
"368 724 OFFCURVE",
"245 724 CURVE SMOOTH",
"119 724 OFFCURVE",
"41 649 OFFCURVE",
"41 525 CURVE SMOOTH",
"41 406 OFFCURVE",
"123 356 OFFCURVE",
"199 298 CURVE SMOOTH",
"245 263 OFFCURVE",
"292 237 OFFCURVE",
"292 183 CURVE SMOOTH",
"292 146 OFFCURVE",
"272 129 OFFCURVE",
"246 129 CURVE SMOOTH",
"219 129 OFFCURVE",
"200 149 OFFCURVE",
"200 184 CURVE SMOOTH",
"200 209 OFFCURVE",
"202 223 OFFCURVE",
"204 234 CURVE",
"40 234 LINE",
"37 219 OFFCURVE",
"35 201 OFFCURVE",
"35 179 CURVE SMOOTH",
"35 63 OFFCURVE",
"108 -10 OFFCURVE",
"246 -10 CURVE SMOOTH"
);
}
);
width = 497;
},
{
layerId = "9503992B-9F6A-43B6-8DBC-EB382B06F8D4";
name = Regular;
paths = (
{
closed = 1;
nodes = (
"433 -10 OFFCURVE",
"518 66 OFFCURVE",
"518 188 CURVE SMOOTH",
"518 302 OFFCURVE",
"449 350 OFFCURVE",
"323 397 CURVE SMOOTH",
"224 434 OFFCURVE",
"167 462 OFFCURVE",
"167 541 CURVE SMOOTH",
"167 606 OFFCURVE",
"217 645 OFFCURVE",
"295 645 CURVE SMOOTH",
"369 645 OFFCURVE",
"411 606 OFFCURVE",
"411 551 CURVE SMOOTH",
"411 543 OFFCURVE",
"410 535 OFFCURVE",
"409 528 CURVE",
"499 528 LINE",
"500 535 OFFCURVE",
"501 544 OFFCURVE",
"501 552 CURVE",
"501 656 OFFCURVE",
"428 724 OFFCURVE",
"297 724 CURVE SMOOTH",
"167 724 OFFCURVE",
"76 653 OFFCURVE",
"76 542 CURVE SMOOTH",
"76 440 OFFCURVE",
"128 379 OFFCURVE",
"260 330 CURVE SMOOTH",
"364 291 OFFCURVE",
"428 262 OFFCURVE",
"428 183 CURVE SMOOTH",
"428 111 OFFCURVE",
"383 68 OFFCURVE",
"283 68 CURVE SMOOTH",
"183 68 OFFCURVE",
"135 112 OFFCURVE",
"135 181 CURVE SMOOTH",
"135 201 OFFCURVE",
"137 218 OFFCURVE",
"142 234 CURVE",
"52 234 LINE",
"48 217 OFFCURVE",
"45 199 OFFCURVE",
"45 179 CURVE SMOOTH",
"45 61 OFFCURVE",
"131 -10 OFFCURVE",
"282 -10 CURVE SMOOTH"
);
}
);
width = 576;
},
{
layerId = "2D9814BA-45F0-4FCB-8967-A366BFC6AA80";
name = SemiBold;
paths = (
{
closed = 1;
nodes = (
"451 -10 OFFCURVE",
"547 67 OFFCURVE",
"547 198 CURVE SMOOTH",
"547 309 OFFCURVE",
"478 363 OFFCURVE",
"359 412 CURVE SMOOTH",
"255 455 OFFCURVE",
"213 479 OFFCURVE",
"213 528 CURVE SMOOTH",
"213 570 OFFCURVE",
"242 598 OFFCURVE",
"295 598 CURVE SMOOTH",
"352 598 OFFCURVE",
"383 573 OFFCURVE",
"383 529 CURVE",
"383 523 OFFCURVE",
"382 515 OFFCURVE",
"381 510 CURVE",
"529 510 LINE",
"530 516 OFFCURVE",
"531 523 OFFCURVE",
"531 530 CURVE",
"531 655 OFFCURVE",
"447 724 OFFCURVE",
"296 724 CURVE SMOOTH",
"153 724 OFFCURVE",
"65 648 OFFCURVE",
"65 521 CURVE SMOOTH",
"65 415 OFFCURVE",
"136 359 OFFCURVE",
"251 310 CURVE SMOOTH",
"336 273 OFFCURVE",
"399 246 OFFCURVE",
"399 193 CURVE SMOOTH",
"399 142 OFFCURVE",
"361 115 OFFCURVE",
"295 115 CURVE SMOOTH",
"226 115 OFFCURVE",
"193 145 OFFCURVE",
"193 193 CURVE SMOOTH",
"193 207 OFFCURVE",
"195 221 OFFCURVE",
"199 234 CURVE",
"52 234 LINE",
"47 218 OFFCURVE",
"45 201 OFFCURVE",
"45 183 CURVE SMOOTH",
"45 63 OFFCURVE",
"128 -10 OFFCURVE",
"289 -10 CURVE SMOOTH"
);
}
);
width = 597;
}
);
note = uni10BD;
unicode = 10BD;
},
{
color = 5;
glyphname = uni10BE;
lastChange = "2015-09-22 12:09:46 +0000";
layers = (
{
layerId = "F1E1AA8A-A3F5-4941-B4E6-C7B9A7EBF3CF";
name = Light;
paths = (
{
closed = 1;
nodes = (
"546 0 LINE",
"546 25 LINE",
"129 25 LINE",
"129 267 LINE SMOOTH",
"129 284 OFFCURVE",
"128 334 OFFCURVE",
"126 363 CURVE",
"129 363 LINE",
"159 297 OFFCURVE",
"216 232 OFFCURVE",
"344 232 CURVE SMOOTH",
"472 232 OFFCURVE",
"572 294 OFFCURVE",
"572 489 CURVE SMOOTH",
"572 714 LINE",
"546 714 LINE",
"546 490 LINE SMOOTH",
"546 326 OFFCURVE",
"472 258 OFFCURVE",
"342 258 CURVE SMOOTH",
"212 258 OFFCURVE",
"129 336 OFFCURVE",
"129 490 CURVE SMOOTH",
"129 714 LINE",
"103 714 LINE",
"103 0 LINE"
);
}
);
width = 661;
},
{
layerId = "29BFE51A-F5BD-45F8-BEBC-9AD34273B132";
name = Bold;
paths = (
{
closed = 1;
nodes = (
"657 0 LINE",
"657 156 LINE",
"271 156 LINE",
"271 163 LINE SMOOTH",
"271 209 OFFCURVE",
"268 255 OFFCURVE",
"262 299 CURVE",
"267 299 LINE",
"306 243 OFFCURVE",
"370 212 OFFCURVE",
"455 212 CURVE SMOOTH",
"608 212 OFFCURVE",
"694 311 OFFCURVE",
"694 470 CURVE SMOOTH",
"694 714 LINE",
"500 714 LINE",
"500 489 LINE SMOOTH",
"500 408 OFFCURVE",
"457 369 OFFCURVE",
"388 369 CURVE SMOOTH",
"306 369 OFFCURVE",
"271 424 OFFCURVE",
"271 537 CURVE SMOOTH",
"271 714 LINE",
"77 714 LINE",
"77 0 LINE"
);
}
);
width = 763;
},
{
layerId = "0228171D-2638-482B-876E-783119597845";
name = "Light Condensed";
paths = (
{
closed = 1;
nodes = (
"377 0 LINE",
"377 25 LINE",
"104 25 LINE",
"104 270 LINE SMOOTH",
"104 288 OFFCURVE",
"104 320 OFFCURVE",
"102 347 CURVE",
"104 347 LINE",
"125 283 OFFCURVE",
"164 233 OFFCURVE",
"242 233 CURVE SMOOTH",
"333 233 OFFCURVE",
"393 288 OFFCURVE",
"393 467 CURVE SMOOTH",
"393 714 LINE",
"367 714 LINE",
"367 469 LINE SMOOTH",
"367 320 OFFCURVE",
"328 258 OFFCURVE",
"240 258 CURVE SMOOTH",
"154 258 OFFCURVE",
"104 329 OFFCURVE",
"104 490 CURVE SMOOTH",
"104 714 LINE",
"78 714 LINE",
"78 0 LINE"
);
}
);
width = 462;
},
{
layerId = "5ABCF6AD-94E3-4DCD-A28A-F55CA80EA6B2";
name = Condensed;
paths = (
{
closed = 1;
nodes = (
"438 0 LINE",
"438 73 LINE",
"153 73 LINE",
"153 242 LINE SMOOTH",
"153 266 OFFCURVE",
"152 303 OFFCURVE",
"150 334 CURVE",
"152 334 LINE",
"177 275 OFFCURVE",
"218 233 OFFCURVE",
"295 233 CURVE SMOOTH",
"399 233 OFFCURVE",
"458 306 OFFCURVE",
"458 472 CURVE SMOOTH",
"458 714 LINE",
"376 714 LINE",
"376 478 LINE SMOOTH",
"376 354 OFFCURVE",
"343 301 OFFCURVE",
"268 301 CURVE SMOOTH",
"195 301 OFFCURVE",
"153 359 OFFCURVE",
"153 502 CURVE SMOOTH",
"153 714 LINE",
"71 714 LINE",
"71 0 LINE"
);
}
);
width = 521;
},
{
layerId = "E419AE99-0260-44D0-87A9-BD030FD7659A";
name = "SemiBold Condensed";
paths = (
{
closed = 1;
nodes = (
"495 0 LINE",
"495 118 LINE",
"200 118 LINE",
"200 216 LINE SMOOTH",
"200 245 OFFCURVE",
"198 287 OFFCURVE",
"195 321 CURVE",
"198 321 LINE",
"225 268 OFFCURVE",
"270 232 OFFCURVE",
"345 232 CURVE SMOOTH",
"462 232 OFFCURVE",
"520 323 OFFCURVE",
"520 477 CURVE SMOOTH",
"520 714 LINE",
"383.006 714 LINE",
"383 487 LINE SMOOTH",
"383 386 OFFCURVE",
"357 341 OFFCURVE",
"295 341 CURVE SMOOTH",
"233 341 OFFCURVE",
"200 388 OFFCURVE",
"200 513 CURVE SMOOTH",
"200 714 LINE",
"64 714 LINE",
"64 0 LINE"
);
}
);
width = 576;
},
{
layerId = "C7A62E0A-0606-4C56-A5B0-C8EA8B1CCAFA";
name = "Bold Condensed";
paths = (
{
closed = 1;
nodes = (
"531 0 LINE",
"531 147 LINE",
"229 147 LINE",
"229 199 LINE SMOOTH",
"229 232 OFFCURVE",
"227 277 OFFCURVE",
"223 313 CURVE",
"227 313 LINE",
"256 263 OFFCURVE",
"302 232 OFFCURVE",
"376 232 CURVE SMOOTH",
"501 232 OFFCURVE",
"559 334 OFFCURVE",
"559 480 CURVE SMOOTH",
"559 714 LINE",
"388 714 LINE",
"388 492 LINE SMOOTH",
"388 406 OFFCURVE",
"365 367 OFFCURVE",
"311 367 CURVE SMOOTH",
"257 367 OFFCURVE",
"229 407 OFFCURVE",
"229 520 CURVE SMOOTH",
"229 714 LINE",
"59 714 LINE",
"59 0 LINE"
);
}
);
width = 612;
},
{
layerId = "9503992B-9F6A-43B6-8DBC-EB382B06F8D4";
name = Regular;
paths = (
{
closed = 1;
nodes = (
"589 0 LINE",
"589 78 LINE",
"188 78 LINE",
"188 242 LINE SMOOTH",
"188 250 OFFCURVE",
"187 279 OFFCURVE",
"183 328 CURVE",
"189 328 LINE",
"234 258 OFFCURVE",
"292 226 OFFCURVE",
"378 226 CURVE SMOOTH",
"542 226 OFFCURVE",
"627 314 OFFCURVE",
"627 485 CURVE SMOOTH",
"627 714 LINE",
"537 714 LINE",
"537 484 LINE SMOOTH",
"537 360 OFFCURVE",
"485 304 OFFCURVE",
"374 304 CURVE SMOOTH",
"257 304 OFFCURVE",
"188 377 OFFCURVE",
"188 494 CURVE SMOOTH",
"188 714 LINE",
"98 714 LINE",
"98 0 LINE"
);
}
);
width = 703;
},
{
layerId = "2D9814BA-45F0-4FCB-8967-A366BFC6AA80";
name = SemiBold;
paths = (
{
closed = 1;
nodes = (
"639 0 LINE",
"639 126 LINE",
"241 126 LINE",
"241 176 LINE SMOOTH",
"241 199 OFFCURVE",
"239 242 OFFCURVE",
"234 305 CURVE",
"239 305 LINE",
"281 243 OFFCURVE",
"340 212 OFFCURVE",
"428 212 CURVE SMOOTH",
"584 212 OFFCURVE",
"676 307 OFFCURVE",
"676 461 CURVE SMOOTH",
"676 714 LINE",
"525 714 LINE",
"525 479 LINE SMOOTH",
"525 385 OFFCURVE",
"483 338 OFFCURVE",
"392 338 CURVE SMOOTH",
"281 338 OFFCURVE",
"241 392 OFFCURVE",
"241 527 CURVE SMOOTH",
"241 714 LINE",
"90 714 LINE",
"90 0 LINE"
);
}
);
width = 751;
}
);
note = uni10BE;
unicode = 10BE;
},
{
color = 5;
glyphname = uni10BF;
lastChange = "2015-09-22 15:01:21 +0000";
layers = (
{
layerId = "F1E1AA8A-A3F5-4941-B4E6-C7B9A7EBF3CF";
name = Light;
paths = (
{
closed = 1;
nodes = (
"87 0 LINE",
"325 350 LINE",
"494 100 LINE",
"525 100 LINE",
"343 370 LINE",
"556 696 LINE",
"556 714 LINE",
"15 714 LINE",
"15 689 LINE",
"97 689 LINE",
"308 370 LINE",
"56 0 LINE"
);
},
{
closed = 1;
nodes = (
"127 689 LINE",
"520 689 LINE",
"326 390 LINE"
);
}
);
width = 581;
},
{
layerId = "29BFE51A-F5BD-45F8-BEBC-9AD34273B132";
name = Bold;
paths = (
{
closed = 1;
nodes = (
"224 0 LINE",
"362 228 LINE",
"443 98 LINE",
"659 98 LINE",
"481 355 LINE",
"634 595 LINE",
"634 714 LINE",
"20 714 LINE",
"20 558 LINE",
"120 558 LINE",
"243 370 LINE",
"6 0 LINE"
);
},
{
closed = 1;
nodes = (
"316 558 LINE",
"414 558 LINE",
"365 483 LINE"
);
}
);
width = 667;
},
{
layerId = "0228171D-2638-482B-876E-783119597845";
name = "Light Condensed";
paths = (
{
closed = 1;
nodes = (
"70 0 LINE",
"226 349 LINE",
"333 100 LINE",
"361 100 LINE",
"242 371 LINE",
"382 699 LINE",
"382 714 LINE",
"10 714 LINE",
"10 689 LINE",
"76 689 LINE",
"209 370 LINE",
"42 0 LINE"
);
},
{
closed = 1;
nodes = (
"104 689 LINE",
"351 689 LINE",
"226 391 LINE"
);
}
);
width = 402;
},
{
layerId = "5ABCF6AD-94E3-4DCD-A28A-F55CA80EA6B2";
name = Condensed;
paths = (
{
closed = 1;
nodes = (
"121 0 LINE",
"254 301 LINE",
"342 98 LINE",
"431 98 LINE",
"306 367 LINE",
"436 660 LINE",
"436 714 LINE",
"14 714 LINE",
"14 641 LINE",
"84 641 LINE",
"202 367 LINE",
"30 0 LINE"
);
},
{
closed = 1;
nodes = (
"165 641 LINE",
"345 641 LINE",
"254 429 LINE"
);
}
);
width = 456;
},
{
layerId = "E419AE99-0260-44D0-87A9-BD030FD7659A";
name = "SemiBold Condensed";
paths = (
{
closed = 1;
nodes = (
"170 0 LINE",
"281 256 LINE",
"350 97 LINE",
"498 97 LINE",
"367 363 LINE",
"488 624 LINE",
"488 714 LINE",
"18 714 LINE",
"18 596 LINE",
"91 596 LINE",
"196 364 LINE",
"18 0 LINE"
);
},
{
closed = 1;
nodes = (
"224 596 LINE",
"341 596 LINE",
"282 465 LINE"
);
}
);
width = 507;
},
{
layerId = "C7A62E0A-0606-4C56-A5B0-C8EA8B1CCAFA";
name = "Bold Condensed";
paths = (
{
closed = 1;
nodes = (
"201 0 LINE",
"298 227 LINE",
"355 96 LINE",
"540 96 LINE",
"405 360 LINE",
"520 600 LINE",
"520 714 LINE",
"20 714 LINE",
"20 567 LINE",
"95 567 LINE",
"191 362 LINE",
"10 0 LINE"
);
},
{
closed = 1;
nodes = (
"251 567 LINE",
"347 567 LINE",
"299 473 LINE"
);
}
);
width = 540;
},
{
layerId = "9503992B-9F6A-43B6-8DBC-EB382B06F8D4";
name = Regular;
paths = (
{
closed = 1;
nodes = (
"131 0 LINE",
"336 307 LINE",
"471 100 LINE",
"571 100 LINE",
"389 371 LINE",
"577 645 LINE",
"577 714 LINE",
"15 714 LINE",
"15 636 LINE",
"111 636 LINE",
"286 369 LINE",
"36 0 LINE"
);
},
{
closed = 1;
nodes = (
"209 636 LINE",
"478 636 LINE",
"339 431 LINE"
);
}
);
width = 619;
},
{
layerId = "2D9814BA-45F0-4FCB-8967-A366BFC6AA80";
name = SemiBold;
paths = (
{
closed = 1;
nodes = (
"197 0 LINE",
"359 263 LINE",
"465 93 LINE",
"631 93 LINE",
"457 353 LINE",
"615 603 LINE",
"615 714 LINE",
"20 714 LINE",
"20 594 LINE",
"118 594 LINE",
"268 361 LINE",
"35 0 LINE"
);
},
{
closed = 1;
nodes = (
"280 594 LINE",
"451 594 LINE",
"367 450 LINE"
);
}
);
width = 646;
}
);
note = uni10BF;
unicode = 10BF;
},
{
color = 5;
glyphname = uni10C0;
lastChange = "2015-09-22 12:29:31 +0000";
layers = (
{
layerId = "F1E1AA8A-A3F5-4941-B4E6-C7B9A7EBF3CF";
name = Light;
paths = (
{
closed = 1;
nodes = (
"551 -10 OFFCURVE",
"634 90 OFFCURVE",
"634 247 CURVE SMOOTH",
"634 255 LINE",
"608 255 LINE",
"608 247 LINE SMOOTH",
"608 94 OFFCURVE",
"530 16 OFFCURVE",
"403 16 CURVE SMOOTH",
"276 16 OFFCURVE",
"209 92 OFFCURVE",
"209 250 CURVE SMOOTH",
"209 714 LINE",
"30 714 LINE",
"30 545 LINE",
"56 545 LINE",
"56 689 LINE",
"183 689 LINE",
"183 250 LINE SMOOTH",
"183 87 OFFCURVE",
"249 -10 OFFCURVE",
"403 -10 CURVE SMOOTH"
);
}
);
width = 684;
},
{
layerId = "29BFE51A-F5BD-45F8-BEBC-9AD34273B132";
name = Bold;
paths = (
{
closed = 1;
nodes = (
"746 -10 OFFCURVE",
"851 96 OFFCURVE",
"851 266 CURVE SMOOTH",
"851 285 LINE",
"660 285 LINE",
"660 278 LINE SMOOTH",
"660 194 OFFCURVE",
"626 151 OFFCURVE",
"555 151 CURVE SMOOTH",
"484 151 OFFCURVE",
"447 194 OFFCURVE",
"447 293 CURVE SMOOTH",
"447 714 LINE",
"25 714 LINE",
"25 458 LINE",
"192 458 LINE",
"192 560 LINE",
"253 560 LINE",
"253 280 LINE SMOOTH",
"253 94 OFFCURVE",
"354 -10 OFFCURVE",
"550 -10 CURVE SMOOTH"
);
}
);
width = 876;
},
{
layerId = "0228171D-2638-482B-876E-783119597845";
name = "Light Condensed";
paths = (
{
closed = 1;
nodes = (
"407 -10 OFFCURVE",
"453 87 OFFCURVE",
"453 247 CURVE SMOOTH",
"453 257 LINE",
"427 257 LINE",
"427 248 LINE SMOOTH",
"427 87 OFFCURVE",
"383 15 OFFCURVE",
"298 15 CURVE SMOOTH",
"216 15 OFFCURVE",
"177 86 OFFCURVE",
"177 250 CURVE SMOOTH",
"177 714 LINE",
"30 714 LINE",
"30 545 LINE",
"56 545 LINE",
"56 689 LINE",
"151 689 LINE",
"151 250 LINE SMOOTH",
"151 86 OFFCURVE",
"190 -10 OFFCURVE",
"298 -10 CURVE SMOOTH"
);
}
);
width = 503;
},
{
layerId = "5ABCF6AD-94E3-4DCD-A28A-F55CA80EA6B2";
name = Condensed;
paths = (
{
closed = 1;
nodes = (
"491 -10 OFFCURVE",
"556 84 OFFCURVE",
"556 252 CURVE SMOOTH",
"556 268 LINE",
"474 268 LINE",
"474 258 LINE SMOOTH",
"474 126 OFFCURVE",
"439 63 OFFCURVE",
"367 63 CURVE SMOOTH",
"296 63 OFFCURVE",
"265 125 OFFCURVE",
"265 259 CURVE SMOOTH",
"265 714 LINE",
"26 714 LINE",
"26 511 LINE",
"100 511 LINE",
"100 646 LINE",
"183 646 LINE",
"183 254 LINE SMOOTH",
"183 83 OFFCURVE",
"238 -10 OFFCURVE",
"366 -10 CURVE SMOOTH"
);
}
);
width = 594;
},
{
layerId = "E419AE99-0260-44D0-87A9-BD030FD7659A";
name = "SemiBold Condensed";
paths = (
{
closed = 1;
nodes = (
"570 -10 OFFCURVE",
"654 81 OFFCURVE",
"654 257 CURVE SMOOTH",
"654 278 LINE",
"518 278 LINE",
"518 267 LINE SMOOTH",
"518 163 OFFCURVE",
"492 110 OFFCURVE",
"433 110 CURVE SMOOTH",
"373 110 OFFCURVE",
"349 161 OFFCURVE",
"349 268 CURVE SMOOTH",
"349 714 LINE",
"22 714 LINE",
"22 479 LINE",
"142 479 LINE",
"142 606 LINE",
"213 606 LINE",
"213 258 LINE SMOOTH",
"213 81 OFFCURVE",
"284 -10 OFFCURVE",
"431 -10 CURVE SMOOTH"
);
}
);
width = 681;
},
{
layerId = "C7A62E0A-0606-4C56-A5B0-C8EA8B1CCAFA";
name = "Bold Condensed";
paths = (
{
closed = 1;
nodes = (
"622 -10 OFFCURVE",
"717 79 OFFCURVE",
"717 260 CURVE SMOOTH",
"717 285 LINE",
"547 285 LINE",
"547 273 LINE SMOOTH",
"547 187 OFFCURVE",
"526 139 OFFCURVE",
"475 139 CURVE SMOOTH",
"422 139 OFFCURVE",
"403 185 OFFCURVE",
"403 273 CURVE SMOOTH",
"403 714 LINE",
"20 714 LINE",
"20 458 LINE",
"169 458 LINE",
"169 580 LINE",
"233 580 LINE",
"233 260 LINE SMOOTH",
"233 79 OFFCURVE",
"314 -10 OFFCURVE",
"473 -10 CURVE SMOOTH"
);
}
);
width = 737;
},
{
layerId = "9503992B-9F6A-43B6-8DBC-EB382B06F8D4";
name = Regular;
paths = (
{
closed = 1;
nodes = (
"622 -10 OFFCURVE",
"715 89 OFFCURVE",
"715 254 CURVE SMOOTH",
"715 264 LINE",
"625 264 LINE",
"625 251 LINE SMOOTH",
"625 134 OFFCURVE",
"570 68 OFFCURVE",
"459 68 CURVE SMOOTH",
"351 68 OFFCURVE",
"297 129 OFFCURVE",
"297 252 CURVE SMOOTH",
"297 714 LINE",
"20 714 LINE",
"20 521 LINE",
"106 521 LINE",
"106 636 LINE",
"207 636 LINE",
"207 252 LINE SMOOTH",
"207 84 OFFCURVE",
"296 -10 OFFCURVE",
"458 -10 CURVE SMOOTH"
);
}
);
width = 755;
},
{
layerId = "2D9814BA-45F0-4FCB-8967-A366BFC6AA80";
name = SemiBold;
paths = (
{
closed = 1;
nodes = (
"690 -10 OFFCURVE",
"803 86 OFFCURVE",
"803 252 CURVE SMOOTH",
"803 284 LINE",
"652 284 LINE",
"652 265 LINE SMOOTH",
"652 166 OFFCURVE",
"614 117 OFFCURVE",
"523 117 CURVE SMOOTH",
"432 117 OFFCURVE",
"392 164 OFFCURVE",
"392 265 CURVE SMOOTH",
"392 714 LINE",
"25 714 LINE",
"25 476 LINE",
"163 476 LINE",
"163 590 LINE",
"241 590 LINE",
"241 254 LINE SMOOTH",
"241 88 OFFCURVE",
"344 -10 OFFCURVE",
"519 -10 CURVE SMOOTH"
);
}
);
width = 828;
}
);
note = uni10C0;
unicode = 10C0;
},
{
color = 5;
glyphname = uni10C1;
lastChange = "2015-09-22 12:09:46 +0000";
layers = (
{
layerId = "F1E1AA8A-A3F5-4941-B4E6-C7B9A7EBF3CF";
name = Light;
paths = (
{
closed = 1;
nodes = (
"129 0 LINE",
"129 313 LINE SMOOTH",
"129 416 OFFCURVE",
"196 513 OFFCURVE",
"310 513 CURVE SMOOTH",
"401 513 OFFCURVE",
"444 453 OFFCURVE",
"444 313 CURVE SMOOTH",
"444 283 LINE",
"592 283 LINE",
"592 308 LINE",
"470 308 LINE",
"470 465 OFFCURVE",
"428 538 OFFCURVE",
"311 538 CURVE SMOOTH",
"249 538 OFFCURVE",
"167 509 OFFCURVE",
"129 418 CURVE",
"127 418 LINE",
"128 454 OFFCURVE",
"129 488 OFFCURVE",
"129 524 CURVE SMOOTH",
"129 714 LINE",
"103 714 LINE",
"103 0 LINE"
);
}
);
width = 612;
},
{
layerId = "29BFE51A-F5BD-45F8-BEBC-9AD34273B132";
name = Bold;
paths = (
{
closed = 1;
nodes = (
"271 0 LINE",
"271 243 LINE SMOOTH",
"271 356 OFFCURVE",
"304 411 OFFCURVE",
"381 411 CURVE SMOOTH",
"451 411 OFFCURVE",
"481 362 OFFCURVE",
"481 281 CURVE SMOOTH",
"481 222 LINE",
"763 222 LINE",
"763 380 LINE",
"666 380 LINE",
"647 490 OFFCURVE",
"574 568 OFFCURVE",
"451 568 CURVE SMOOTH",
"366 568 OFFCURVE",
"306 537 OFFCURVE",
"267 481 CURVE",
"262 481 LINE",
"269 540 OFFCURVE",
"271 592 OFFCURVE",
"271 638 CURVE SMOOTH",
"271 714 LINE",
"77 714 LINE",
"77 0 LINE"
);
}
);
width = 783;
},
{
layerId = "0228171D-2638-482B-876E-783119597845";
name = "Light Condensed";
paths = (
{
closed = 1;
nodes = (
"104 0 LINE",
"104 311 LINE SMOOTH",
"104 420 OFFCURVE",
"141 512 OFFCURVE",
"214 512 CURVE SMOOTH",
"280 512 OFFCURVE",
"305 456 OFFCURVE",
"305 311 CURVE SMOOTH",
"305 286 LINE",
"410 286 LINE",
"410 311 LINE",
"331 311 LINE",
"331 470 OFFCURVE",
"299 537 OFFCURVE",
"216 537 CURVE SMOOTH",
"164 537 OFFCURVE",
"123 503 OFFCURVE",
"102 433 CURVE",
"101 433 LINE",
"103 465 OFFCURVE",
"104 490 OFFCURVE",
"104 524 CURVE SMOOTH",
"104 714 LINE",
"78 714 LINE",
"78 0 LINE"
);
}
);
width = 430;
},
{
layerId = "5ABCF6AD-94E3-4DCD-A28A-F55CA80EA6B2";
name = Condensed;
paths = (
{
closed = 1;
nodes = (
"153 0 LINE",
"153 296 LINE SMOOTH",
"153 406 OFFCURVE",
"187 478 OFFCURVE",
"252 478 CURVE SMOOTH",
"314 478 OFFCURVE",
"338 429 OFFCURVE",
"338 307 CURVE SMOOTH",
"338 261 LINE",
"495 261 LINE",
"495 331 LINE",
"419 331 LINE",
"414 475 OFFCURVE",
"372 546 OFFCURVE",
"279 546 CURVE SMOOTH",
"218 546 OFFCURVE",
"175 513 OFFCURVE",
"151 451 CURVE",
"149 451 LINE",
"152 485 OFFCURVE",
"153 517 OFFCURVE",
"153 551 CURVE SMOOTH",
"153 714 LINE",
"71 714 LINE",
"71 0 LINE"
);
}
);
width = 515;
},
{
layerId = "E419AE99-0260-44D0-87A9-BD030FD7659A";
name = "SemiBold Condensed";
paths = (
{
closed = 1;
nodes = (
"200 0 LINE",
"200 281 LINE SMOOTH",
"200 393 OFFCURVE",
"230 446 OFFCURVE",
"288 446 CURVE SMOOTH",
"345 446 OFFCURVE",
"369 403 OFFCURVE",
"369 303 CURVE SMOOTH",
"369 237 LINE",
"576 237 LINE",
"576 349 LINE",
"503 349 LINE",
"493 479 OFFCURVE",
"440 555 OFFCURVE",
"338 555 CURVE SMOOTH",
"270 555 OFFCURVE",
"225 523 OFFCURVE",
"198 468 CURVE",
"194 468 LINE",
"198 503 OFFCURVE",
"200 543 OFFCURVE",
"200 577 CURVE SMOOTH",
"200 714 LINE",
"64 714 LINE",
"64 0 LINE"
);
}
);
width = 595;
},
{
layerId = "C7A62E0A-0606-4C56-A5B0-C8EA8B1CCAFA";
name = "Bold Condensed";
paths = (
{
closed = 1;
nodes = (
"229 0 LINE",
"229 272 LINE SMOOTH",
"229 385 OFFCURVE",
"257 425 OFFCURVE",
"311 425 CURVE SMOOTH",
"365 425 OFFCURVE",
"388 386 OFFCURVE",
"388 300 CURVE SMOOTH",
"388 222 LINE",
"627 222 LINE",
"627 361 LINE",
"556 361 LINE",
"543 482 OFFCURVE",
"484 560 OFFCURVE",
"376 560 CURVE SMOOTH",
"302 560 OFFCURVE",
"256 529 OFFCURVE",
"227 479 CURVE",
"223 479 LINE",
"227 515 OFFCURVE",
"229 560 OFFCURVE",
"229 593 CURVE SMOOTH",
"229 714 LINE",
"59 714 LINE",
"59 0 LINE"
);
}
);
width = 647;
},
{
layerId = "9503992B-9F6A-43B6-8DBC-EB382B06F8D4";
name = Regular;
paths = (
{
closed = 1;
nodes = (
"188 0 LINE",
"188 286 LINE SMOOTH",
"188 407 OFFCURVE",
"241 468 OFFCURVE",
"346 468 CURVE SMOOTH",
"434 468 OFFCURVE",
"470 421 OFFCURVE",
"470 332 CURVE SMOOTH",
"470 252 LINE",
"674 252 LINE",
"674 330 LINE",
"560 330 LINE",
"560 469 OFFCURVE",
"489 546 OFFCURVE",
"358 546 CURVE SMOOTH",
"287 546 OFFCURVE",
"230 518 OFFCURVE",
"189 462 CURVE",
"184 462 LINE",
"187 491 OFFCURVE",
"188 515 OFFCURVE",
"188 532 CURVE",
"188 714 LINE",
"98 714 LINE",
"98 0 LINE"
);
}
);
width = 694;
},
{
layerId = "2D9814BA-45F0-4FCB-8967-A366BFC6AA80";
name = SemiBold;
paths = (
{
closed = 1;
nodes = (
"241 0 LINE",
"241 241 LINE SMOOTH",
"241 378 OFFCURVE",
"278 430 OFFCURVE",
"377 430 CURVE SMOOTH",
"455 430 OFFCURVE",
"494 383 OFFCURVE",
"494 289 CURVE SMOOTH",
"494 222 LINE",
"749 222 LINE",
"749 347 LINE",
"643 347 LINE",
"629 480 OFFCURVE",
"548 556 OFFCURVE",
"423 556 CURVE SMOOTH",
"343 556 OFFCURVE",
"283 525 OFFCURVE",
"242 463 CURVE",
"234 463 LINE",
"239 526 OFFCURVE",
"241 569 OFFCURVE",
"241 592 CURVE SMOOTH",
"241 714 LINE",
"90 714 LINE",
"90 0 LINE"
);
}
);
width = 769;
}
);
note = uni10C1;
unicode = 10C1;
},
{
color = 5;
glyphname = uni10C2;
lastChange = "2015-09-22 12:09:46 +0000";
layers = (
{
layerId = "F1E1AA8A-A3F5-4941-B4E6-C7B9A7EBF3CF";
name = Light;
paths = (
{
closed = 1;
nodes = (
"409 -10 OFFCURVE",
"524 111 OFFCURVE",
"524 309 CURVE SMOOTH",
"524 508 OFFCURVE",
"401 625 OFFCURVE",
"215 625 CURVE SMOOTH",
"143 625 LINE",
"143 714 LINE",
"117 714 LINE",
"117 600 LINE",
"212 600 LINE SMOOTH",
"381 600 OFFCURVE",
"497 497 OFFCURVE",
"497 309 CURVE SMOOTH",
"497 133 OFFCURVE",
"400 15 OFFCURVE",
"230 15 CURVE SMOOTH",
"162 15 OFFCURVE",
"117 26 OFFCURVE",
"63 41 CURVE",
"63 15 LINE",
"111 0 OFFCURVE",
"153 -10 OFFCURVE",
"230 -10 CURVE SMOOTH"
);
}
);
width = 588;
},
{
layerId = "29BFE51A-F5BD-45F8-BEBC-9AD34273B132";
name = Bold;
paths = (
{
closed = 1;
nodes = (
"504 -10 OFFCURVE",
"646 104 OFFCURVE",
"646 320 CURVE SMOOTH",
"646 525 OFFCURVE",
"509 630 OFFCURVE",
"259 630 CURVE SMOOTH",
"248 630 LINE",
"248 714 LINE",
"65 714 LINE",
"65 474 LINE",
"245 474 LINE SMOOTH",
"386 474 OFFCURVE",
"447 419 OFFCURVE",
"447 314 CURVE SMOOTH",
"447 205 OFFCURVE",
"374 148 OFFCURVE",
"240 148 CURVE SMOOTH",
"174 148 OFFCURVE",
"99 168 OFFCURVE",
"42 193 CURVE",
"42 30 LINE",
"107 0 OFFCURVE",
"175 -10 OFFCURVE",
"253 -10 CURVE SMOOTH"
);
}
);
width = 698;
},
{
layerId = "0228171D-2638-482B-876E-783119597845";
name = "Light Condensed";
paths = (
{
closed = 1;
nodes = (
"289 -10 OFFCURVE",
"363 121 OFFCURVE",
"363 308 CURVE SMOOTH",
"363 478 OFFCURVE",
"303 625 OFFCURVE",
"148 625 CURVE SMOOTH",
"113 625 LINE",
"113 714 LINE",
"87 714 LINE",
"87 600 LINE",
"148 600 LINE SMOOTH",
"284 600 OFFCURVE",
"336 459 OFFCURVE",
"336 307 CURVE SMOOTH",
"336 144 OFFCURVE",
"274 15 OFFCURVE",
"154 15 CURVE SMOOTH",
"109 15 OFFCURVE",
"77 30 OFFCURVE",
"53 41 CURVE",
"53 14 LINE",
"82 0 OFFCURVE",
"116 -10 OFFCURVE",
"154 -10 CURVE SMOOTH"
);
}
);
width = 417;
},
{
layerId = "5ABCF6AD-94E3-4DCD-A28A-F55CA80EA6B2";
name = Condensed;
paths = (
{
closed = 1;
nodes = (
"322 -10 OFFCURVE",
"408 115 OFFCURVE",
"408 312 CURVE SMOOTH",
"408 495 OFFCURVE",
"331 627 OFFCURVE",
"181 627 CURVE SMOOTH",
"153 627 LINE",
"153 714 LINE",
"74 714 LINE",
"74 557 LINE",
"153 557 LINE SMOOTH",
"275 557 OFFCURVE",
"322 449 OFFCURVE",
"322 310 CURVE SMOOTH",
"322 164 OFFCURVE",
"267 63 OFFCURVE",
"166 63 CURVE SMOOTH",
"118 63 OFFCURVE",
"81 79 OFFCURVE",
"51 96 CURVE",
"51 19 LINE",
"89 1 OFFCURVE",
"125 -10 OFFCURVE",
"176 -10 CURVE SMOOTH"
);
}
);
width = 456;
},
{
layerId = "E419AE99-0260-44D0-87A9-BD030FD7659A";
name = "SemiBold Condensed";
paths = (
{
closed = 1;
nodes = (
"354 -10 OFFCURVE",
"451 109 OFFCURVE",
"451 315 CURVE SMOOTH",
"451 512 OFFCURVE",
"359 629 OFFCURVE",
"213 629 CURVE SMOOTH",
"192 629 LINE",
"192 714 LINE",
"63 714 LINE",
"63 517 LINE",
"159 517 LINE SMOOTH",
"267 517 OFFCURVE",
"310 440 OFFCURVE",
"310 313 CURVE SMOOTH",
"310 183 OFFCURVE",
"261 108 OFFCURVE",
"178 108 CURVE SMOOTH",
"128 108 OFFCURVE",
"85 126 OFFCURVE",
"50 148 CURVE",
"50 25 LINE",
"96 2 OFFCURVE",
"135 -10 OFFCURVE",
"197 -10 CURVE SMOOTH"
);
}
);
width = 494;
},
{
layerId = "C7A62E0A-0606-4C56-A5B0-C8EA8B1CCAFA";
name = "Bold Condensed";
paths = (
{
closed = 1;
nodes = (
"374 -10 OFFCURVE",
"479 105 OFFCURVE",
"479 317 CURVE SMOOTH",
"479 522 OFFCURVE",
"376 630 OFFCURVE",
"233 630 CURVE SMOOTH",
"216 630 LINE",
"216 714 LINE",
"56 714 LINE",
"56 491 LINE",
"163 491 LINE SMOOTH",
"262 491 OFFCURVE",
"302 434 OFFCURVE",
"302 315 CURVE SMOOTH",
"302 195 OFFCURVE",
"257 137 OFFCURVE",
"185 137 CURVE SMOOTH",
"134 137 OFFCURVE",
"88 156 OFFCURVE",
"49 182 CURVE",
"49 28 LINE",
"100 2 OFFCURVE",
"141 -10 OFFCURVE",
"211 -10 CURVE SMOOTH"
);
}
);
width = 518;
},
{
layerId = "9503992B-9F6A-43B6-8DBC-EB382B06F8D4";
name = Regular;
paths = (
{
closed = 1;
nodes = (
"425 -10 OFFCURVE",
"554 114 OFFCURVE",
"554 312 CURVE SMOOTH",
"554 517 OFFCURVE",
"437 630 OFFCURVE",
"226 630 CURVE SMOOTH",
"166 630 LINE",
"166 714 LINE",
"80 714 LINE",
"80 551 LINE",
"212 551 LINE SMOOTH",
"370 551 OFFCURVE",
"459 467 OFFCURVE",
"459 312 CURVE SMOOTH",
"459 162 OFFCURVE",
"365 69 OFFCURVE",
"219 69 CURVE SMOOTH",
"162 69 OFFCURVE",
"105 78 OFFCURVE",
"42 97 CURVE",
"42 19 LINE",
"99 -2 OFFCURVE",
"152 -10 OFFCURVE",
"226 -10 CURVE SMOOTH"
);
}
);
width = 615;
},
{
layerId = "2D9814BA-45F0-4FCB-8967-A366BFC6AA80";
name = SemiBold;
paths = (
{
closed = 1;
nodes = (
"456 -10 OFFCURVE",
"609 106 OFFCURVE",
"609 315 CURVE SMOOTH",
"609 520 OFFCURVE",
"487 630 OFFCURVE",
"252 630 CURVE SMOOTH",
"209 630 LINE",
"209 714 LINE",
"71 714 LINE",
"71 504 LINE",
"238 504 LINE SMOOTH",
"388 504 OFFCURVE",
"453 441 OFFCURVE",
"453 316 CURVE SMOOTH",
"453 191 OFFCURVE",
"375 116 OFFCURVE",
"236 116 CURVE SMOOTH",
"183 116 OFFCURVE",
"120 129 OFFCURVE",
"48 154 CURVE",
"48 27 LINE",
"114 0 OFFCURVE",
"167 -10 OFFCURVE",
"238 -10 CURVE SMOOTH"
);
}
);
width = 663;
}
);
note = uni10C2;
unicode = 10C2;
},
